%TF.GenerationSoftware,KiCad,Pcbnew,10.0.0*%
%TF.CreationDate,2026-05-17T03:32:48+02:00*%
%TF.ProjectId,motordriver,6d6f746f-7264-4726-9976-65722e6b6963,rev?*%
%TF.SameCoordinates,Original*%
%TF.FileFunction,Paste,Top*%
%TF.FilePolarity,Positive*%
%FSLAX46Y46*%
G04 Gerber Fmt 4.6, Leading zero omitted, Abs format (unit mm)*
G04 Created by KiCad (PCBNEW 10.0.0) date 2026-05-17 03:32:48*
%MOMM*%
%LPD*%
G01*
G04 APERTURE LIST*
G04 Aperture macros list*
%AMRoundRect*
0 Rectangle with rounded corners*
0 $1 Rounding radius*
0 $2 $3 $4 $5 $6 $7 $8 $9 X,Y pos of 4 corners*
0 Add a 4 corners polygon primitive as box body*
4,1,4,$2,$3,$4,$5,$6,$7,$8,$9,$2,$3,0*
0 Add four circle primitives for the rounded corners*
1,1,$1+$1,$2,$3*
1,1,$1+$1,$4,$5*
1,1,$1+$1,$6,$7*
1,1,$1+$1,$8,$9*
0 Add four rect primitives between the rounded corners*
20,1,$1+$1,$2,$3,$4,$5,0*
20,1,$1+$1,$4,$5,$6,$7,0*
20,1,$1+$1,$6,$7,$8,$9,0*
20,1,$1+$1,$8,$9,$2,$3,0*%
G04 Aperture macros list end*
%ADD10RoundRect,0.250000X-0.325000X-0.650000X0.325000X-0.650000X0.325000X0.650000X-0.325000X0.650000X0*%
%ADD11RoundRect,0.250000X-0.625000X0.312500X-0.625000X-0.312500X0.625000X-0.312500X0.625000X0.312500X0*%
%ADD12RoundRect,0.250000X-0.475000X0.250000X-0.475000X-0.250000X0.475000X-0.250000X0.475000X0.250000X0*%
%ADD13RoundRect,0.175000X0.175000X0.625000X-0.175000X0.625000X-0.175000X-0.625000X0.175000X-0.625000X0*%
%ADD14RoundRect,0.200000X0.200000X0.600000X-0.200000X0.600000X-0.200000X-0.600000X0.200000X-0.600000X0*%
%ADD15RoundRect,0.225000X0.225000X0.575000X-0.225000X0.575000X-0.225000X-0.575000X0.225000X-0.575000X0*%
%ADD16RoundRect,0.250000X0.325000X0.650000X-0.325000X0.650000X-0.325000X-0.650000X0.325000X-0.650000X0*%
%ADD17RoundRect,0.250000X-0.312500X-0.625000X0.312500X-0.625000X0.312500X0.625000X-0.312500X0.625000X0*%
%ADD18RoundRect,0.250000X0.625000X-0.312500X0.625000X0.312500X-0.625000X0.312500X-0.625000X-0.312500X0*%
%ADD19RoundRect,0.200000X0.275000X-0.200000X0.275000X0.200000X-0.275000X0.200000X-0.275000X-0.200000X0*%
%ADD20RoundRect,0.250000X0.312500X0.625000X-0.312500X0.625000X-0.312500X-0.625000X0.312500X-0.625000X0*%
%ADD21RoundRect,0.225000X-0.250000X0.225000X-0.250000X-0.225000X0.250000X-0.225000X0.250000X0.225000X0*%
%ADD22RoundRect,0.247500X-0.247500X-0.682500X0.247500X-0.682500X0.247500X0.682500X-0.247500X0.682500X0*%
%ADD23RoundRect,0.100000X-0.687500X-0.100000X0.687500X-0.100000X0.687500X0.100000X-0.687500X0.100000X0*%
G04 APERTURE END LIST*
D10*
%TO.C,C4*%
X130171600Y-120396200D03*
X133121600Y-120396200D03*
%TD*%
D11*
%TO.C,R2*%
X116256000Y-112101100D03*
X116256000Y-115026100D03*
%TD*%
D12*
%TO.C,C1*%
X129413200Y-112603400D03*
X129413200Y-114503400D03*
%TD*%
D13*
%TO.C,J1*%
X125000000Y-107180000D03*
D14*
X122980000Y-107180000D03*
D15*
X121750000Y-107180000D03*
D13*
X124000000Y-107180000D03*
D14*
X126020000Y-107180000D03*
D15*
X127250000Y-107180000D03*
%TD*%
D16*
%TO.C,C5*%
X104982000Y-120370800D03*
X102032000Y-120370800D03*
%TD*%
D17*
%TO.C,R5*%
X106817900Y-120370800D03*
X109742900Y-120370800D03*
%TD*%
D18*
%TO.C,R3*%
X116256000Y-119902900D03*
X116256000Y-116977900D03*
%TD*%
D19*
%TO.C,R6*%
X116000000Y-105075000D03*
X116000000Y-103425000D03*
%TD*%
D20*
%TO.C,R1*%
X121426900Y-110490200D03*
X118501900Y-110490200D03*
%TD*%
D10*
%TO.C,C3*%
X123391600Y-110490200D03*
X126341600Y-110490200D03*
%TD*%
D17*
%TO.C,R4*%
X138781800Y-119812000D03*
X141706800Y-119812000D03*
%TD*%
D19*
%TO.C,R7*%
X117750000Y-104325000D03*
X117750000Y-102675000D03*
%TD*%
D21*
%TO.C,C2*%
X129159200Y-116077600D03*
X129159200Y-117627600D03*
%TD*%
D10*
%TO.C,C6*%
X143582800Y-119812000D03*
X146532800Y-119812000D03*
%TD*%
D22*
%TO.C,U2*%
X123499000Y-115980000D03*
X124729000Y-115980000D03*
D23*
X121251500Y-113705000D03*
X121251500Y-114355000D03*
X121251500Y-115005000D03*
X121251500Y-115655000D03*
X121251500Y-116305000D03*
X121251500Y-116955000D03*
X121251500Y-117605000D03*
X121251500Y-118255000D03*
X126976500Y-118255000D03*
X126976500Y-117605000D03*
X126976500Y-116955000D03*
X126976500Y-116305000D03*
X126976500Y-115655000D03*
X126976500Y-115005000D03*
X126976500Y-114355000D03*
X126976500Y-113705000D03*
%TD*%
M02*
