M48
; DRILL file KiCad 10.0.0 date 2026-05-26T19:45:16
; FORMAT={-:-/ absolute / inch / decimal}
; #@! TF.CreationDate,2026-05-26T19:45:16+02:00
; #@! TF.GenerationSoftware,Kicad,Pcbnew,10.0.0
; #@! TF.FileFunction,Plated,1,2,PTH
FMAT,2
INCH
; #@! TA.AperFunction,Plated,PTH,ComponentDrill
T1C0.0118
; #@! TA.AperFunction,Plated,PTH,ViaDrill
T2C0.0197
; #@! TA.AperFunction,Plated,PTH,ComponentDrill
T3C0.0197
; #@! TA.AperFunction,Plated,PTH,ComponentDrill
T4C0.0394
%
G90
G05
T1
X4.847Y-4.4953
X4.847Y-4.5425
X4.847Y-4.5898
X4.847Y-4.637
X4.8864Y-4.4953
X4.8864Y-4.5425
X4.8864Y-4.5898
X4.8864Y-4.637
X4.9257Y-4.4953
X4.9257Y-4.5425
X4.9257Y-4.5898
X4.9257Y-4.637
T2
X4.0157Y-4.6634
X4.341Y-4.417
X4.341Y-4.635
X4.5472Y-4.0098
X4.5768Y-4.3406
X4.5768Y-4.6614
X4.5787Y-4.2106
X4.665Y-4.589
X4.665Y-4.662
X4.7933Y-4.1594
X4.953Y-4.432
X4.9803Y-4.1437
X5.022Y-4.433
X5.0295Y-4.1437
X5.0591Y-4.3563
X5.061Y-4.7244
X5.061Y-4.7657
X5.1083Y-4.3563
X5.143Y-4.57
X5.187Y-4.394
X5.2155Y-4.538
X5.235Y-4.395
X5.4154Y-4.0669
X5.4232Y-4.5827
X5.4232Y-4.6398
X5.442Y-4.485
X5.7343Y-4.7835
T4
X4.0339Y-4.4906
X4.0339Y-4.5906
X4.1339Y-4.4906
X4.1339Y-4.5906
X4.2339Y-4.4906
X4.2339Y-4.5906
X4.4543Y-4.0157
X4.4543Y-4.1157
X4.4543Y-4.2157
X4.4543Y-4.3157
X4.4543Y-4.4157
X4.4543Y-4.5157
X4.4543Y-4.6157
X4.4543Y-4.7157
X5.3543Y-4.0157
X5.3543Y-4.1157
X5.3543Y-4.2157
X5.3543Y-4.3157
X5.3543Y-4.4157
X5.3543Y-4.5157
X5.3543Y-4.6157
X5.3543Y-4.7157
X5.573Y-4.4905
X5.573Y-4.5905
X5.673Y-4.4905
X5.673Y-4.5905
X5.773Y-4.4905
X5.773Y-4.5905
T3
G00X4.7315Y-4.0768
M15
G01X4.7315Y-4.0492
M16
G05
G00X4.7315Y-4.2264
M15
G01X4.7315Y-4.1988
M16
G05
G00X5.0717Y-4.0768
M15
G01X5.0717Y-4.0492
M16
G05
G00X5.0717Y-4.2264
M15
G01X5.0717Y-4.1988
M16
G05
M30
