%TF.GenerationSoftware,KiCad,Pcbnew,10.0.0*%
%TF.CreationDate,2026-05-26T19:45:16+02:00*%
%TF.ProjectId,motordriver,6d6f746f-7264-4726-9976-65722e6b6963,rev?*%
%TF.SameCoordinates,Original*%
%TF.FileFunction,Legend,Bot*%
%TF.FilePolarity,Positive*%
%FSLAX46Y46*%
G04 Gerber Fmt 4.6, Leading zero omitted, Abs format (unit mm)*
G04 Created by KiCad (PCBNEW 10.0.0) date 2026-05-26 19:45:16*
%MOMM*%
%LPD*%
G01*
G04 APERTURE LIST*
%ADD10C,0.100000*%
%ADD11R,1.700000X1.700000*%
%ADD12C,1.700000*%
%ADD13O,1.000000X1.700000*%
%ADD14C,1.296000*%
G04 APERTURE END LIST*
%LPC*%
D10*
X124791706Y-108734943D02*
X127541706Y-108734943D01*
X127541706Y-110984943D01*
X124791706Y-110984943D01*
X124791706Y-108734943D01*
G36*
X124791706Y-108734943D02*
G01*
X127541706Y-108734943D01*
X127541706Y-110984943D01*
X124791706Y-110984943D01*
X124791706Y-108734943D01*
G37*
X131000000Y-108750000D02*
X133750000Y-108750000D01*
X133750000Y-111000000D01*
X131000000Y-111000000D01*
X131000000Y-108750000D01*
G36*
X131000000Y-108750000D02*
G01*
X133750000Y-108750000D01*
X133750000Y-111000000D01*
X131000000Y-111000000D01*
X131000000Y-108750000D01*
G37*
D11*
%TO.C,J2*%
X136000000Y-119780000D03*
D12*
X136000000Y-117240000D03*
X136000000Y-114700000D03*
X136000000Y-112160000D03*
X136000000Y-109620000D03*
X136000000Y-107080000D03*
X136000000Y-104540000D03*
X136000000Y-102000000D03*
%TD*%
D13*
%TO.C,J1*%
X128820000Y-107000000D03*
X128820000Y-103200000D03*
X120180000Y-107000000D03*
X120180000Y-103200000D03*
%TD*%
D11*
%TO.C,J4*%
X102460000Y-116600000D03*
D12*
X102460000Y-114060000D03*
X105000000Y-116600000D03*
X105000000Y-114060000D03*
X107540000Y-116600000D03*
X107540000Y-114060000D03*
%TD*%
D11*
%TO.C,J5*%
X141554000Y-116598000D03*
D12*
X141554000Y-114058000D03*
X144094000Y-116598000D03*
X144094000Y-114058000D03*
X146634000Y-116598000D03*
X146634000Y-114058000D03*
%TD*%
D14*
%TO.C,H3*%
X147500000Y-101500000D03*
%TD*%
%TO.C,H2*%
X101500000Y-123500000D03*
%TD*%
%TO.C,H1*%
X101500000Y-101500000D03*
%TD*%
D11*
%TO.C,J3*%
X113140000Y-102000000D03*
D12*
X113140000Y-104540000D03*
X113140000Y-107080000D03*
X113140000Y-109620000D03*
X113140000Y-112160000D03*
X113140000Y-114700000D03*
X113140000Y-117240000D03*
X113140000Y-119780000D03*
%TD*%
%LPD*%
M02*
