%TF.GenerationSoftware,KiCad,Pcbnew,10.0.0*%
%TF.CreationDate,2026-05-26T19:45:16+02:00*%
%TF.ProjectId,motordriver,6d6f746f-7264-4726-9976-65722e6b6963,rev?*%
%TF.SameCoordinates,Original*%
%TF.FileFunction,Copper,L2,Bot*%
%TF.FilePolarity,Positive*%
%FSLAX46Y46*%
G04 Gerber Fmt 4.6, Leading zero omitted, Abs format (unit mm)*
G04 Created by KiCad (PCBNEW 10.0.0) date 2026-05-26 19:45:16*
%MOMM*%
%LPD*%
G01*
G04 APERTURE LIST*
%TA.AperFunction,NonConductor*%
%ADD10C,0.200000*%
%TD*%
%TA.AperFunction,ComponentPad*%
%ADD11R,1.700000X1.700000*%
%TD*%
%TA.AperFunction,ComponentPad*%
%ADD12C,1.700000*%
%TD*%
%TA.AperFunction,ComponentPad*%
%ADD13O,1.000000X1.700000*%
%TD*%
%TA.AperFunction,HeatsinkPad*%
%ADD14C,0.600000*%
%TD*%
%TA.AperFunction,HeatsinkPad*%
%ADD15R,2.500000X4.100000*%
%TD*%
%TA.AperFunction,ViaPad*%
%ADD16C,0.900000*%
%TD*%
%TA.AperFunction,Conductor*%
%ADD17C,0.500000*%
%TD*%
%TA.AperFunction,Conductor*%
%ADD18C,0.300000*%
%TD*%
G04 APERTURE END LIST*
D10*
X125666706Y-109859943D02*
X126666706Y-109859943D01*
X131900000Y-109900000D02*
X132900000Y-109900000D01*
X132400000Y-110400000D02*
X132400000Y-109400000D01*
D11*
%TO.P,J2,1,Pin_1_1*%
%TO.N,+5V*%
X136000000Y-119780000D03*
D12*
%TO.P,J2,2,Pin_2_2*%
%TO.N,GND*%
X136000000Y-117240000D03*
%TO.P,J2,3,Pin_3_3*%
%TO.N,/MotorR1*%
X136000000Y-114700000D03*
%TO.P,J2,4,Pin_4_4*%
%TO.N,/MotorR2*%
X136000000Y-112160000D03*
%TO.P,J2,5,Pin_5_5*%
%TO.N,/MotorL1*%
X136000000Y-109620000D03*
%TO.P,J2,6,Pin_6_6*%
%TO.N,/MotorL2*%
X136000000Y-107080000D03*
%TO.P,J2,7,Pin_7_7*%
%TO.N,/Servo1*%
X136000000Y-104540000D03*
%TO.P,J2,8,Pin_8_8*%
%TO.N,unconnected-(J2-Pin_8-Pad8)*%
X136000000Y-102000000D03*
%TD*%
D13*
%TO.P,J1,SH,SHIELD_SH*%
%TO.N,unconnected-(J1-SHIELD-PadSH)*%
X128820000Y-107000000D03*
X128820000Y-103200000D03*
X120180000Y-107000000D03*
X120180000Y-103200000D03*
%TD*%
D11*
%TO.P,J4,1,Pin_1_1*%
%TO.N,unconnected-(J4-Pin_1-Pad1)*%
X102460000Y-116600000D03*
D12*
%TO.P,J4,2,Pin_2_2*%
%TO.N,/Servo2*%
X102460000Y-114060000D03*
%TO.P,J4,3,Pin_3_3*%
%TO.N,Net-(J4-Pin_3)*%
X105000000Y-116600000D03*
%TO.P,J4,4,Pin_4_4*%
%TO.N,Net-(J4-Pin_4)*%
X105000000Y-114060000D03*
%TO.P,J4,5,Pin_5_5*%
%TO.N,Net-(J4-Pin_5)*%
X107540000Y-116600000D03*
%TO.P,J4,6,Pin_6_6*%
%TO.N,GND*%
X107540000Y-114060000D03*
%TD*%
D11*
%TO.P,J5,1,Pin_1_1*%
%TO.N,unconnected-(J5-Pin_1-Pad1)*%
X141554000Y-116598000D03*
D12*
%TO.P,J5,2,Pin_2_2*%
%TO.N,/Servo1*%
X141554000Y-114058000D03*
%TO.P,J5,3,Pin_3_3*%
%TO.N,Net-(J5-Pin_3)*%
X144094000Y-116598000D03*
%TO.P,J5,4,Pin_4_4*%
%TO.N,Net-(J5-Pin_4)*%
X144094000Y-114058000D03*
%TO.P,J5,5,Pin_5_5*%
%TO.N,Net-(J5-Pin_5)*%
X146634000Y-116598000D03*
%TO.P,J5,6,Pin_6_6*%
%TO.N,GND*%
X146634000Y-114058000D03*
%TD*%
D11*
%TO.P,J3,1,Pin_1_1*%
%TO.N,unconnected-(J3-Pin_1-Pad1)*%
X113140000Y-102000000D03*
D12*
%TO.P,J3,2,Pin_2_2*%
%TO.N,unconnected-(J3-Pin_2-Pad2)*%
X113140000Y-104540000D03*
%TO.P,J3,3,Pin_3_3*%
%TO.N,/Servo2*%
X113140000Y-107080000D03*
%TO.P,J3,4,Pin_4_4*%
%TO.N,unconnected-(J3-Pin_4-Pad4)*%
X113140000Y-109620000D03*
%TO.P,J3,5,Pin_5_5*%
%TO.N,GND*%
X113140000Y-112160000D03*
%TO.P,J3,6,Pin_6_6*%
%TO.N,unconnected-(J3-Pin_6-Pad6)*%
X113140000Y-114700000D03*
%TO.P,J3,7,Pin_7_7*%
%TO.N,unconnected-(J3-Pin_7-Pad7)*%
X113140000Y-117240000D03*
%TO.P,J3,8,Pin_8_8*%
%TO.N,unconnected-(J3-Pin_8-Pad8)*%
X113140000Y-119780000D03*
%TD*%
D14*
%TO.P,U2,17,GND_17*%
%TO.N,GND*%
X123114000Y-114180000D03*
X123114000Y-115380000D03*
X123114000Y-116580000D03*
X123114000Y-117780000D03*
X124114000Y-114180000D03*
X124114000Y-115380000D03*
D15*
X124114000Y-115980000D03*
D14*
X124114000Y-116580000D03*
X124114000Y-117780000D03*
X125114000Y-114180000D03*
X125114000Y-115380000D03*
X125114000Y-116580000D03*
X125114000Y-117780000D03*
%TD*%
D16*
%TO.N,+5V*%
X110261600Y-112192000D03*
X132969200Y-111633200D03*
X110261600Y-117729200D03*
X131750000Y-111607800D03*
%TO.N,GND*%
X121750000Y-105650000D03*
X129750000Y-110650000D03*
X137750000Y-117850000D03*
X127750000Y-105250000D03*
X116300000Y-106950000D03*
X115500000Y-101850000D03*
X126500000Y-105250000D03*
X128500000Y-110650000D03*
X137550000Y-103300000D03*
X116250000Y-110250000D03*
X137750000Y-116400000D03*
X102000000Y-118450000D03*
X116250000Y-118400000D03*
X128550000Y-120000000D03*
X145650000Y-121500000D03*
X128550000Y-121050000D03*
%TO.N,/MotorR1*%
X132473800Y-115265400D03*
X127559000Y-112598400D03*
%TO.N,/MotorL1*%
X138227000Y-113919200D03*
%TO.N,Net-(J5-Pin_5)*%
X118491200Y-116560800D03*
X118491200Y-118415000D03*
%TO.N,Net-(U2-VM)*%
X125806400Y-112573000D03*
X130632400Y-116078200D03*
%TD*%
%TO.N,+5V*%
D17*
X131750000Y-111887200D02*
X132969200Y-113106400D01*
X136000000Y-119780000D02*
X136000000Y-120074200D01*
X133756600Y-113893800D02*
X132969200Y-113106400D01*
X133756600Y-117830800D02*
X133756600Y-113893800D01*
X135705800Y-119780000D02*
X133756600Y-117830800D01*
X131750000Y-111607800D02*
X131750000Y-111887200D01*
X132969200Y-111633200D02*
X132969200Y-113106400D01*
X110261600Y-117729200D02*
X110261600Y-112192000D01*
%TO.N,/MotorR1*%
D18*
X128575000Y-113639800D02*
X128575000Y-113614400D01*
X128575000Y-113614400D02*
X127559000Y-112598400D01*
X130848200Y-113639800D02*
X128575000Y-113639800D01*
X132473800Y-115265400D02*
X130848200Y-113639800D01*
%TO.N,/MotorL1*%
X138227000Y-111847000D02*
X136000000Y-109620000D01*
X138227000Y-113919200D02*
X138227000Y-111847000D01*
%TO.N,Net-(J5-Pin_5)*%
D17*
X118491200Y-116560800D02*
X118491200Y-118415000D01*
%TO.N,Net-(U2-VM)*%
X130632400Y-116078200D02*
X129311600Y-116078200D01*
X129311600Y-116078200D02*
X125806400Y-112573000D01*
X125806400Y-112573000D02*
X125755600Y-112623800D01*
%TD*%
%TA.AperFunction,Conductor*%
%TO.N,GND*%
G36*
X115966240Y-100505521D02*
G01*
X115991484Y-100512934D01*
X116044230Y-100544230D01*
X117250000Y-101750000D01*
X117418123Y-101750000D01*
X117426225Y-101750265D01*
X117428749Y-101750430D01*
X117429813Y-101750500D01*
X117434108Y-101750500D01*
X131820186Y-101750500D01*
X131820187Y-101750500D01*
X131821250Y-101750430D01*
X131823775Y-101750265D01*
X131831877Y-101750000D01*
X132000000Y-101750000D01*
X133200576Y-100549423D01*
X133228826Y-100528275D01*
X133251918Y-100515667D01*
X133311343Y-100500500D01*
X146376000Y-100500500D01*
X146443039Y-100520185D01*
X146488794Y-100572989D01*
X146500000Y-100624500D01*
X146500000Y-102500000D01*
X148375500Y-102500000D01*
X148442539Y-102519685D01*
X148488294Y-102572489D01*
X148499500Y-102624000D01*
X148499500Y-124357670D01*
X148494475Y-124392614D01*
X148490070Y-124407612D01*
X148452327Y-124466355D01*
X148450958Y-124467542D01*
X148396097Y-124495018D01*
X148388539Y-124496663D01*
X148362168Y-124499500D01*
X102624000Y-124499500D01*
X102556961Y-124479815D01*
X102511206Y-124427011D01*
X102500000Y-124375500D01*
X102500000Y-122500000D01*
X100624500Y-122500000D01*
X100557461Y-122480315D01*
X100511706Y-122427511D01*
X100500500Y-122376000D01*
X100500500Y-119693389D01*
X112039500Y-119693389D01*
X112039500Y-119866611D01*
X112039716Y-119867975D01*
X112039716Y-119867979D01*
X112066597Y-120037697D01*
X112066598Y-120037701D01*
X112120127Y-120202445D01*
X112198768Y-120356788D01*
X112300586Y-120496928D01*
X112423072Y-120619414D01*
X112563212Y-120721232D01*
X112717555Y-120799873D01*
X112882299Y-120853402D01*
X113053389Y-120880500D01*
X113053390Y-120880500D01*
X113226610Y-120880500D01*
X113226611Y-120880500D01*
X113397701Y-120853402D01*
X113562445Y-120799873D01*
X113716788Y-120721232D01*
X113856928Y-120619414D01*
X113979414Y-120496928D01*
X114081232Y-120356788D01*
X114159873Y-120202445D01*
X114213402Y-120037701D01*
X114240500Y-119866611D01*
X114240500Y-119693389D01*
X114213402Y-119522299D01*
X114159873Y-119357555D01*
X114081232Y-119203212D01*
X113979414Y-119063072D01*
X113856928Y-118940586D01*
X113716788Y-118838768D01*
X113704011Y-118832258D01*
X113562449Y-118760128D01*
X113411215Y-118710988D01*
X113411203Y-118710985D01*
X113397701Y-118706598D01*
X113397699Y-118706597D01*
X113397698Y-118706597D01*
X113383312Y-118704318D01*
X113383306Y-118704317D01*
X113293188Y-118690044D01*
X113266271Y-118685781D01*
X113250407Y-118683268D01*
X113226614Y-118679500D01*
X113226611Y-118679500D01*
X113053389Y-118679500D01*
X113053388Y-118679500D01*
X113013726Y-118685781D01*
X113013725Y-118685780D01*
X112882304Y-118706596D01*
X112717549Y-118760129D01*
X112563211Y-118838767D01*
X112531866Y-118861542D01*
X112434943Y-118931961D01*
X112427562Y-118936094D01*
X112296094Y-119067562D01*
X112291963Y-119074940D01*
X112283853Y-119086103D01*
X112282053Y-119088581D01*
X112198768Y-119203211D01*
X112198765Y-119203215D01*
X112198764Y-119203218D01*
X112120129Y-119357549D01*
X112066596Y-119522305D01*
X112066595Y-119522306D01*
X112049130Y-119632587D01*
X112047133Y-119645195D01*
X112039500Y-119693389D01*
X100500500Y-119693389D01*
X100500500Y-118457546D01*
X117785437Y-118457546D01*
X117817616Y-118619315D01*
X117817617Y-118619319D01*
X117817618Y-118619322D01*
X117817621Y-118619332D01*
X117817624Y-118619340D01*
X117817629Y-118619354D01*
X117870417Y-118746797D01*
X117870422Y-118746806D01*
X117870432Y-118746823D01*
X117947087Y-118861544D01*
X117947092Y-118861550D01*
X118044648Y-118959106D01*
X118044654Y-118959111D01*
X118044658Y-118959114D01*
X118159382Y-119035771D01*
X118159395Y-119035778D01*
X118286867Y-119088578D01*
X118286872Y-119088580D01*
X118286876Y-119088580D01*
X118286877Y-119088581D01*
X118331157Y-119097389D01*
X118422202Y-119115500D01*
X118560195Y-119115500D01*
X118560196Y-119115500D01*
X118605718Y-119106444D01*
X118651241Y-119097389D01*
X118695528Y-119088580D01*
X118823011Y-119035775D01*
X118937742Y-118959114D01*
X119035314Y-118861542D01*
X119111975Y-118746811D01*
X119164780Y-118619328D01*
X119191700Y-118483993D01*
X119191700Y-118346007D01*
X119191700Y-118346004D01*
X119191700Y-118346001D01*
X119164780Y-118210673D01*
X119162455Y-118205058D01*
X119150311Y-118175741D01*
X119150311Y-118175740D01*
X119111983Y-118083208D01*
X119111980Y-118083201D01*
X119111978Y-118083195D01*
X119111971Y-118083182D01*
X119072418Y-118023987D01*
X119035314Y-117968457D01*
X119035132Y-117968248D01*
X119034813Y-117967789D01*
X119032669Y-117964930D01*
X119032772Y-117964852D01*
X119019971Y-117946423D01*
X119006866Y-117922423D01*
X118991700Y-117862999D01*
X118991700Y-117120147D01*
X118996723Y-117085213D01*
X119004134Y-117059973D01*
X119032202Y-117012670D01*
X119031449Y-117012052D01*
X119035312Y-117007344D01*
X119035314Y-117007342D01*
X119111975Y-116892611D01*
X119164780Y-116765128D01*
X119177938Y-116698978D01*
X119180796Y-116684612D01*
X119180796Y-116684610D01*
X119191700Y-116629796D01*
X119191700Y-116491801D01*
X119164541Y-116355272D01*
X119162460Y-116350871D01*
X119158081Y-116340299D01*
X119111978Y-116228995D01*
X119111971Y-116228982D01*
X119035314Y-116114258D01*
X119035311Y-116114254D01*
X119035306Y-116114248D01*
X118937750Y-116016692D01*
X118937744Y-116016687D01*
X118937743Y-116016686D01*
X118823023Y-115940032D01*
X118823022Y-115940031D01*
X118823017Y-115940028D01*
X118823004Y-115940021D01*
X118822997Y-115940017D01*
X118695554Y-115887229D01*
X118695540Y-115887224D01*
X118695532Y-115887221D01*
X118695522Y-115887218D01*
X118695519Y-115887217D01*
X118695515Y-115887216D01*
X118560198Y-115860300D01*
X118560195Y-115860300D01*
X118560193Y-115860300D01*
X118422207Y-115860300D01*
X118422205Y-115860300D01*
X118422200Y-115860300D01*
X118286883Y-115887216D01*
X118286877Y-115887218D01*
X118286867Y-115887221D01*
X118286862Y-115887222D01*
X118286844Y-115887229D01*
X118159401Y-115940017D01*
X118159392Y-115940022D01*
X118159375Y-115940032D01*
X118044655Y-116016686D01*
X118044654Y-116016687D01*
X118044648Y-116016692D01*
X117947092Y-116114248D01*
X117947087Y-116114254D01*
X117947086Y-116114255D01*
X117870432Y-116228975D01*
X117870422Y-116228992D01*
X117870417Y-116229001D01*
X117817629Y-116356444D01*
X117817616Y-116356483D01*
X117790700Y-116491800D01*
X117790700Y-116491804D01*
X117790700Y-116491807D01*
X117790700Y-116629793D01*
X117790700Y-116629795D01*
X117790699Y-116629795D01*
X117817618Y-116765122D01*
X117817621Y-116765132D01*
X117818129Y-116766359D01*
X117818130Y-116766363D01*
X117870417Y-116892597D01*
X117870422Y-116892606D01*
X117870432Y-116892623D01*
X117947087Y-117007344D01*
X117949591Y-117010396D01*
X117962561Y-117029620D01*
X117975528Y-117053365D01*
X117990700Y-117112797D01*
X117990700Y-117855651D01*
X117985676Y-117890591D01*
X117978264Y-117915830D01*
X117949345Y-117964575D01*
X117949977Y-117965123D01*
X117947085Y-117968457D01*
X117870432Y-118083175D01*
X117870422Y-118083192D01*
X117870417Y-118083201D01*
X117817629Y-118210644D01*
X117817616Y-118210683D01*
X117790700Y-118346000D01*
X117790700Y-118439626D01*
X117785437Y-118457546D01*
X100500500Y-118457546D01*
X100500500Y-117771746D01*
X109555837Y-117771746D01*
X109588016Y-117933515D01*
X109588017Y-117933519D01*
X109588018Y-117933522D01*
X109588021Y-117933532D01*
X109588024Y-117933540D01*
X109588029Y-117933554D01*
X109640817Y-118060997D01*
X109640821Y-118061004D01*
X109640828Y-118061017D01*
X109640831Y-118061022D01*
X109640832Y-118061023D01*
X109717484Y-118175740D01*
X109717487Y-118175744D01*
X109717492Y-118175750D01*
X109815048Y-118273306D01*
X109815054Y-118273311D01*
X109815058Y-118273314D01*
X109929782Y-118349971D01*
X109929795Y-118349978D01*
X110057267Y-118402778D01*
X110057272Y-118402780D01*
X110057276Y-118402780D01*
X110057277Y-118402781D01*
X110101557Y-118411589D01*
X110192602Y-118429700D01*
X110330595Y-118429700D01*
X110330596Y-118429700D01*
X110376118Y-118420644D01*
X110421641Y-118411589D01*
X110465928Y-118402780D01*
X110593411Y-118349975D01*
X110708142Y-118273314D01*
X110805714Y-118175742D01*
X110805715Y-118175741D01*
X110805716Y-118175740D01*
X110882371Y-118061017D01*
X110882371Y-118061016D01*
X110882375Y-118061011D01*
X110935180Y-117933528D01*
X110947124Y-117873481D01*
X110954612Y-117835838D01*
X110962100Y-117798196D01*
X110962100Y-117660201D01*
X110935240Y-117525175D01*
X110935239Y-117525170D01*
X110934940Y-117523669D01*
X110932860Y-117519272D01*
X110882378Y-117397395D01*
X110882371Y-117397382D01*
X110828614Y-117316930D01*
X110805714Y-117282657D01*
X110805532Y-117282448D01*
X110805213Y-117281989D01*
X110803069Y-117279130D01*
X110803172Y-117279052D01*
X110790371Y-117260623D01*
X110777266Y-117236623D01*
X110762100Y-117177199D01*
X110762100Y-117153383D01*
X112039500Y-117153383D01*
X112039500Y-117326614D01*
X112062951Y-117474678D01*
X112066596Y-117497693D01*
X112066597Y-117497697D01*
X112066598Y-117497701D01*
X112120127Y-117662445D01*
X112198768Y-117816788D01*
X112300586Y-117956928D01*
X112423072Y-118079414D01*
X112563212Y-118181232D01*
X112717555Y-118259873D01*
X112882299Y-118313402D01*
X113053389Y-118340500D01*
X113053390Y-118340500D01*
X113226610Y-118340500D01*
X113226611Y-118340500D01*
X113397701Y-118313402D01*
X113562445Y-118259873D01*
X113716788Y-118181232D01*
X113856928Y-118079414D01*
X113979414Y-117956928D01*
X114081232Y-117816788D01*
X114159873Y-117662445D01*
X114213402Y-117497701D01*
X114240500Y-117326611D01*
X114240500Y-117153389D01*
X114213402Y-116982299D01*
X114159873Y-116817555D01*
X114081232Y-116663212D01*
X113979414Y-116523072D01*
X113856928Y-116400586D01*
X113716788Y-116298768D01*
X113684915Y-116282528D01*
X113562449Y-116220128D01*
X113411215Y-116170988D01*
X113411203Y-116170985D01*
X113397701Y-116166598D01*
X113397699Y-116166597D01*
X113397698Y-116166597D01*
X113383312Y-116164318D01*
X113383306Y-116164317D01*
X113293188Y-116150044D01*
X113266271Y-116145781D01*
X113250407Y-116143268D01*
X113226614Y-116139500D01*
X113226611Y-116139500D01*
X113053389Y-116139500D01*
X113053388Y-116139500D01*
X113013726Y-116145781D01*
X113013725Y-116145780D01*
X112882304Y-116166596D01*
X112717549Y-116220129D01*
X112563210Y-116298768D01*
X112526310Y-116325578D01*
X112503297Y-116342299D01*
X112443817Y-116385514D01*
X112434942Y-116391962D01*
X112427562Y-116396094D01*
X112296094Y-116527562D01*
X112291964Y-116534938D01*
X112275607Y-116557451D01*
X112260171Y-116578699D01*
X112260170Y-116578700D01*
X112198773Y-116663203D01*
X112198769Y-116663209D01*
X112198768Y-116663211D01*
X112198766Y-116663213D01*
X112198764Y-116663218D01*
X112120129Y-116817549D01*
X112066596Y-116982305D01*
X112039500Y-117153383D01*
X110762100Y-117153383D01*
X110762100Y-114613389D01*
X112039500Y-114613389D01*
X112039500Y-114786611D01*
X112039623Y-114787387D01*
X112039623Y-114787389D01*
X112057365Y-114899411D01*
X112066598Y-114957701D01*
X112120127Y-115122445D01*
X112198768Y-115276788D01*
X112300586Y-115416928D01*
X112423072Y-115539414D01*
X112563212Y-115641232D01*
X112717555Y-115719873D01*
X112882299Y-115773402D01*
X113053389Y-115800500D01*
X113053390Y-115800500D01*
X113226610Y-115800500D01*
X113226611Y-115800500D01*
X113397701Y-115773402D01*
X113562445Y-115719873D01*
X113716788Y-115641232D01*
X113856928Y-115539414D01*
X113979414Y-115416928D01*
X114081232Y-115276788D01*
X114159873Y-115122445D01*
X114213402Y-114957701D01*
X114240500Y-114786611D01*
X114240500Y-114613389D01*
X114213402Y-114442299D01*
X114159873Y-114277555D01*
X114081232Y-114123212D01*
X113979414Y-113983072D01*
X113856928Y-113860586D01*
X113792907Y-113814072D01*
X113716792Y-113758770D01*
X113716784Y-113758766D01*
X113630646Y-113714877D01*
X113630644Y-113714876D01*
X113624970Y-113711985D01*
X113579944Y-113689043D01*
X113574604Y-113685163D01*
X113550287Y-113675090D01*
X113543767Y-113674058D01*
X113519534Y-113666184D01*
X113411215Y-113630988D01*
X113411203Y-113630985D01*
X113397701Y-113626598D01*
X113397699Y-113626597D01*
X113397698Y-113626597D01*
X113383312Y-113624318D01*
X113383306Y-113624317D01*
X113293188Y-113610044D01*
X113266271Y-113605781D01*
X113250407Y-113603268D01*
X113226614Y-113599500D01*
X113226611Y-113599500D01*
X113053389Y-113599500D01*
X113053388Y-113599500D01*
X113013726Y-113605781D01*
X113013725Y-113605780D01*
X112882304Y-113626596D01*
X112717549Y-113680129D01*
X112563210Y-113758768D01*
X112544553Y-113772324D01*
X112503297Y-113802299D01*
X112434942Y-113851962D01*
X112427562Y-113856094D01*
X112296093Y-113987563D01*
X112291964Y-113994937D01*
X112278841Y-114013001D01*
X112278839Y-114013005D01*
X112278838Y-114013006D01*
X112198768Y-114123211D01*
X112198765Y-114123215D01*
X112198764Y-114123218D01*
X112120129Y-114277549D01*
X112066596Y-114442305D01*
X112066595Y-114442306D01*
X112044222Y-114583570D01*
X112044221Y-114583574D01*
X112042916Y-114591820D01*
X112039500Y-114613389D01*
X110762100Y-114613389D01*
X110762100Y-112751347D01*
X110767123Y-112716413D01*
X110774534Y-112691173D01*
X110802602Y-112643870D01*
X110801849Y-112643252D01*
X110802880Y-112641995D01*
X125105899Y-112641995D01*
X125132818Y-112777322D01*
X125132821Y-112777332D01*
X125133329Y-112778559D01*
X125133330Y-112778563D01*
X125185617Y-112904797D01*
X125185622Y-112904806D01*
X125185632Y-112904823D01*
X125262286Y-113019543D01*
X125262287Y-113019544D01*
X125262292Y-113019550D01*
X125359848Y-113117106D01*
X125359854Y-113117111D01*
X125359858Y-113117114D01*
X125474582Y-113193771D01*
X125474595Y-113193778D01*
X125570257Y-113233402D01*
X125596460Y-113244255D01*
X125600870Y-113246341D01*
X125602077Y-113246581D01*
X125737404Y-113273500D01*
X125737407Y-113273500D01*
X125737416Y-113273500D01*
X125741320Y-113273885D01*
X125764107Y-113278310D01*
X125790072Y-113285935D01*
X125842816Y-113317230D01*
X128911100Y-116385514D01*
X129004286Y-116478700D01*
X129082890Y-116524082D01*
X129082893Y-116524084D01*
X129084033Y-116524742D01*
X129089088Y-116527660D01*
X129104281Y-116536432D01*
X129104283Y-116536434D01*
X129111542Y-116540625D01*
X129111546Y-116540627D01*
X129118413Y-116544592D01*
X129145313Y-116551799D01*
X129245707Y-116578700D01*
X129245708Y-116578700D01*
X130073051Y-116578700D01*
X130107985Y-116583723D01*
X130133225Y-116591134D01*
X130181982Y-116620063D01*
X130182532Y-116619430D01*
X130185854Y-116622311D01*
X130185858Y-116622314D01*
X130300582Y-116698971D01*
X130300595Y-116698978D01*
X130428067Y-116751778D01*
X130428072Y-116751780D01*
X130428076Y-116751780D01*
X130428077Y-116751781D01*
X130472357Y-116760589D01*
X130563402Y-116778700D01*
X130701395Y-116778700D01*
X130701396Y-116778700D01*
X130763414Y-116766363D01*
X130792441Y-116760589D01*
X130836728Y-116751780D01*
X130964211Y-116698975D01*
X131078942Y-116622314D01*
X131176514Y-116524742D01*
X131253175Y-116410011D01*
X131305980Y-116282528D01*
X131326861Y-116177552D01*
X131332900Y-116147195D01*
X131332900Y-116009204D01*
X131332900Y-116009201D01*
X131305741Y-115872670D01*
X131303654Y-115868257D01*
X131279321Y-115809512D01*
X131279321Y-115809511D01*
X131253178Y-115746395D01*
X131253171Y-115746382D01*
X131176514Y-115631658D01*
X131176511Y-115631654D01*
X131176506Y-115631648D01*
X131078950Y-115534092D01*
X131078944Y-115534087D01*
X131078943Y-115534086D01*
X130964223Y-115457432D01*
X130964222Y-115457431D01*
X130964217Y-115457428D01*
X130964204Y-115457421D01*
X130964197Y-115457417D01*
X130836754Y-115404629D01*
X130836740Y-115404624D01*
X130836732Y-115404621D01*
X130836722Y-115404618D01*
X130836719Y-115404617D01*
X130836715Y-115404616D01*
X130701398Y-115377700D01*
X130701395Y-115377700D01*
X130701393Y-115377700D01*
X130563407Y-115377700D01*
X130563405Y-115377700D01*
X130563400Y-115377700D01*
X130428083Y-115404616D01*
X130428077Y-115404618D01*
X130428067Y-115404621D01*
X130428062Y-115404622D01*
X130428044Y-115404629D01*
X130300601Y-115457417D01*
X130300592Y-115457422D01*
X130300575Y-115457432D01*
X130185855Y-115534086D01*
X130185846Y-115534092D01*
X130185616Y-115534293D01*
X130185132Y-115534628D01*
X130182345Y-115536720D01*
X130182268Y-115536617D01*
X130163825Y-115549427D01*
X130139831Y-115562530D01*
X130080400Y-115577700D01*
X129588106Y-115577700D01*
X129553170Y-115572677D01*
X129527928Y-115565265D01*
X129475183Y-115533969D01*
X127464402Y-113523188D01*
X127443253Y-113494938D01*
X127437831Y-113485008D01*
X127422978Y-113416738D01*
X127447392Y-113351273D01*
X127503322Y-113309401D01*
X127507201Y-113307954D01*
X127510537Y-113306711D01*
X127553851Y-113298900D01*
X127625207Y-113298900D01*
X127659335Y-113303688D01*
X127668564Y-113306331D01*
X127670165Y-113306634D01*
X127670556Y-113306803D01*
X127671324Y-113306986D01*
X127671291Y-113307121D01*
X127720095Y-113328240D01*
X127720836Y-113328779D01*
X127720933Y-113328850D01*
X127735602Y-113341395D01*
X128202527Y-113808320D01*
X128213221Y-113820514D01*
X128223036Y-113833305D01*
X128232047Y-113846790D01*
X128237419Y-113856094D01*
X128254520Y-113885713D01*
X128329087Y-113960280D01*
X128420413Y-114013007D01*
X128522273Y-114040300D01*
X130613115Y-114040300D01*
X130648047Y-114045321D01*
X130673291Y-114052734D01*
X130726037Y-114084030D01*
X131225577Y-114583570D01*
X131725059Y-115083051D01*
X131746210Y-115111305D01*
X131757809Y-115132547D01*
X131772767Y-115184758D01*
X131773090Y-115190299D01*
X131773300Y-115197515D01*
X131773300Y-115290026D01*
X131768037Y-115307946D01*
X131800216Y-115469715D01*
X131800217Y-115469719D01*
X131800218Y-115469722D01*
X131800221Y-115469732D01*
X131800224Y-115469740D01*
X131800229Y-115469754D01*
X131853017Y-115597197D01*
X131853022Y-115597206D01*
X131853032Y-115597223D01*
X131929683Y-115711938D01*
X131929687Y-115711944D01*
X131929692Y-115711950D01*
X132027248Y-115809506D01*
X132027254Y-115809511D01*
X132027258Y-115809514D01*
X132141982Y-115886171D01*
X132141995Y-115886178D01*
X132269467Y-115938978D01*
X132269472Y-115938980D01*
X132269476Y-115938980D01*
X132269477Y-115938981D01*
X132325272Y-115950079D01*
X132404802Y-115965900D01*
X132542795Y-115965900D01*
X132542796Y-115965900D01*
X132564474Y-115961587D01*
X132672874Y-115940025D01*
X132678128Y-115938980D01*
X132802260Y-115887563D01*
X132805604Y-115886178D01*
X132805604Y-115886177D01*
X132805611Y-115886175D01*
X132920342Y-115809514D01*
X133017914Y-115711942D01*
X133019072Y-115710208D01*
X133020099Y-115709278D01*
X133021783Y-115707227D01*
X133022089Y-115707478D01*
X133063975Y-115669586D01*
X133073882Y-115664318D01*
X133073902Y-115664356D01*
X133081332Y-115658142D01*
X133150653Y-115649404D01*
X133213694Y-115679531D01*
X133236339Y-115706603D01*
X133237567Y-115708589D01*
X133256100Y-115773802D01*
X133256100Y-117764908D01*
X133256100Y-117896692D01*
X133265970Y-117933528D01*
X133273374Y-117961162D01*
X133290209Y-118023989D01*
X133290209Y-118023990D01*
X133311579Y-118061004D01*
X133311580Y-118061004D01*
X133356100Y-118138114D01*
X133356102Y-118138116D01*
X134850573Y-119632587D01*
X134871723Y-119660839D01*
X134884331Y-119683928D01*
X134899500Y-119743357D01*
X134899500Y-120654678D01*
X134899500Y-120654680D01*
X134899499Y-120654680D01*
X134914028Y-120727717D01*
X134914032Y-120727735D01*
X134914033Y-120727739D01*
X134917480Y-120733826D01*
X134920816Y-120737891D01*
X134969399Y-120810601D01*
X135052256Y-120865964D01*
X135052258Y-120865965D01*
X135052259Y-120865965D01*
X135052260Y-120865966D01*
X135052264Y-120865967D01*
X135052279Y-120865970D01*
X135052288Y-120865972D01*
X135097021Y-120874869D01*
X135117681Y-120878979D01*
X135120415Y-120879703D01*
X135125323Y-120880500D01*
X136874676Y-120880500D01*
X136878796Y-120880500D01*
X136886648Y-120878117D01*
X136947740Y-120865966D01*
X137030601Y-120810601D01*
X137085966Y-120727740D01*
X137100500Y-120654674D01*
X137100500Y-118905326D01*
X137100500Y-118905323D01*
X137100500Y-118905139D01*
X137100064Y-118903134D01*
X137085972Y-118832289D01*
X137085971Y-118832287D01*
X137085967Y-118832264D01*
X137085966Y-118832260D01*
X137085965Y-118832258D01*
X137085964Y-118832256D01*
X137030601Y-118749399D01*
X136957891Y-118700816D01*
X136953826Y-118697480D01*
X136947739Y-118694033D01*
X136947735Y-118694032D01*
X136947709Y-118694026D01*
X136874680Y-118679500D01*
X136874677Y-118679500D01*
X136874674Y-118679500D01*
X135382306Y-118679500D01*
X135347370Y-118674477D01*
X135322128Y-118667065D01*
X135269383Y-118635769D01*
X134306026Y-117672412D01*
X134284874Y-117644156D01*
X134272267Y-117621067D01*
X134257100Y-117561642D01*
X134257100Y-117472680D01*
X140453499Y-117472680D01*
X140468028Y-117545717D01*
X140468033Y-117545740D01*
X140469369Y-117547739D01*
X140523398Y-117628600D01*
X140523403Y-117628604D01*
X140576627Y-117664167D01*
X140576630Y-117664168D01*
X140590450Y-117673402D01*
X140606260Y-117683966D01*
X140606264Y-117683967D01*
X140679321Y-117698499D01*
X140679324Y-117698500D01*
X140679326Y-117698500D01*
X140679345Y-117698500D01*
X142428676Y-117698500D01*
X142432796Y-117698500D01*
X142440648Y-117696117D01*
X142501740Y-117683966D01*
X142584601Y-117628601D01*
X142639966Y-117545740D01*
X142654500Y-117472674D01*
X142654500Y-116684612D01*
X142993499Y-116684612D01*
X142995774Y-116698972D01*
X142995774Y-116698973D01*
X143004138Y-116751779D01*
X143004138Y-116751780D01*
X143020597Y-116855697D01*
X143020597Y-116855698D01*
X143020598Y-116855701D01*
X143069869Y-117007341D01*
X143074128Y-117020447D01*
X143115843Y-117102318D01*
X143152766Y-117174786D01*
X143181286Y-117214039D01*
X143254586Y-117314928D01*
X143377072Y-117437414D01*
X143517212Y-117539232D01*
X143671555Y-117617873D01*
X143836299Y-117671402D01*
X144007389Y-117698500D01*
X144007390Y-117698500D01*
X144180610Y-117698500D01*
X144180611Y-117698500D01*
X144351701Y-117671402D01*
X144516445Y-117617873D01*
X144670788Y-117539232D01*
X144810928Y-117437414D01*
X144933414Y-117314928D01*
X145035232Y-117174788D01*
X145113873Y-117020445D01*
X145167402Y-116855701D01*
X145194500Y-116684612D01*
X145533499Y-116684612D01*
X145535774Y-116698972D01*
X145535774Y-116698973D01*
X145544138Y-116751779D01*
X145544138Y-116751780D01*
X145560597Y-116855697D01*
X145560597Y-116855698D01*
X145560598Y-116855701D01*
X145609869Y-117007341D01*
X145614128Y-117020447D01*
X145655843Y-117102318D01*
X145692766Y-117174786D01*
X145721286Y-117214039D01*
X145794586Y-117314928D01*
X145917072Y-117437414D01*
X146057212Y-117539232D01*
X146211555Y-117617873D01*
X146376299Y-117671402D01*
X146547389Y-117698500D01*
X146547390Y-117698500D01*
X146720610Y-117698500D01*
X146720611Y-117698500D01*
X146891701Y-117671402D01*
X147056445Y-117617873D01*
X147210788Y-117539232D01*
X147350928Y-117437414D01*
X147473414Y-117314928D01*
X147575232Y-117174788D01*
X147653873Y-117020445D01*
X147707402Y-116855701D01*
X147734500Y-116684611D01*
X147734500Y-116511389D01*
X147707402Y-116340299D01*
X147653873Y-116175555D01*
X147575232Y-116021212D01*
X147473414Y-115881072D01*
X147350928Y-115758586D01*
X147210788Y-115656768D01*
X147056449Y-115578128D01*
X146905215Y-115528988D01*
X146905203Y-115528985D01*
X146891701Y-115524598D01*
X146891699Y-115524597D01*
X146891698Y-115524597D01*
X146877312Y-115522318D01*
X146877306Y-115522317D01*
X146772892Y-115505780D01*
X146760271Y-115503781D01*
X146744407Y-115501268D01*
X146720614Y-115497500D01*
X146720611Y-115497500D01*
X146547389Y-115497500D01*
X146547388Y-115497500D01*
X146507726Y-115503781D01*
X146507725Y-115503780D01*
X146376304Y-115524596D01*
X146211549Y-115578129D01*
X146057210Y-115656768D01*
X146025881Y-115679531D01*
X145981279Y-115711937D01*
X145981277Y-115711938D01*
X145928938Y-115749963D01*
X145921563Y-115754093D01*
X145790094Y-115885562D01*
X145785964Y-115892938D01*
X145768640Y-115916783D01*
X145752515Y-115938978D01*
X145732955Y-115965900D01*
X145692768Y-116021210D01*
X145614129Y-116175547D01*
X145560596Y-116340301D01*
X145538678Y-116478696D01*
X145538678Y-116478697D01*
X145533500Y-116511389D01*
X145533500Y-116684611D01*
X145533500Y-116684612D01*
X145533499Y-116684612D01*
X145194500Y-116684612D01*
X145194500Y-116684611D01*
X145194500Y-116511389D01*
X145167402Y-116340299D01*
X145113873Y-116175555D01*
X145035232Y-116021212D01*
X144933414Y-115881072D01*
X144810928Y-115758586D01*
X144670788Y-115656768D01*
X144516449Y-115578128D01*
X144365215Y-115528988D01*
X144365203Y-115528985D01*
X144351701Y-115524598D01*
X144351699Y-115524597D01*
X144351698Y-115524597D01*
X144337312Y-115522318D01*
X144337306Y-115522317D01*
X144232892Y-115505780D01*
X144220271Y-115503781D01*
X144204407Y-115501268D01*
X144180614Y-115497500D01*
X144180611Y-115497500D01*
X144007389Y-115497500D01*
X144007388Y-115497500D01*
X143967726Y-115503781D01*
X143967725Y-115503780D01*
X143836304Y-115524596D01*
X143671549Y-115578129D01*
X143517210Y-115656768D01*
X143485881Y-115679531D01*
X143441279Y-115711937D01*
X143441277Y-115711938D01*
X143388938Y-115749963D01*
X143381563Y-115754093D01*
X143250094Y-115885562D01*
X143245964Y-115892938D01*
X143228640Y-115916783D01*
X143212515Y-115938978D01*
X143192955Y-115965900D01*
X143152768Y-116021210D01*
X143074129Y-116175547D01*
X143020596Y-116340301D01*
X142998678Y-116478696D01*
X142998678Y-116478697D01*
X142993500Y-116511389D01*
X142993500Y-116684611D01*
X142993500Y-116684612D01*
X142993499Y-116684612D01*
X142654500Y-116684612D01*
X142654500Y-115723326D01*
X142654500Y-115723323D01*
X142654499Y-115723321D01*
X142639967Y-115650264D01*
X142639966Y-115650260D01*
X142627534Y-115631654D01*
X142584601Y-115567399D01*
X142581408Y-115565265D01*
X142523536Y-115526597D01*
X142501740Y-115512033D01*
X142501737Y-115512032D01*
X142501735Y-115512032D01*
X142501725Y-115512030D01*
X142501709Y-115512026D01*
X142428680Y-115497500D01*
X142428677Y-115497500D01*
X142428674Y-115497500D01*
X140679326Y-115497500D01*
X140679323Y-115497500D01*
X140679319Y-115497500D01*
X140606285Y-115512027D01*
X140606262Y-115512032D01*
X140606258Y-115512033D01*
X140523399Y-115567399D01*
X140468033Y-115650258D01*
X140468032Y-115650266D01*
X140468028Y-115650281D01*
X140453500Y-115723318D01*
X140453500Y-115723321D01*
X140453500Y-117472678D01*
X140453500Y-117472680D01*
X140453499Y-117472680D01*
X134257100Y-117472680D01*
X134257100Y-114613389D01*
X134899500Y-114613389D01*
X134899500Y-114786611D01*
X134899623Y-114787387D01*
X134899623Y-114787389D01*
X134917365Y-114899411D01*
X134926598Y-114957701D01*
X134980127Y-115122445D01*
X135058768Y-115276788D01*
X135160586Y-115416928D01*
X135283072Y-115539414D01*
X135423212Y-115641232D01*
X135577555Y-115719873D01*
X135742299Y-115773402D01*
X135913389Y-115800500D01*
X135913390Y-115800500D01*
X136086610Y-115800500D01*
X136086611Y-115800500D01*
X136257701Y-115773402D01*
X136422445Y-115719873D01*
X136576788Y-115641232D01*
X136716928Y-115539414D01*
X136839414Y-115416928D01*
X136941232Y-115276788D01*
X137019873Y-115122445D01*
X137073402Y-114957701D01*
X137100500Y-114786611D01*
X137100500Y-114613389D01*
X137073402Y-114442299D01*
X137019873Y-114277555D01*
X136941232Y-114123212D01*
X136839414Y-113983072D01*
X136716928Y-113860586D01*
X136652907Y-113814072D01*
X136576792Y-113758770D01*
X136576784Y-113758766D01*
X136490646Y-113714877D01*
X136490644Y-113714876D01*
X136484970Y-113711985D01*
X136439944Y-113689043D01*
X136434604Y-113685163D01*
X136410287Y-113675090D01*
X136403767Y-113674058D01*
X136379534Y-113666184D01*
X136271215Y-113630988D01*
X136271203Y-113630985D01*
X136257701Y-113626598D01*
X136257699Y-113626597D01*
X136257698Y-113626597D01*
X136243312Y-113624318D01*
X136243306Y-113624317D01*
X136153188Y-113610044D01*
X136126271Y-113605781D01*
X136110407Y-113603268D01*
X136086614Y-113599500D01*
X136086611Y-113599500D01*
X135913389Y-113599500D01*
X135913388Y-113599500D01*
X135873726Y-113605781D01*
X135873725Y-113605780D01*
X135742304Y-113626596D01*
X135577549Y-113680129D01*
X135423210Y-113758768D01*
X135404553Y-113772324D01*
X135363297Y-113802299D01*
X135294942Y-113851962D01*
X135287562Y-113856094D01*
X135156093Y-113987563D01*
X135151964Y-113994937D01*
X135138841Y-114013001D01*
X135138839Y-114013005D01*
X135138838Y-114013006D01*
X135058768Y-114123211D01*
X135058765Y-114123215D01*
X135058764Y-114123218D01*
X134980129Y-114277549D01*
X134926596Y-114442305D01*
X134926595Y-114442306D01*
X134904222Y-114583570D01*
X134904221Y-114583574D01*
X134902916Y-114591820D01*
X134899500Y-114613389D01*
X134257100Y-114613389D01*
X134257100Y-113827909D01*
X134257099Y-113827905D01*
X134253392Y-113814072D01*
X134242206Y-113772323D01*
X134243005Y-113705286D01*
X134245150Y-113697985D01*
X134255500Y-113626000D01*
X134255500Y-112073383D01*
X134899500Y-112073383D01*
X134899500Y-112246614D01*
X134922855Y-112394072D01*
X134926596Y-112417693D01*
X134926597Y-112417697D01*
X134926598Y-112417701D01*
X134980127Y-112582445D01*
X135058768Y-112736788D01*
X135160586Y-112876928D01*
X135283072Y-112999414D01*
X135423212Y-113101232D01*
X135577555Y-113179873D01*
X135742299Y-113233402D01*
X135913389Y-113260500D01*
X135913390Y-113260500D01*
X136086610Y-113260500D01*
X136086611Y-113260500D01*
X136257701Y-113233402D01*
X136422445Y-113179873D01*
X136576788Y-113101232D01*
X136716928Y-112999414D01*
X136839414Y-112876928D01*
X136941232Y-112736788D01*
X137019873Y-112582445D01*
X137073402Y-112417701D01*
X137100500Y-112246611D01*
X137100500Y-112073389D01*
X137073402Y-111902299D01*
X137019873Y-111737555D01*
X136941232Y-111583212D01*
X136839414Y-111443072D01*
X136716928Y-111320586D01*
X136576788Y-111218768D01*
X136422449Y-111140128D01*
X136271227Y-111090992D01*
X136271216Y-111090989D01*
X136257701Y-111086598D01*
X136257699Y-111086597D01*
X136257698Y-111086597D01*
X136243296Y-111084316D01*
X136243292Y-111084315D01*
X136113034Y-111063685D01*
X136113033Y-111063684D01*
X136086611Y-111059500D01*
X135913389Y-111059500D01*
X135886965Y-111063685D01*
X135742302Y-111086596D01*
X135742301Y-111086596D01*
X135577547Y-111140129D01*
X135423210Y-111218768D01*
X135349994Y-111271964D01*
X135349993Y-111271964D01*
X135294942Y-111311961D01*
X135287563Y-111316093D01*
X135156093Y-111447563D01*
X135151960Y-111454944D01*
X135125400Y-111491498D01*
X135125401Y-111491499D01*
X135067474Y-111571228D01*
X135058768Y-111583211D01*
X135058766Y-111583213D01*
X135058764Y-111583218D01*
X134980129Y-111737549D01*
X134926596Y-111902305D01*
X134899500Y-112073383D01*
X134255500Y-112073383D01*
X134255500Y-109533389D01*
X134899500Y-109533389D01*
X134899500Y-109706611D01*
X134902358Y-109724655D01*
X134902358Y-109724657D01*
X134922821Y-109853858D01*
X134926596Y-109877696D01*
X134935821Y-109906086D01*
X134980127Y-110042445D01*
X134980128Y-110042447D01*
X134980129Y-110042449D01*
X135053297Y-110186050D01*
X135058768Y-110196788D01*
X135160586Y-110336928D01*
X135283072Y-110459414D01*
X135423212Y-110561232D01*
X135577555Y-110639873D01*
X135742299Y-110693402D01*
X135913389Y-110720500D01*
X135913390Y-110720500D01*
X136086610Y-110720500D01*
X136086611Y-110720500D01*
X136257701Y-110693402D01*
X136356648Y-110661250D01*
X136391426Y-110655233D01*
X136408485Y-110654746D01*
X136473764Y-110671158D01*
X136485314Y-110677790D01*
X136511249Y-110697642D01*
X137777573Y-111963965D01*
X137798723Y-111992217D01*
X137811331Y-112015306D01*
X137826500Y-112074735D01*
X137826500Y-113260822D01*
X137821477Y-113295758D01*
X137814659Y-113318977D01*
X137788296Y-113366495D01*
X137784595Y-113370652D01*
X137779662Y-113375879D01*
X137682892Y-113472648D01*
X137682887Y-113472654D01*
X137682886Y-113472655D01*
X137606232Y-113587375D01*
X137606222Y-113587392D01*
X137606217Y-113587401D01*
X137553429Y-113714844D01*
X137553418Y-113714877D01*
X137526500Y-113850200D01*
X137526500Y-113943826D01*
X137521237Y-113961746D01*
X137553416Y-114123515D01*
X137553417Y-114123519D01*
X137553418Y-114123522D01*
X137553421Y-114123532D01*
X137553424Y-114123540D01*
X137553429Y-114123554D01*
X137606217Y-114250997D01*
X137606222Y-114251006D01*
X137606232Y-114251023D01*
X137682886Y-114365743D01*
X137682887Y-114365744D01*
X137682892Y-114365750D01*
X137780448Y-114463306D01*
X137780454Y-114463311D01*
X137780458Y-114463314D01*
X137895182Y-114539971D01*
X137895195Y-114539978D01*
X138020354Y-114591820D01*
X138022672Y-114592780D01*
X138022676Y-114592780D01*
X138022677Y-114592781D01*
X138113096Y-114610767D01*
X138158002Y-114619700D01*
X138295995Y-114619700D01*
X138295996Y-114619700D01*
X138341518Y-114610644D01*
X138387041Y-114601589D01*
X138431328Y-114592780D01*
X138558811Y-114539975D01*
X138673542Y-114463314D01*
X138771114Y-114365742D01*
X138847775Y-114251011D01*
X138900580Y-114123528D01*
X138917135Y-114040300D01*
X138927500Y-113988195D01*
X138927500Y-113971389D01*
X140453500Y-113971389D01*
X140453500Y-114144611D01*
X140453825Y-114146664D01*
X140453825Y-114146668D01*
X140480597Y-114315697D01*
X140480598Y-114315701D01*
X140534127Y-114480445D01*
X140612768Y-114634788D01*
X140714586Y-114774928D01*
X140837072Y-114897414D01*
X140977212Y-114999232D01*
X141131555Y-115077873D01*
X141296299Y-115131402D01*
X141467389Y-115158500D01*
X141467390Y-115158500D01*
X141640610Y-115158500D01*
X141640611Y-115158500D01*
X141811701Y-115131402D01*
X141976445Y-115077873D01*
X142130788Y-114999232D01*
X142270928Y-114897414D01*
X142393414Y-114774928D01*
X142495232Y-114634788D01*
X142573873Y-114480445D01*
X142627402Y-114315701D01*
X142654500Y-114144611D01*
X142654500Y-113971389D01*
X142654499Y-113971384D01*
X142993500Y-113971384D01*
X142993500Y-113971389D01*
X142993500Y-114144611D01*
X142993826Y-114146668D01*
X143020594Y-114315679D01*
X143020598Y-114315701D01*
X143074127Y-114480445D01*
X143152768Y-114634788D01*
X143254586Y-114774928D01*
X143377072Y-114897414D01*
X143517212Y-114999232D01*
X143671555Y-115077873D01*
X143836299Y-115131402D01*
X144007389Y-115158500D01*
X144007390Y-115158500D01*
X144180610Y-115158500D01*
X144180611Y-115158500D01*
X144351701Y-115131402D01*
X144516445Y-115077873D01*
X144670788Y-114999232D01*
X144810928Y-114897414D01*
X144933414Y-114774928D01*
X145035232Y-114634788D01*
X145113873Y-114480445D01*
X145167402Y-114315701D01*
X145194500Y-114144611D01*
X145194500Y-113971389D01*
X145167402Y-113800299D01*
X145113873Y-113635555D01*
X145035232Y-113481212D01*
X144933414Y-113341072D01*
X144810928Y-113218586D01*
X144670788Y-113116768D01*
X144640295Y-113101231D01*
X144516449Y-113038128D01*
X144365215Y-112988988D01*
X144365203Y-112988985D01*
X144351701Y-112984598D01*
X144351699Y-112984597D01*
X144351698Y-112984597D01*
X144337312Y-112982318D01*
X144337306Y-112982317D01*
X144232892Y-112965780D01*
X144220271Y-112963781D01*
X144204407Y-112961268D01*
X144180614Y-112957500D01*
X144180611Y-112957500D01*
X144007389Y-112957500D01*
X144007388Y-112957500D01*
X143967726Y-112963781D01*
X143967725Y-112963780D01*
X143836304Y-112984596D01*
X143671549Y-113038129D01*
X143517210Y-113116768D01*
X143437256Y-113174859D01*
X143437255Y-113174859D01*
X143388941Y-113209961D01*
X143381564Y-113214092D01*
X143250092Y-113345564D01*
X143245961Y-113352941D01*
X143210859Y-113401255D01*
X143210859Y-113401256D01*
X143152768Y-113481210D01*
X143074129Y-113635549D01*
X143020596Y-113800304D01*
X143007069Y-113885715D01*
X142993500Y-113971384D01*
X142654499Y-113971384D01*
X142627402Y-113800299D01*
X142573873Y-113635555D01*
X142495232Y-113481212D01*
X142393414Y-113341072D01*
X142270928Y-113218586D01*
X142130788Y-113116768D01*
X142100295Y-113101231D01*
X141976449Y-113038128D01*
X141825215Y-112988988D01*
X141825203Y-112988985D01*
X141811701Y-112984598D01*
X141811699Y-112984597D01*
X141811698Y-112984597D01*
X141797312Y-112982318D01*
X141797306Y-112982317D01*
X141692892Y-112965780D01*
X141680271Y-112963781D01*
X141664407Y-112961268D01*
X141640614Y-112957500D01*
X141640611Y-112957500D01*
X141467389Y-112957500D01*
X141467388Y-112957500D01*
X141427726Y-112963781D01*
X141427725Y-112963780D01*
X141296304Y-112984596D01*
X141131549Y-113038129D01*
X140977210Y-113116768D01*
X140897256Y-113174859D01*
X140897255Y-113174859D01*
X140848941Y-113209961D01*
X140841564Y-113214092D01*
X140710092Y-113345564D01*
X140705961Y-113352941D01*
X140670859Y-113401255D01*
X140670859Y-113401256D01*
X140612768Y-113481210D01*
X140534129Y-113635549D01*
X140480596Y-113800304D01*
X140468077Y-113879349D01*
X140467069Y-113885715D01*
X140453500Y-113971389D01*
X138927500Y-113971389D01*
X138927500Y-113850204D01*
X138927500Y-113850201D01*
X138900341Y-113713669D01*
X138898255Y-113709259D01*
X138886188Y-113680127D01*
X138886188Y-113680126D01*
X138863071Y-113624317D01*
X138847778Y-113587395D01*
X138847771Y-113587382D01*
X138771114Y-113472658D01*
X138771111Y-113472654D01*
X138680797Y-113382340D01*
X138665998Y-113364469D01*
X138649175Y-113339770D01*
X138629167Y-113289236D01*
X138629007Y-113288219D01*
X138627500Y-113268948D01*
X138627500Y-111912121D01*
X138627501Y-111912070D01*
X138627501Y-111794274D01*
X138627501Y-111794273D01*
X138600207Y-111692413D01*
X138574499Y-111647886D01*
X138547480Y-111601087D01*
X138472913Y-111526520D01*
X138472910Y-111526518D01*
X137078600Y-110132207D01*
X137057451Y-110103957D01*
X137049266Y-110088967D01*
X137034254Y-110023347D01*
X137034919Y-110010053D01*
X137040833Y-109977934D01*
X137073402Y-109877701D01*
X137100500Y-109706611D01*
X137100500Y-109533389D01*
X137073402Y-109362299D01*
X137019873Y-109197555D01*
X136941232Y-109043212D01*
X136839414Y-108903072D01*
X136716928Y-108780586D01*
X136576788Y-108678768D01*
X136422449Y-108600128D01*
X136271215Y-108550988D01*
X136271203Y-108550985D01*
X136257701Y-108546598D01*
X136257699Y-108546597D01*
X136257698Y-108546597D01*
X136243312Y-108544318D01*
X136243306Y-108544317D01*
X136153188Y-108530044D01*
X136126271Y-108525781D01*
X136110407Y-108523268D01*
X136086614Y-108519500D01*
X136086611Y-108519500D01*
X135913389Y-108519500D01*
X135913388Y-108519500D01*
X135873726Y-108525781D01*
X135873725Y-108525780D01*
X135742304Y-108546596D01*
X135577549Y-108600129D01*
X135423210Y-108678768D01*
X135343256Y-108736859D01*
X135343255Y-108736859D01*
X135294941Y-108771961D01*
X135287564Y-108776092D01*
X135156092Y-108907564D01*
X135151961Y-108914941D01*
X135116859Y-108963255D01*
X135116859Y-108963256D01*
X135058768Y-109043210D01*
X134980129Y-109197547D01*
X134926598Y-109362297D01*
X134926596Y-109362303D01*
X134916587Y-109425499D01*
X134916588Y-109425500D01*
X134899500Y-109533389D01*
X134255500Y-109533389D01*
X134255500Y-108624000D01*
X134249661Y-108569687D01*
X134238455Y-108518176D01*
X134231219Y-108491802D01*
X134227332Y-108484976D01*
X134181894Y-108405181D01*
X134181890Y-108405176D01*
X134181888Y-108405172D01*
X134146097Y-108363867D01*
X134136136Y-108352371D01*
X134103359Y-108320743D01*
X134015022Y-108274534D01*
X134015022Y-108274533D01*
X133947990Y-108254851D01*
X133947978Y-108254848D01*
X133876001Y-108244500D01*
X133876000Y-108244500D01*
X130874000Y-108244500D01*
X130873997Y-108244500D01*
X130819687Y-108250338D01*
X130768181Y-108261543D01*
X130768172Y-108261546D01*
X130741807Y-108268779D01*
X130741796Y-108268783D01*
X130655181Y-108318105D01*
X130655173Y-108318111D01*
X130602371Y-108363863D01*
X130570743Y-108396640D01*
X130524534Y-108484977D01*
X130524533Y-108484977D01*
X130504851Y-108552009D01*
X130504848Y-108552021D01*
X130494500Y-108623998D01*
X130494500Y-111198639D01*
X130495963Y-111225934D01*
X130495967Y-111225988D01*
X130498797Y-111252310D01*
X130498798Y-111252312D01*
X130528586Y-111347441D01*
X130528590Y-111347451D01*
X130562068Y-111408761D01*
X130562073Y-111408769D01*
X130605649Y-111466980D01*
X130605665Y-111466998D01*
X131823230Y-112684562D01*
X133033015Y-113894347D01*
X133053365Y-113912626D01*
X133053371Y-113912631D01*
X133053379Y-113912638D01*
X133074003Y-113929257D01*
X133074004Y-113929258D01*
X133074005Y-113929258D01*
X133074007Y-113929260D01*
X133078674Y-113931701D01*
X133108884Y-113953898D01*
X133207173Y-114052187D01*
X133228323Y-114080439D01*
X133240931Y-114103528D01*
X133256100Y-114162957D01*
X133256100Y-114748724D01*
X133251076Y-114783662D01*
X133247889Y-114794515D01*
X133210114Y-114853292D01*
X133146557Y-114882315D01*
X133077425Y-114872382D01*
X133075300Y-114871411D01*
X133023688Y-114827498D01*
X133017916Y-114818859D01*
X133017908Y-114818850D01*
X132920350Y-114721292D01*
X132920344Y-114721287D01*
X132920343Y-114721286D01*
X132805623Y-114644632D01*
X132805622Y-114644631D01*
X132805617Y-114644628D01*
X132805604Y-114644621D01*
X132805597Y-114644617D01*
X132678154Y-114591829D01*
X132678140Y-114591824D01*
X132678132Y-114591821D01*
X132678122Y-114591818D01*
X132678119Y-114591817D01*
X132678115Y-114591816D01*
X132542798Y-114564900D01*
X132542795Y-114564900D01*
X132542793Y-114564900D01*
X132415061Y-114564900D01*
X132391942Y-114562725D01*
X132362581Y-114557152D01*
X132312709Y-114535564D01*
X132311881Y-114534961D01*
X132297198Y-114522406D01*
X131094115Y-113319322D01*
X131094114Y-113319321D01*
X131094113Y-113319320D01*
X131094110Y-113319318D01*
X131094106Y-113319315D01*
X131023676Y-113278652D01*
X131023673Y-113278651D01*
X131002790Y-113266593D01*
X130977323Y-113259769D01*
X130951857Y-113252946D01*
X130951856Y-113252945D01*
X130900930Y-113239300D01*
X130900927Y-113239300D01*
X130900926Y-113239300D01*
X128835485Y-113239300D01*
X128800549Y-113234277D01*
X128775307Y-113226865D01*
X128722562Y-113195569D01*
X128307739Y-112780746D01*
X128286590Y-112752496D01*
X128274990Y-112731252D01*
X128260032Y-112679015D01*
X128259711Y-112673485D01*
X128259710Y-112673485D01*
X128259708Y-112673445D01*
X128259500Y-112666261D01*
X128259500Y-112529401D01*
X128233274Y-112397563D01*
X128232581Y-112394077D01*
X128232580Y-112394076D01*
X128232341Y-112392871D01*
X128230256Y-112388462D01*
X128222057Y-112368667D01*
X128179778Y-112266595D01*
X128179771Y-112266582D01*
X128103114Y-112151858D01*
X128103111Y-112151854D01*
X128103106Y-112151848D01*
X128005550Y-112054292D01*
X128005544Y-112054287D01*
X128005543Y-112054286D01*
X127890823Y-111977632D01*
X127890822Y-111977631D01*
X127890817Y-111977628D01*
X127890804Y-111977621D01*
X127890797Y-111977617D01*
X127763354Y-111924829D01*
X127763340Y-111924824D01*
X127763332Y-111924821D01*
X127763322Y-111924818D01*
X127763319Y-111924817D01*
X127763315Y-111924816D01*
X127627998Y-111897900D01*
X127627995Y-111897900D01*
X127627993Y-111897900D01*
X127490007Y-111897900D01*
X127490005Y-111897900D01*
X127490000Y-111897900D01*
X127354683Y-111924816D01*
X127354677Y-111924818D01*
X127354667Y-111924821D01*
X127354662Y-111924822D01*
X127354644Y-111924829D01*
X127227201Y-111977617D01*
X127227192Y-111977622D01*
X127227175Y-111977632D01*
X127112455Y-112054286D01*
X127112454Y-112054287D01*
X127112448Y-112054292D01*
X127014892Y-112151848D01*
X127014887Y-112151854D01*
X127014886Y-112151855D01*
X126938232Y-112266575D01*
X126938221Y-112266595D01*
X126938218Y-112266600D01*
X126885429Y-112394044D01*
X126885416Y-112394083D01*
X126858500Y-112529400D01*
X126858500Y-112600094D01*
X126853476Y-112635032D01*
X126850289Y-112645885D01*
X126812514Y-112704662D01*
X126748957Y-112733685D01*
X126679807Y-112723744D01*
X126672829Y-112720557D01*
X126636657Y-112695443D01*
X126555826Y-112614612D01*
X126534674Y-112586356D01*
X126522067Y-112563267D01*
X126508463Y-112509968D01*
X126507497Y-112510064D01*
X126506900Y-112504002D01*
X126485035Y-112394083D01*
X126479981Y-112368677D01*
X126479980Y-112368676D01*
X126479980Y-112368672D01*
X126479979Y-112368670D01*
X126479740Y-112367469D01*
X126477660Y-112363072D01*
X126427178Y-112241195D01*
X126427171Y-112241182D01*
X126350514Y-112126458D01*
X126350511Y-112126454D01*
X126350506Y-112126448D01*
X126252950Y-112028892D01*
X126252944Y-112028887D01*
X126252943Y-112028886D01*
X126138223Y-111952232D01*
X126138222Y-111952231D01*
X126138217Y-111952228D01*
X126138204Y-111952221D01*
X126138197Y-111952217D01*
X126010754Y-111899429D01*
X126010740Y-111899424D01*
X126010732Y-111899421D01*
X126010722Y-111899418D01*
X126010719Y-111899417D01*
X126010715Y-111899416D01*
X125875398Y-111872500D01*
X125875395Y-111872500D01*
X125875393Y-111872500D01*
X125737407Y-111872500D01*
X125737405Y-111872500D01*
X125737400Y-111872500D01*
X125602083Y-111899416D01*
X125602077Y-111899418D01*
X125602067Y-111899421D01*
X125602062Y-111899422D01*
X125602044Y-111899429D01*
X125474601Y-111952217D01*
X125474592Y-111952222D01*
X125474575Y-111952232D01*
X125359855Y-112028886D01*
X125359854Y-112028887D01*
X125359848Y-112028892D01*
X125262292Y-112126448D01*
X125262287Y-112126454D01*
X125262286Y-112126455D01*
X125185632Y-112241175D01*
X125185622Y-112241192D01*
X125185617Y-112241201D01*
X125132829Y-112368644D01*
X125132822Y-112368662D01*
X125132822Y-112368666D01*
X125132816Y-112368683D01*
X125105900Y-112504000D01*
X125105900Y-112504002D01*
X125105900Y-112504004D01*
X125105900Y-112504007D01*
X125105900Y-112641993D01*
X125105900Y-112641995D01*
X125105899Y-112641995D01*
X110802880Y-112641995D01*
X110805712Y-112638544D01*
X110805714Y-112638542D01*
X110843197Y-112582445D01*
X110871709Y-112539775D01*
X110882372Y-112523815D01*
X110882375Y-112523811D01*
X110935180Y-112396328D01*
X110960987Y-112266589D01*
X110962100Y-112260995D01*
X110962100Y-112123004D01*
X110962100Y-112123001D01*
X110934941Y-111986468D01*
X110932850Y-111982046D01*
X110931020Y-111977628D01*
X110931017Y-111977621D01*
X110931012Y-111977608D01*
X110931012Y-111977607D01*
X110882381Y-111860201D01*
X110882376Y-111860192D01*
X110882371Y-111860182D01*
X110805714Y-111745458D01*
X110805711Y-111745454D01*
X110805706Y-111745448D01*
X110708150Y-111647892D01*
X110708143Y-111647886D01*
X110593423Y-111571232D01*
X110593422Y-111571231D01*
X110593417Y-111571228D01*
X110593404Y-111571221D01*
X110593397Y-111571217D01*
X110465954Y-111518429D01*
X110465940Y-111518424D01*
X110465932Y-111518421D01*
X110465922Y-111518418D01*
X110465919Y-111518417D01*
X110465915Y-111518416D01*
X110330598Y-111491500D01*
X110330595Y-111491500D01*
X110330593Y-111491500D01*
X110192607Y-111491500D01*
X110192605Y-111491500D01*
X110192600Y-111491500D01*
X110057283Y-111518416D01*
X110057277Y-111518418D01*
X110057267Y-111518421D01*
X110057262Y-111518422D01*
X110057244Y-111518429D01*
X109929801Y-111571217D01*
X109929792Y-111571222D01*
X109929775Y-111571232D01*
X109815056Y-111647886D01*
X109815048Y-111647892D01*
X109717492Y-111745448D01*
X109717487Y-111745454D01*
X109717486Y-111745455D01*
X109640832Y-111860175D01*
X109640822Y-111860192D01*
X109640817Y-111860201D01*
X109588029Y-111987644D01*
X109588016Y-111987683D01*
X109561100Y-112123000D01*
X109561100Y-112123004D01*
X109561100Y-112123007D01*
X109561100Y-112260993D01*
X109561100Y-112260995D01*
X109561099Y-112260995D01*
X109588018Y-112396322D01*
X109588021Y-112396332D01*
X109588529Y-112397559D01*
X109588530Y-112397563D01*
X109640817Y-112523797D01*
X109640822Y-112523806D01*
X109640832Y-112523823D01*
X109717487Y-112638544D01*
X109719991Y-112641596D01*
X109732961Y-112660820D01*
X109745928Y-112684565D01*
X109761100Y-112743997D01*
X109761100Y-117169851D01*
X109756076Y-117204791D01*
X109748664Y-117230030D01*
X109719745Y-117278775D01*
X109720377Y-117279323D01*
X109717485Y-117282657D01*
X109640832Y-117397375D01*
X109640822Y-117397392D01*
X109640817Y-117397401D01*
X109588029Y-117524844D01*
X109588016Y-117524883D01*
X109561100Y-117660200D01*
X109561100Y-117753826D01*
X109555837Y-117771746D01*
X100500500Y-117771746D01*
X100500500Y-115725318D01*
X101359500Y-115725318D01*
X101359500Y-117474678D01*
X101373630Y-117545717D01*
X101374032Y-117547735D01*
X101374033Y-117547739D01*
X101374034Y-117547740D01*
X101429399Y-117630601D01*
X101509267Y-117683966D01*
X101512260Y-117685966D01*
X101512264Y-117685967D01*
X101577681Y-117698979D01*
X101580415Y-117699703D01*
X101585323Y-117700500D01*
X103334676Y-117700500D01*
X103338796Y-117700500D01*
X103346648Y-117698117D01*
X103407740Y-117685966D01*
X103490601Y-117630601D01*
X103545966Y-117547740D01*
X103560500Y-117474674D01*
X103560500Y-116513383D01*
X103899500Y-116513383D01*
X103899500Y-116686615D01*
X103926276Y-116855679D01*
X103926277Y-116855679D01*
X103926597Y-116857699D01*
X103980128Y-117022449D01*
X104026163Y-117112797D01*
X104058768Y-117176788D01*
X104160586Y-117316928D01*
X104283072Y-117439414D01*
X104423212Y-117541232D01*
X104577555Y-117619873D01*
X104742299Y-117673402D01*
X104913389Y-117700500D01*
X104913390Y-117700500D01*
X105086610Y-117700500D01*
X105086611Y-117700500D01*
X105257701Y-117673402D01*
X105422445Y-117619873D01*
X105576788Y-117541232D01*
X105716928Y-117439414D01*
X105839414Y-117316928D01*
X105941232Y-117176788D01*
X106019873Y-117022445D01*
X106073402Y-116857701D01*
X106100500Y-116686611D01*
X106100500Y-116513389D01*
X106100499Y-116513383D01*
X106439500Y-116513383D01*
X106439500Y-116686615D01*
X106466276Y-116855679D01*
X106466277Y-116855679D01*
X106466597Y-116857699D01*
X106520128Y-117022449D01*
X106566163Y-117112797D01*
X106598768Y-117176788D01*
X106700586Y-117316928D01*
X106823072Y-117439414D01*
X106963212Y-117541232D01*
X107117555Y-117619873D01*
X107282299Y-117673402D01*
X107453389Y-117700500D01*
X107453390Y-117700500D01*
X107626610Y-117700500D01*
X107626611Y-117700500D01*
X107797701Y-117673402D01*
X107962445Y-117619873D01*
X108116788Y-117541232D01*
X108256928Y-117439414D01*
X108379414Y-117316928D01*
X108481232Y-117176788D01*
X108559873Y-117022445D01*
X108613402Y-116857701D01*
X108640500Y-116686611D01*
X108640500Y-116513389D01*
X108613402Y-116342299D01*
X108559873Y-116177555D01*
X108481232Y-116023212D01*
X108379414Y-115883072D01*
X108256928Y-115760586D01*
X108116788Y-115658768D01*
X108104072Y-115652289D01*
X107962449Y-115580128D01*
X107811215Y-115530988D01*
X107811203Y-115530985D01*
X107797701Y-115526598D01*
X107797699Y-115526597D01*
X107797698Y-115526597D01*
X107783312Y-115524318D01*
X107783306Y-115524317D01*
X107693188Y-115510044D01*
X107666271Y-115505781D01*
X107650407Y-115503268D01*
X107626614Y-115499500D01*
X107626611Y-115499500D01*
X107453389Y-115499500D01*
X107453388Y-115499500D01*
X107413726Y-115505781D01*
X107413725Y-115505780D01*
X107282298Y-115526597D01*
X107282273Y-115526603D01*
X107281863Y-115526739D01*
X107125028Y-115577699D01*
X107125027Y-115577698D01*
X107117560Y-115580124D01*
X107117547Y-115580130D01*
X106963212Y-115658766D01*
X106890020Y-115711945D01*
X106834943Y-115751961D01*
X106827562Y-115756094D01*
X106696093Y-115887563D01*
X106691961Y-115894942D01*
X106600221Y-116021211D01*
X106598768Y-116023211D01*
X106598766Y-116023213D01*
X106598764Y-116023218D01*
X106520129Y-116177549D01*
X106520129Y-116177550D01*
X106520128Y-116177552D01*
X106466599Y-116342298D01*
X106466598Y-116342300D01*
X106466596Y-116342305D01*
X106439500Y-116513383D01*
X106100499Y-116513383D01*
X106073402Y-116342299D01*
X106019873Y-116177555D01*
X105941232Y-116023212D01*
X105839414Y-115883072D01*
X105716928Y-115760586D01*
X105576788Y-115658768D01*
X105564072Y-115652289D01*
X105422449Y-115580128D01*
X105271215Y-115530988D01*
X105271203Y-115530985D01*
X105257701Y-115526598D01*
X105257699Y-115526597D01*
X105257698Y-115526597D01*
X105243312Y-115524318D01*
X105243306Y-115524317D01*
X105153188Y-115510044D01*
X105126271Y-115505781D01*
X105110407Y-115503268D01*
X105086614Y-115499500D01*
X105086611Y-115499500D01*
X104913389Y-115499500D01*
X104913388Y-115499500D01*
X104873726Y-115505781D01*
X104873725Y-115505780D01*
X104742298Y-115526597D01*
X104742273Y-115526603D01*
X104741863Y-115526739D01*
X104585028Y-115577699D01*
X104585027Y-115577698D01*
X104577560Y-115580124D01*
X104577547Y-115580130D01*
X104423212Y-115658766D01*
X104350020Y-115711945D01*
X104294943Y-115751961D01*
X104287562Y-115756094D01*
X104156093Y-115887563D01*
X104151961Y-115894942D01*
X104060221Y-116021211D01*
X104058768Y-116023211D01*
X104058766Y-116023213D01*
X104058764Y-116023218D01*
X103980129Y-116177549D01*
X103980129Y-116177550D01*
X103980128Y-116177552D01*
X103926599Y-116342298D01*
X103926598Y-116342300D01*
X103926596Y-116342305D01*
X103899500Y-116513383D01*
X103560500Y-116513383D01*
X103560500Y-115725326D01*
X103560500Y-115725323D01*
X103560500Y-115725139D01*
X103560064Y-115723134D01*
X103545972Y-115652289D01*
X103545967Y-115652266D01*
X103545967Y-115652264D01*
X103545966Y-115652260D01*
X103532200Y-115631658D01*
X103532199Y-115631656D01*
X103490604Y-115569402D01*
X103490602Y-115569400D01*
X103490601Y-115569399D01*
X103426542Y-115526597D01*
X103426540Y-115526594D01*
X103407741Y-115514034D01*
X103407740Y-115514033D01*
X103407739Y-115514033D01*
X103407735Y-115514032D01*
X103407725Y-115514030D01*
X103407709Y-115514026D01*
X103334680Y-115499500D01*
X103334677Y-115499500D01*
X103334674Y-115499500D01*
X101585326Y-115499500D01*
X101585323Y-115499500D01*
X101585319Y-115499500D01*
X101512285Y-115514027D01*
X101512262Y-115514032D01*
X101512258Y-115514033D01*
X101429399Y-115569399D01*
X101374033Y-115652258D01*
X101374032Y-115652266D01*
X101374028Y-115652281D01*
X101359500Y-115725318D01*
X100500500Y-115725318D01*
X100500500Y-113973383D01*
X101359500Y-113973383D01*
X101359500Y-114146615D01*
X101386276Y-114315679D01*
X101386277Y-114315679D01*
X101386597Y-114317699D01*
X101440128Y-114482449D01*
X101500832Y-114601587D01*
X101518768Y-114636788D01*
X101620586Y-114776928D01*
X101743072Y-114899414D01*
X101883212Y-115001232D01*
X102037555Y-115079873D01*
X102202299Y-115133402D01*
X102373389Y-115160500D01*
X102373390Y-115160500D01*
X102546610Y-115160500D01*
X102546611Y-115160500D01*
X102717701Y-115133402D01*
X102882445Y-115079873D01*
X103036788Y-115001232D01*
X103176928Y-114899414D01*
X103299414Y-114776928D01*
X103401232Y-114636788D01*
X103479873Y-114482445D01*
X103533402Y-114317701D01*
X103560500Y-114146611D01*
X103560500Y-113973389D01*
X103560499Y-113973383D01*
X103899500Y-113973383D01*
X103899500Y-114146615D01*
X103926276Y-114315679D01*
X103926277Y-114315679D01*
X103926597Y-114317699D01*
X103980128Y-114482449D01*
X104040832Y-114601587D01*
X104058768Y-114636788D01*
X104160586Y-114776928D01*
X104283072Y-114899414D01*
X104423212Y-115001232D01*
X104577555Y-115079873D01*
X104742299Y-115133402D01*
X104913389Y-115160500D01*
X104913390Y-115160500D01*
X105086610Y-115160500D01*
X105086611Y-115160500D01*
X105257701Y-115133402D01*
X105422445Y-115079873D01*
X105576788Y-115001232D01*
X105716928Y-114899414D01*
X105839414Y-114776928D01*
X105941232Y-114636788D01*
X106019873Y-114482445D01*
X106073402Y-114317701D01*
X106100500Y-114146611D01*
X106100500Y-113973389D01*
X106073402Y-113802299D01*
X106019873Y-113637555D01*
X105941232Y-113483212D01*
X105839414Y-113343072D01*
X105716928Y-113220586D01*
X105576788Y-113118768D01*
X105572863Y-113116768D01*
X105422449Y-113040128D01*
X105271215Y-112990988D01*
X105271203Y-112990985D01*
X105257701Y-112986598D01*
X105257699Y-112986597D01*
X105257698Y-112986597D01*
X105243312Y-112984318D01*
X105243306Y-112984317D01*
X105153188Y-112970044D01*
X105126271Y-112965781D01*
X105110407Y-112963268D01*
X105086614Y-112959500D01*
X105086611Y-112959500D01*
X104913389Y-112959500D01*
X104913388Y-112959500D01*
X104873726Y-112965781D01*
X104873725Y-112965780D01*
X104742304Y-112986596D01*
X104577549Y-113040129D01*
X104423210Y-113118768D01*
X104343256Y-113176859D01*
X104343255Y-113176859D01*
X104294941Y-113211961D01*
X104287564Y-113216092D01*
X104156092Y-113347564D01*
X104151961Y-113354941D01*
X104116859Y-113403255D01*
X104116859Y-113403256D01*
X104058768Y-113483210D01*
X103980129Y-113637549D01*
X103980128Y-113637551D01*
X103980128Y-113637552D01*
X103926599Y-113802298D01*
X103926598Y-113802300D01*
X103926596Y-113802305D01*
X103899500Y-113973383D01*
X103560499Y-113973383D01*
X103533402Y-113802299D01*
X103479873Y-113637555D01*
X103401232Y-113483212D01*
X103299414Y-113343072D01*
X103176928Y-113220586D01*
X103036788Y-113118768D01*
X103032863Y-113116768D01*
X102882449Y-113040128D01*
X102731215Y-112990988D01*
X102731203Y-112990985D01*
X102717701Y-112986598D01*
X102717699Y-112986597D01*
X102717698Y-112986597D01*
X102703312Y-112984318D01*
X102703306Y-112984317D01*
X102613188Y-112970044D01*
X102586271Y-112965781D01*
X102570407Y-112963268D01*
X102546614Y-112959500D01*
X102546611Y-112959500D01*
X102373389Y-112959500D01*
X102373388Y-112959500D01*
X102333726Y-112965781D01*
X102333725Y-112965780D01*
X102202304Y-112986596D01*
X102037549Y-113040129D01*
X101883210Y-113118768D01*
X101803256Y-113176859D01*
X101803255Y-113176859D01*
X101754941Y-113211961D01*
X101747564Y-113216092D01*
X101616092Y-113347564D01*
X101611961Y-113354941D01*
X101576859Y-113403255D01*
X101576859Y-113403256D01*
X101518768Y-113483210D01*
X101440129Y-113637549D01*
X101440128Y-113637551D01*
X101440128Y-113637552D01*
X101386599Y-113802298D01*
X101386598Y-113802300D01*
X101386596Y-113802305D01*
X101359500Y-113973383D01*
X100500500Y-113973383D01*
X100500500Y-109533389D01*
X112039500Y-109533389D01*
X112039500Y-109706611D01*
X112042358Y-109724655D01*
X112042358Y-109724657D01*
X112062821Y-109853858D01*
X112066596Y-109877696D01*
X112075821Y-109906086D01*
X112120127Y-110042445D01*
X112120128Y-110042447D01*
X112120129Y-110042449D01*
X112193297Y-110186050D01*
X112198768Y-110196788D01*
X112300586Y-110336928D01*
X112423072Y-110459414D01*
X112563212Y-110561232D01*
X112717555Y-110639873D01*
X112882299Y-110693402D01*
X113053389Y-110720500D01*
X113053390Y-110720500D01*
X113226610Y-110720500D01*
X113226611Y-110720500D01*
X113397701Y-110693402D01*
X113562445Y-110639873D01*
X113716788Y-110561232D01*
X113856928Y-110459414D01*
X113979414Y-110336928D01*
X114081232Y-110196788D01*
X114159873Y-110042445D01*
X114213402Y-109877701D01*
X114223523Y-109813799D01*
X125316206Y-109813799D01*
X125316206Y-109906087D01*
X125317564Y-109911156D01*
X125317564Y-109911159D01*
X125326937Y-109946141D01*
X125326938Y-109946141D01*
X125335457Y-109977934D01*
X125340092Y-109995231D01*
X125340095Y-109995239D01*
X125376491Y-110058277D01*
X125386232Y-110075148D01*
X125386235Y-110075152D01*
X125386237Y-110075155D01*
X125451494Y-110140412D01*
X125451497Y-110140413D01*
X125451500Y-110140416D01*
X125457726Y-110144010D01*
X125458390Y-110144673D01*
X125459742Y-110145509D01*
X125462357Y-110146684D01*
X125531412Y-110186554D01*
X125531413Y-110186554D01*
X125531418Y-110186557D01*
X125620562Y-110210443D01*
X125620564Y-110210443D01*
X126712848Y-110210443D01*
X126712850Y-110210443D01*
X126801994Y-110186557D01*
X126881918Y-110140412D01*
X126947175Y-110075155D01*
X126993320Y-109995231D01*
X127017206Y-109906087D01*
X127017206Y-109813799D01*
X126993320Y-109724655D01*
X126993318Y-109724652D01*
X126988088Y-109715593D01*
X126947179Y-109644737D01*
X126947178Y-109644736D01*
X126947176Y-109644732D01*
X126883084Y-109580640D01*
X126881918Y-109579474D01*
X126881915Y-109579472D01*
X126881911Y-109579469D01*
X126815896Y-109541354D01*
X126815541Y-109541147D01*
X126815166Y-109540749D01*
X126809601Y-109536479D01*
X126803705Y-109534037D01*
X126800302Y-109532567D01*
X126799832Y-109532355D01*
X126797940Y-109531649D01*
X126794390Y-109530178D01*
X126786226Y-109529104D01*
X126712850Y-109509443D01*
X126712849Y-109509443D01*
X125620562Y-109509443D01*
X125538172Y-109531518D01*
X125538157Y-109531523D01*
X125531418Y-109533329D01*
X125531417Y-109533329D01*
X125531415Y-109533330D01*
X125531412Y-109533331D01*
X125528612Y-109534947D01*
X125528608Y-109534949D01*
X125451510Y-109579462D01*
X125451492Y-109579474D01*
X125386237Y-109644729D01*
X125386225Y-109644747D01*
X125341255Y-109722637D01*
X125341254Y-109722638D01*
X125340094Y-109724649D01*
X125340093Y-109724652D01*
X125340092Y-109724654D01*
X125340092Y-109724655D01*
X125316206Y-109813799D01*
X114223523Y-109813799D01*
X114240500Y-109706611D01*
X114240500Y-109533389D01*
X114213402Y-109362299D01*
X114159873Y-109197555D01*
X114081232Y-109043212D01*
X113979414Y-108903072D01*
X113856928Y-108780586D01*
X113716788Y-108678768D01*
X113562449Y-108600128D01*
X113411215Y-108550988D01*
X113411203Y-108550985D01*
X113397701Y-108546598D01*
X113397699Y-108546597D01*
X113397698Y-108546597D01*
X113383312Y-108544318D01*
X113383306Y-108544317D01*
X113293188Y-108530044D01*
X113266271Y-108525781D01*
X113250407Y-108523268D01*
X113226614Y-108519500D01*
X113226611Y-108519500D01*
X113053389Y-108519500D01*
X113053388Y-108519500D01*
X113013726Y-108525781D01*
X113013725Y-108525780D01*
X112882304Y-108546596D01*
X112717549Y-108600129D01*
X112563210Y-108678768D01*
X112483256Y-108736859D01*
X112483255Y-108736859D01*
X112434941Y-108771961D01*
X112427564Y-108776092D01*
X112296092Y-108907564D01*
X112291961Y-108914941D01*
X112256859Y-108963255D01*
X112256859Y-108963256D01*
X112198768Y-109043210D01*
X112120129Y-109197547D01*
X112066598Y-109362297D01*
X112066596Y-109362303D01*
X112056587Y-109425499D01*
X112056588Y-109425500D01*
X112039500Y-109533389D01*
X100500500Y-109533389D01*
X100500500Y-106993383D01*
X112039500Y-106993383D01*
X112039500Y-107166610D01*
X112066597Y-107337697D01*
X112066597Y-107337699D01*
X112066598Y-107337701D01*
X112120127Y-107502445D01*
X112198768Y-107656788D01*
X112300586Y-107796928D01*
X112423072Y-107919414D01*
X112563212Y-108021232D01*
X112717555Y-108099873D01*
X112882299Y-108153402D01*
X113053389Y-108180500D01*
X113053390Y-108180500D01*
X113226610Y-108180500D01*
X113226611Y-108180500D01*
X113397701Y-108153402D01*
X113562445Y-108099873D01*
X113716788Y-108021232D01*
X113856928Y-107919414D01*
X113979414Y-107796928D01*
X114081232Y-107656788D01*
X114159873Y-107502445D01*
X114185388Y-107423920D01*
X119429499Y-107423920D01*
X119458340Y-107568907D01*
X119458343Y-107568917D01*
X119458819Y-107570067D01*
X119458820Y-107570070D01*
X119514908Y-107705481D01*
X119514913Y-107705490D01*
X119514923Y-107705507D01*
X119597049Y-107828417D01*
X119597050Y-107828418D01*
X119597055Y-107828424D01*
X119701574Y-107932943D01*
X119701580Y-107932948D01*
X119701584Y-107932951D01*
X119824498Y-108015080D01*
X119824511Y-108015087D01*
X119961082Y-108071656D01*
X119961087Y-108071658D01*
X119961091Y-108071658D01*
X119961092Y-108071659D01*
X119961357Y-108071711D01*
X119961358Y-108071712D01*
X119961382Y-108071717D01*
X120106077Y-108100500D01*
X120106079Y-108100500D01*
X120106082Y-108100500D01*
X120253920Y-108100500D01*
X120351462Y-108081096D01*
X120398913Y-108071658D01*
X120504547Y-108027902D01*
X120528950Y-108017794D01*
X120531740Y-108016822D01*
X120533173Y-108016159D01*
X120537837Y-108014114D01*
X120547104Y-108010275D01*
X120555990Y-108001389D01*
X120658416Y-107932951D01*
X120762951Y-107828416D01*
X120845084Y-107705495D01*
X120901658Y-107568913D01*
X120930500Y-107423920D01*
X128069499Y-107423920D01*
X128098340Y-107568907D01*
X128098343Y-107568917D01*
X128098819Y-107570067D01*
X128098820Y-107570070D01*
X128154908Y-107705481D01*
X128154913Y-107705490D01*
X128154923Y-107705507D01*
X128237049Y-107828417D01*
X128237050Y-107828418D01*
X128237055Y-107828424D01*
X128341574Y-107932943D01*
X128341580Y-107932948D01*
X128341584Y-107932951D01*
X128464498Y-108015080D01*
X128464511Y-108015087D01*
X128601082Y-108071656D01*
X128601087Y-108071658D01*
X128601091Y-108071658D01*
X128601092Y-108071659D01*
X128601357Y-108071711D01*
X128601358Y-108071712D01*
X128601382Y-108071717D01*
X128746077Y-108100500D01*
X128746079Y-108100500D01*
X128746082Y-108100500D01*
X128893920Y-108100500D01*
X128991462Y-108081096D01*
X129038913Y-108071658D01*
X129144547Y-108027902D01*
X129168950Y-108017794D01*
X129171740Y-108016822D01*
X129173173Y-108016159D01*
X129177837Y-108014114D01*
X129187104Y-108010275D01*
X129195990Y-108001389D01*
X129298416Y-107932951D01*
X129402951Y-107828416D01*
X129485084Y-107705495D01*
X129541658Y-107568913D01*
X129570500Y-107423918D01*
X129570500Y-106993383D01*
X134899500Y-106993383D01*
X134899500Y-107166610D01*
X134926597Y-107337697D01*
X134926597Y-107337699D01*
X134926598Y-107337701D01*
X134980127Y-107502445D01*
X135058768Y-107656788D01*
X135160586Y-107796928D01*
X135283072Y-107919414D01*
X135423212Y-108021232D01*
X135577555Y-108099873D01*
X135742299Y-108153402D01*
X135913389Y-108180500D01*
X135913390Y-108180500D01*
X136086610Y-108180500D01*
X136086611Y-108180500D01*
X136257701Y-108153402D01*
X136422445Y-108099873D01*
X136576788Y-108021232D01*
X136716928Y-107919414D01*
X136839414Y-107796928D01*
X136941232Y-107656788D01*
X137019873Y-107502445D01*
X137073402Y-107337701D01*
X137100500Y-107166611D01*
X137100500Y-106993389D01*
X137073402Y-106822299D01*
X137019873Y-106657555D01*
X136941232Y-106503212D01*
X136839414Y-106363072D01*
X136716928Y-106240586D01*
X136576788Y-106138768D01*
X136422449Y-106060128D01*
X136271227Y-106010992D01*
X136271216Y-106010989D01*
X136257701Y-106006598D01*
X136257699Y-106006597D01*
X136257698Y-106006597D01*
X136243296Y-106004316D01*
X136243292Y-106004315D01*
X136120781Y-105984912D01*
X136120780Y-105984911D01*
X136086611Y-105979500D01*
X135913389Y-105979500D01*
X135879218Y-105984912D01*
X135742302Y-106006596D01*
X135742301Y-106006596D01*
X135577547Y-106060129D01*
X135423210Y-106138768D01*
X135343256Y-106196859D01*
X135343255Y-106196859D01*
X135294941Y-106231961D01*
X135287564Y-106236092D01*
X135156092Y-106367564D01*
X135151961Y-106374941D01*
X135116859Y-106423255D01*
X135116859Y-106423256D01*
X135058768Y-106503210D01*
X134980129Y-106657549D01*
X134926596Y-106822305D01*
X134899500Y-106993383D01*
X129570500Y-106993383D01*
X129570500Y-106576082D01*
X129570500Y-106576079D01*
X129570500Y-106576076D01*
X129541717Y-106431383D01*
X129541419Y-106429885D01*
X129539338Y-106425487D01*
X129485087Y-106294511D01*
X129485080Y-106294498D01*
X129402951Y-106171584D01*
X129402948Y-106171580D01*
X129402943Y-106171574D01*
X129298424Y-106067055D01*
X129298418Y-106067050D01*
X129298417Y-106067049D01*
X129175507Y-105984923D01*
X129175506Y-105984922D01*
X129175501Y-105984919D01*
X129175488Y-105984912D01*
X129175486Y-105984911D01*
X129175481Y-105984908D01*
X129038919Y-105928344D01*
X129038920Y-105928344D01*
X129038917Y-105928343D01*
X129038907Y-105928340D01*
X129038905Y-105928339D01*
X129038900Y-105928338D01*
X128893922Y-105899500D01*
X128893920Y-105899500D01*
X128893918Y-105899500D01*
X128746082Y-105899500D01*
X128746080Y-105899500D01*
X128746078Y-105899500D01*
X128601096Y-105928338D01*
X128601079Y-105928344D01*
X128464517Y-105984908D01*
X128464511Y-105984912D01*
X128464491Y-105984923D01*
X128341581Y-106067049D01*
X128341580Y-106067050D01*
X128341574Y-106067055D01*
X128237055Y-106171574D01*
X128237050Y-106171580D01*
X128237049Y-106171581D01*
X128154923Y-106294491D01*
X128154913Y-106294508D01*
X128154908Y-106294517D01*
X128098344Y-106431079D01*
X128098338Y-106431098D01*
X128069500Y-106576076D01*
X128069500Y-106576079D01*
X128069500Y-106576082D01*
X128069500Y-107423918D01*
X128069500Y-107423920D01*
X128069499Y-107423920D01*
X120930500Y-107423920D01*
X120930500Y-107423918D01*
X120930500Y-106576082D01*
X120930500Y-106576079D01*
X120930500Y-106576076D01*
X120901717Y-106431383D01*
X120901419Y-106429885D01*
X120899338Y-106425487D01*
X120845087Y-106294511D01*
X120845080Y-106294498D01*
X120762951Y-106171584D01*
X120762948Y-106171580D01*
X120762943Y-106171574D01*
X120658424Y-106067055D01*
X120658418Y-106067050D01*
X120658417Y-106067049D01*
X120535507Y-105984923D01*
X120535506Y-105984922D01*
X120535501Y-105984919D01*
X120535488Y-105984912D01*
X120535486Y-105984911D01*
X120535481Y-105984908D01*
X120398919Y-105928344D01*
X120398920Y-105928344D01*
X120398917Y-105928343D01*
X120398907Y-105928340D01*
X120398905Y-105928339D01*
X120398900Y-105928338D01*
X120253922Y-105899500D01*
X120253920Y-105899500D01*
X120253918Y-105899500D01*
X120106082Y-105899500D01*
X120106080Y-105899500D01*
X120106078Y-105899500D01*
X119961096Y-105928338D01*
X119961079Y-105928344D01*
X119824517Y-105984908D01*
X119824511Y-105984912D01*
X119824491Y-105984923D01*
X119701581Y-106067049D01*
X119701580Y-106067050D01*
X119701574Y-106067055D01*
X119597055Y-106171574D01*
X119597050Y-106171580D01*
X119597049Y-106171581D01*
X119514923Y-106294491D01*
X119514913Y-106294508D01*
X119514908Y-106294517D01*
X119458344Y-106431079D01*
X119458338Y-106431098D01*
X119429500Y-106576076D01*
X119429500Y-106576079D01*
X119429500Y-106576082D01*
X119429500Y-107423918D01*
X119429500Y-107423920D01*
X119429499Y-107423920D01*
X114185388Y-107423920D01*
X114213402Y-107337701D01*
X114240500Y-107166611D01*
X114240500Y-106993389D01*
X114213402Y-106822299D01*
X114187441Y-106742400D01*
X114162486Y-106665595D01*
X114162482Y-106665585D01*
X114159873Y-106657555D01*
X114159871Y-106657552D01*
X114159871Y-106657550D01*
X114157626Y-106653145D01*
X114157317Y-106652352D01*
X114156591Y-106651113D01*
X114143941Y-106626286D01*
X114143940Y-106626284D01*
X114081233Y-106503213D01*
X114065937Y-106482160D01*
X113979414Y-106363072D01*
X113856928Y-106240586D01*
X113716788Y-106138768D01*
X113562449Y-106060128D01*
X113411227Y-106010992D01*
X113411216Y-106010989D01*
X113397701Y-106006598D01*
X113397699Y-106006597D01*
X113397698Y-106006597D01*
X113383296Y-106004316D01*
X113383292Y-106004315D01*
X113260781Y-105984912D01*
X113260780Y-105984911D01*
X113226611Y-105979500D01*
X113053389Y-105979500D01*
X113019218Y-105984912D01*
X112882302Y-106006596D01*
X112882301Y-106006596D01*
X112717547Y-106060129D01*
X112563210Y-106138768D01*
X112483256Y-106196859D01*
X112483255Y-106196859D01*
X112434941Y-106231961D01*
X112427564Y-106236092D01*
X112296092Y-106367564D01*
X112291961Y-106374941D01*
X112256859Y-106423255D01*
X112256859Y-106423256D01*
X112198768Y-106503210D01*
X112120129Y-106657549D01*
X112066596Y-106822305D01*
X112039500Y-106993383D01*
X100500500Y-106993383D01*
X100500500Y-104453389D01*
X112039500Y-104453389D01*
X112039500Y-104626611D01*
X112066598Y-104797701D01*
X112120127Y-104962445D01*
X112198768Y-105116788D01*
X112300586Y-105256928D01*
X112423072Y-105379414D01*
X112563212Y-105481232D01*
X112717555Y-105559873D01*
X112882299Y-105613402D01*
X113053389Y-105640500D01*
X113053390Y-105640500D01*
X113226610Y-105640500D01*
X113226611Y-105640500D01*
X113397701Y-105613402D01*
X113562445Y-105559873D01*
X113716788Y-105481232D01*
X113856928Y-105379414D01*
X113979414Y-105256928D01*
X114081232Y-105116788D01*
X114159873Y-104962445D01*
X114213402Y-104797701D01*
X114240500Y-104626611D01*
X114240500Y-104453389D01*
X134899500Y-104453389D01*
X134899500Y-104626611D01*
X134926598Y-104797701D01*
X134980127Y-104962445D01*
X135058768Y-105116788D01*
X135160586Y-105256928D01*
X135283072Y-105379414D01*
X135423212Y-105481232D01*
X135577555Y-105559873D01*
X135742299Y-105613402D01*
X135913389Y-105640500D01*
X135913390Y-105640500D01*
X136086610Y-105640500D01*
X136086611Y-105640500D01*
X136257701Y-105613402D01*
X136422445Y-105559873D01*
X136576788Y-105481232D01*
X136716928Y-105379414D01*
X136839414Y-105256928D01*
X136941232Y-105116788D01*
X137019873Y-104962445D01*
X137073402Y-104797701D01*
X137100500Y-104626611D01*
X137100500Y-104453389D01*
X137073402Y-104282299D01*
X137019873Y-104117555D01*
X136941232Y-103963212D01*
X136839414Y-103823072D01*
X136716928Y-103700586D01*
X136576788Y-103598768D01*
X136576786Y-103598767D01*
X136422449Y-103520128D01*
X136271215Y-103470988D01*
X136271203Y-103470985D01*
X136257701Y-103466598D01*
X136257699Y-103466597D01*
X136257698Y-103466597D01*
X136243312Y-103464318D01*
X136243306Y-103464317D01*
X136153188Y-103450044D01*
X136126271Y-103445781D01*
X136110407Y-103443268D01*
X136086614Y-103439500D01*
X136086611Y-103439500D01*
X135913389Y-103439500D01*
X135913388Y-103439500D01*
X135873726Y-103445781D01*
X135873725Y-103445780D01*
X135742304Y-103466596D01*
X135577549Y-103520129D01*
X135423211Y-103598767D01*
X135388596Y-103623918D01*
X135388595Y-103623918D01*
X135294942Y-103691961D01*
X135287563Y-103696093D01*
X135156092Y-103827564D01*
X135151961Y-103834941D01*
X135116859Y-103883255D01*
X135116859Y-103883256D01*
X135058768Y-103963210D01*
X134980101Y-104117604D01*
X134979629Y-104118547D01*
X134978547Y-104122413D01*
X134953362Y-104199926D01*
X134953362Y-104199927D01*
X134926597Y-104282300D01*
X134926597Y-104282302D01*
X134923715Y-104300500D01*
X134899500Y-104453389D01*
X114240500Y-104453389D01*
X114213402Y-104282299D01*
X114159873Y-104117555D01*
X114081232Y-103963212D01*
X113979414Y-103823072D01*
X113856928Y-103700586D01*
X113751407Y-103623920D01*
X119429499Y-103623920D01*
X119458340Y-103768907D01*
X119458343Y-103768917D01*
X119458819Y-103770067D01*
X119458820Y-103770070D01*
X119514908Y-103905481D01*
X119514913Y-103905490D01*
X119514923Y-103905507D01*
X119597049Y-104028417D01*
X119597050Y-104028418D01*
X119597055Y-104028424D01*
X119701574Y-104132943D01*
X119701580Y-104132948D01*
X119701584Y-104132951D01*
X119824498Y-104215080D01*
X119824511Y-104215087D01*
X119961082Y-104271656D01*
X119961087Y-104271658D01*
X119961091Y-104271658D01*
X119961092Y-104271659D01*
X119961357Y-104271711D01*
X119961358Y-104271712D01*
X119961382Y-104271717D01*
X120106077Y-104300500D01*
X120106079Y-104300500D01*
X120106082Y-104300500D01*
X120253920Y-104300500D01*
X120351462Y-104281096D01*
X120398913Y-104271658D01*
X120535495Y-104215084D01*
X120658416Y-104132951D01*
X120762951Y-104028416D01*
X120845084Y-103905495D01*
X120901658Y-103768913D01*
X120915249Y-103700588D01*
X120930500Y-103623920D01*
X120930500Y-103597471D01*
X128064237Y-103597471D01*
X128098338Y-103768899D01*
X128098344Y-103768919D01*
X128154908Y-103905481D01*
X128154913Y-103905490D01*
X128154923Y-103905507D01*
X128237049Y-104028417D01*
X128237050Y-104028418D01*
X128237055Y-104028424D01*
X128341574Y-104132943D01*
X128341580Y-104132948D01*
X128341584Y-104132951D01*
X128464498Y-104215080D01*
X128464511Y-104215087D01*
X128601082Y-104271656D01*
X128601087Y-104271658D01*
X128601091Y-104271658D01*
X128601092Y-104271659D01*
X128601357Y-104271711D01*
X128601358Y-104271712D01*
X128601382Y-104271717D01*
X128746077Y-104300500D01*
X128746079Y-104300500D01*
X128746082Y-104300500D01*
X128893920Y-104300500D01*
X128991462Y-104281096D01*
X129038913Y-104271658D01*
X129175495Y-104215084D01*
X129298416Y-104132951D01*
X129402951Y-104028416D01*
X129485084Y-103905495D01*
X129541658Y-103768913D01*
X129555249Y-103700588D01*
X129570500Y-103623920D01*
X129570500Y-102776079D01*
X129570500Y-102776076D01*
X129541419Y-102629884D01*
X129539332Y-102625471D01*
X129519167Y-102576788D01*
X129485090Y-102494517D01*
X129485085Y-102494508D01*
X129485080Y-102494498D01*
X129402951Y-102371584D01*
X129402948Y-102371580D01*
X129402943Y-102371574D01*
X129298424Y-102267055D01*
X129298418Y-102267050D01*
X129298417Y-102267049D01*
X129175507Y-102184923D01*
X129175506Y-102184922D01*
X129175501Y-102184919D01*
X129175488Y-102184912D01*
X129175481Y-102184908D01*
X129038919Y-102128344D01*
X129038920Y-102128344D01*
X129038917Y-102128343D01*
X129038907Y-102128340D01*
X129038905Y-102128339D01*
X129038900Y-102128338D01*
X128893922Y-102099500D01*
X128893920Y-102099500D01*
X128893918Y-102099500D01*
X128746082Y-102099500D01*
X128746080Y-102099500D01*
X128746078Y-102099500D01*
X128601096Y-102128338D01*
X128601079Y-102128344D01*
X128464517Y-102184908D01*
X128464508Y-102184913D01*
X128464491Y-102184923D01*
X128341581Y-102267049D01*
X128341580Y-102267050D01*
X128341574Y-102267055D01*
X128237055Y-102371574D01*
X128237050Y-102371580D01*
X128237049Y-102371581D01*
X128154923Y-102494491D01*
X128154913Y-102494508D01*
X128154908Y-102494517D01*
X128098344Y-102631079D01*
X128098338Y-102631098D01*
X128069500Y-102776076D01*
X128069500Y-103579551D01*
X128064237Y-103597471D01*
X120930500Y-103597471D01*
X120930500Y-102776079D01*
X120930500Y-102776076D01*
X120901419Y-102629884D01*
X120899332Y-102625471D01*
X120879167Y-102576788D01*
X120845090Y-102494517D01*
X120845085Y-102494508D01*
X120845080Y-102494498D01*
X120762951Y-102371584D01*
X120762948Y-102371580D01*
X120762943Y-102371574D01*
X120658424Y-102267055D01*
X120658418Y-102267050D01*
X120658417Y-102267049D01*
X120535507Y-102184923D01*
X120535506Y-102184922D01*
X120535501Y-102184919D01*
X120535488Y-102184912D01*
X120535481Y-102184908D01*
X120398919Y-102128344D01*
X120398920Y-102128344D01*
X120398917Y-102128343D01*
X120398907Y-102128340D01*
X120398905Y-102128339D01*
X120398900Y-102128338D01*
X120253922Y-102099500D01*
X120253920Y-102099500D01*
X120253918Y-102099500D01*
X120106082Y-102099500D01*
X120106080Y-102099500D01*
X120106078Y-102099500D01*
X119961096Y-102128338D01*
X119961079Y-102128344D01*
X119824517Y-102184908D01*
X119824508Y-102184913D01*
X119824491Y-102184923D01*
X119701581Y-102267049D01*
X119701580Y-102267050D01*
X119701574Y-102267055D01*
X119597055Y-102371574D01*
X119597050Y-102371580D01*
X119597049Y-102371581D01*
X119514923Y-102494491D01*
X119514913Y-102494508D01*
X119514908Y-102494517D01*
X119458344Y-102631079D01*
X119458338Y-102631098D01*
X119429500Y-102776076D01*
X119429500Y-102776079D01*
X119429500Y-102776082D01*
X119429500Y-103623918D01*
X119429500Y-103623920D01*
X119429499Y-103623920D01*
X113751407Y-103623920D01*
X113716788Y-103598768D01*
X113716786Y-103598767D01*
X113562449Y-103520128D01*
X113411215Y-103470988D01*
X113411203Y-103470985D01*
X113397701Y-103466598D01*
X113397699Y-103466597D01*
X113397698Y-103466597D01*
X113383312Y-103464318D01*
X113383306Y-103464317D01*
X113293188Y-103450044D01*
X113266271Y-103445781D01*
X113250407Y-103443268D01*
X113226614Y-103439500D01*
X113226611Y-103439500D01*
X113053389Y-103439500D01*
X113053388Y-103439500D01*
X113013726Y-103445781D01*
X113013725Y-103445780D01*
X112882304Y-103466596D01*
X112717549Y-103520129D01*
X112563211Y-103598767D01*
X112528596Y-103623918D01*
X112528595Y-103623918D01*
X112434942Y-103691961D01*
X112427563Y-103696093D01*
X112296092Y-103827564D01*
X112291961Y-103834941D01*
X112256859Y-103883255D01*
X112256859Y-103883256D01*
X112198768Y-103963210D01*
X112120101Y-104117604D01*
X112119629Y-104118547D01*
X112118547Y-104122413D01*
X112093362Y-104199926D01*
X112093362Y-104199927D01*
X112066597Y-104282300D01*
X112066597Y-104282302D01*
X112063715Y-104300500D01*
X112039500Y-104453389D01*
X100500500Y-104453389D01*
X100500500Y-102874680D01*
X112039499Y-102874680D01*
X112054028Y-102947717D01*
X112054032Y-102947735D01*
X112054033Y-102947739D01*
X112057480Y-102953826D01*
X112060816Y-102957891D01*
X112109399Y-103030601D01*
X112192256Y-103085964D01*
X112192258Y-103085965D01*
X112192259Y-103085965D01*
X112192260Y-103085966D01*
X112192264Y-103085967D01*
X112192279Y-103085970D01*
X112192288Y-103085972D01*
X112237021Y-103094869D01*
X112257681Y-103098979D01*
X112260415Y-103099703D01*
X112265323Y-103100500D01*
X114014676Y-103100500D01*
X114018796Y-103100500D01*
X114026648Y-103098117D01*
X114087740Y-103085966D01*
X114170601Y-103030601D01*
X114225966Y-102947740D01*
X114240500Y-102874674D01*
X114240500Y-101913389D01*
X134899500Y-101913389D01*
X134899500Y-102086611D01*
X134906109Y-102128340D01*
X134922596Y-102232437D01*
X134923424Y-102237667D01*
X134923425Y-102237674D01*
X134926596Y-102257693D01*
X134926597Y-102257697D01*
X134926598Y-102257701D01*
X134980127Y-102422445D01*
X135058768Y-102576788D01*
X135160586Y-102716928D01*
X135283072Y-102839414D01*
X135423212Y-102941232D01*
X135577555Y-103019873D01*
X135742299Y-103073402D01*
X135913389Y-103100500D01*
X135913390Y-103100500D01*
X136086610Y-103100500D01*
X136086611Y-103100500D01*
X136257701Y-103073402D01*
X136422445Y-103019873D01*
X136576788Y-102941232D01*
X136716928Y-102839414D01*
X136839414Y-102716928D01*
X136941232Y-102576788D01*
X137019873Y-102422445D01*
X137073402Y-102257701D01*
X137100500Y-102086611D01*
X137100500Y-101913389D01*
X137073402Y-101742299D01*
X137019873Y-101577555D01*
X136941232Y-101423212D01*
X136839414Y-101283072D01*
X136716928Y-101160586D01*
X136576788Y-101058768D01*
X136564072Y-101052289D01*
X136422449Y-100980128D01*
X136271215Y-100930988D01*
X136271203Y-100930985D01*
X136257701Y-100926598D01*
X136257699Y-100926597D01*
X136257698Y-100926597D01*
X136243312Y-100924318D01*
X136243306Y-100924317D01*
X136153188Y-100910044D01*
X136126271Y-100905781D01*
X136110407Y-100903268D01*
X136086614Y-100899500D01*
X136086611Y-100899500D01*
X135913389Y-100899500D01*
X135913388Y-100899500D01*
X135873726Y-100905781D01*
X135873725Y-100905780D01*
X135742304Y-100926596D01*
X135577549Y-100980129D01*
X135423210Y-101058768D01*
X135343256Y-101116859D01*
X135343255Y-101116859D01*
X135294941Y-101151961D01*
X135287564Y-101156092D01*
X135156092Y-101287564D01*
X135151961Y-101294941D01*
X135116859Y-101343255D01*
X135116859Y-101343256D01*
X135058768Y-101423210D01*
X134980129Y-101577547D01*
X134926596Y-101742302D01*
X134921194Y-101776419D01*
X134921193Y-101776420D01*
X134899959Y-101910487D01*
X134899959Y-101910489D01*
X134899500Y-101913389D01*
X114240500Y-101913389D01*
X114240500Y-101125326D01*
X114240500Y-101125323D01*
X114240500Y-101125139D01*
X114240064Y-101123134D01*
X114225972Y-101052289D01*
X114225967Y-101052266D01*
X114225967Y-101052264D01*
X114225966Y-101052260D01*
X114225965Y-101052258D01*
X114225964Y-101052256D01*
X114170601Y-100969399D01*
X114097891Y-100920816D01*
X114093826Y-100917480D01*
X114087739Y-100914033D01*
X114087735Y-100914032D01*
X114087709Y-100914026D01*
X114014680Y-100899500D01*
X114014677Y-100899500D01*
X114014674Y-100899500D01*
X112265326Y-100899500D01*
X112265323Y-100899500D01*
X112265319Y-100899500D01*
X112192285Y-100914027D01*
X112192262Y-100914032D01*
X112192258Y-100914033D01*
X112109399Y-100969399D01*
X112054033Y-101052258D01*
X112054032Y-101052266D01*
X112054028Y-101052281D01*
X112039500Y-101125318D01*
X112039500Y-101125321D01*
X112039500Y-102874678D01*
X112039500Y-102874680D01*
X112039499Y-102874680D01*
X100500500Y-102874680D01*
X100500500Y-102624000D01*
X100520185Y-102556961D01*
X100572989Y-102511206D01*
X100624500Y-102500000D01*
X102500000Y-102500000D01*
X102500000Y-100624500D01*
X102519685Y-100557461D01*
X102572489Y-100511706D01*
X102624000Y-100500500D01*
X115931308Y-100500500D01*
X115966240Y-100505521D01*
G37*
%TD.AperFunction*%
%TD*%
%TA.AperFunction,Conductor*%
%TO.N,+5V*%
G36*
X133943039Y-108519685D02*
G01*
X133988794Y-108572489D01*
X134000000Y-108624000D01*
X134000000Y-113626000D01*
X133980315Y-113693039D01*
X133927511Y-113738794D01*
X133876000Y-113750000D01*
X133301362Y-113750000D01*
X133234323Y-113730315D01*
X133213681Y-113713681D01*
X130786319Y-111286319D01*
X130752834Y-111224996D01*
X130750000Y-111198638D01*
X130750000Y-109853856D01*
X131549500Y-109853856D01*
X131549500Y-109946144D01*
X131571761Y-110029225D01*
X131573387Y-110035290D01*
X131573388Y-110035293D01*
X131619526Y-110115205D01*
X131619529Y-110115209D01*
X131619531Y-110115212D01*
X131684788Y-110180469D01*
X131684791Y-110180470D01*
X131684794Y-110180473D01*
X131764706Y-110226611D01*
X131764707Y-110226611D01*
X131764712Y-110226614D01*
X131853856Y-110250500D01*
X131925500Y-110250500D01*
X131992539Y-110270185D01*
X132038294Y-110322989D01*
X132049500Y-110374500D01*
X132049500Y-110446143D01*
X132073387Y-110535290D01*
X132073388Y-110535293D01*
X132119526Y-110615205D01*
X132119529Y-110615209D01*
X132119531Y-110615212D01*
X132184788Y-110680469D01*
X132184791Y-110680470D01*
X132184794Y-110680473D01*
X132264706Y-110726611D01*
X132264707Y-110726611D01*
X132264712Y-110726614D01*
X132353856Y-110750500D01*
X132353858Y-110750500D01*
X132446142Y-110750500D01*
X132446144Y-110750500D01*
X132535288Y-110726614D01*
X132615212Y-110680469D01*
X132680469Y-110615212D01*
X132726614Y-110535288D01*
X132750500Y-110446144D01*
X132750500Y-110374500D01*
X132770185Y-110307461D01*
X132822989Y-110261706D01*
X132874500Y-110250500D01*
X132946142Y-110250500D01*
X132946144Y-110250500D01*
X133035288Y-110226614D01*
X133115212Y-110180469D01*
X133180469Y-110115212D01*
X133226614Y-110035288D01*
X133250500Y-109946144D01*
X133250500Y-109853856D01*
X133226614Y-109764712D01*
X133226611Y-109764706D01*
X133180473Y-109684794D01*
X133180470Y-109684791D01*
X133180469Y-109684788D01*
X133115212Y-109619531D01*
X133115209Y-109619529D01*
X133115205Y-109619526D01*
X133035293Y-109573388D01*
X133035290Y-109573387D01*
X133035289Y-109573386D01*
X133035288Y-109573386D01*
X132946144Y-109549500D01*
X132946143Y-109549500D01*
X132874500Y-109549500D01*
X132807461Y-109529815D01*
X132761706Y-109477011D01*
X132750500Y-109425500D01*
X132750500Y-109353858D01*
X132750500Y-109353856D01*
X132726614Y-109264712D01*
X132726611Y-109264706D01*
X132680473Y-109184794D01*
X132680470Y-109184791D01*
X132680469Y-109184788D01*
X132615212Y-109119531D01*
X132615209Y-109119529D01*
X132615205Y-109119526D01*
X132535293Y-109073388D01*
X132535290Y-109073387D01*
X132535289Y-109073386D01*
X132535288Y-109073386D01*
X132446144Y-109049500D01*
X132353856Y-109049500D01*
X132264712Y-109073386D01*
X132264711Y-109073386D01*
X132264709Y-109073387D01*
X132264706Y-109073388D01*
X132184794Y-109119526D01*
X132184785Y-109119533D01*
X132119533Y-109184785D01*
X132119526Y-109184794D01*
X132073388Y-109264706D01*
X132073387Y-109264709D01*
X132049500Y-109353856D01*
X132049500Y-109425500D01*
X132029815Y-109492539D01*
X131977011Y-109538294D01*
X131925500Y-109549500D01*
X131853856Y-109549500D01*
X131764712Y-109573386D01*
X131764711Y-109573386D01*
X131764709Y-109573387D01*
X131764706Y-109573388D01*
X131684794Y-109619526D01*
X131684785Y-109619533D01*
X131619533Y-109684785D01*
X131619526Y-109684794D01*
X131573388Y-109764706D01*
X131573387Y-109764709D01*
X131573386Y-109764711D01*
X131573386Y-109764712D01*
X131549500Y-109853856D01*
X130750000Y-109853856D01*
X130750000Y-108624000D01*
X130769685Y-108556961D01*
X130822489Y-108511206D01*
X130874000Y-108500000D01*
X133876000Y-108500000D01*
X133943039Y-108519685D01*
G37*
%TD.AperFunction*%
%TD*%
M02*
