%TF.GenerationSoftware,KiCad,Pcbnew,10.0.0*%
%TF.CreationDate,2026-05-17T03:32:48+02:00*%
%TF.ProjectId,motordriver,6d6f746f-7264-4726-9976-65722e6b6963,rev?*%
%TF.SameCoordinates,Original*%
%TF.FileFunction,Copper,L1,Top*%
%TF.FilePolarity,Positive*%
%FSLAX46Y46*%
G04 Gerber Fmt 4.6, Leading zero omitted, Abs format (unit mm)*
G04 Created by KiCad (PCBNEW 10.0.0) date 2026-05-17 03:32:48*
%MOMM*%
%LPD*%
G01*
G04 APERTURE LIST*
G04 Aperture macros list*
%AMRoundRect*
0 Rectangle with rounded corners*
0 $1 Rounding radius*
0 $2 $3 $4 $5 $6 $7 $8 $9 X,Y pos of 4 corners*
0 Add a 4 corners polygon primitive as box body*
4,1,4,$2,$3,$4,$5,$6,$7,$8,$9,$2,$3,0*
0 Add four circle primitives for the rounded corners*
1,1,$1+$1,$2,$3*
1,1,$1+$1,$4,$5*
1,1,$1+$1,$6,$7*
1,1,$1+$1,$8,$9*
0 Add four rect primitives between the rounded corners*
20,1,$1+$1,$2,$3,$4,$5,0*
20,1,$1+$1,$4,$5,$6,$7,0*
20,1,$1+$1,$6,$7,$8,$9,0*
20,1,$1+$1,$8,$9,$2,$3,0*%
G04 Aperture macros list end*
%TA.AperFunction,ComponentPad*%
%ADD10R,1.700000X1.700000*%
%TD*%
%TA.AperFunction,ComponentPad*%
%ADD11C,1.700000*%
%TD*%
%TA.AperFunction,SMDPad,CuDef*%
%ADD12RoundRect,0.250000X-0.325000X-0.650000X0.325000X-0.650000X0.325000X0.650000X-0.325000X0.650000X0*%
%TD*%
%TA.AperFunction,SMDPad,CuDef*%
%ADD13RoundRect,0.250000X-0.625000X0.312500X-0.625000X-0.312500X0.625000X-0.312500X0.625000X0.312500X0*%
%TD*%
%TA.AperFunction,SMDPad,CuDef*%
%ADD14RoundRect,0.250000X-0.475000X0.250000X-0.475000X-0.250000X0.475000X-0.250000X0.475000X0.250000X0*%
%TD*%
%TA.AperFunction,SMDPad,CuDef*%
%ADD15RoundRect,0.175000X0.175000X0.625000X-0.175000X0.625000X-0.175000X-0.625000X0.175000X-0.625000X0*%
%TD*%
%TA.AperFunction,SMDPad,CuDef*%
%ADD16RoundRect,0.200000X0.200000X0.600000X-0.200000X0.600000X-0.200000X-0.600000X0.200000X-0.600000X0*%
%TD*%
%TA.AperFunction,SMDPad,CuDef*%
%ADD17RoundRect,0.225000X0.225000X0.575000X-0.225000X0.575000X-0.225000X-0.575000X0.225000X-0.575000X0*%
%TD*%
%TA.AperFunction,ComponentPad*%
%ADD18O,1.000000X1.700000*%
%TD*%
%TA.AperFunction,SMDPad,CuDef*%
%ADD19RoundRect,0.250000X0.325000X0.650000X-0.325000X0.650000X-0.325000X-0.650000X0.325000X-0.650000X0*%
%TD*%
%TA.AperFunction,SMDPad,CuDef*%
%ADD20RoundRect,0.250000X-0.312500X-0.625000X0.312500X-0.625000X0.312500X0.625000X-0.312500X0.625000X0*%
%TD*%
%TA.AperFunction,SMDPad,CuDef*%
%ADD21RoundRect,0.250000X0.625000X-0.312500X0.625000X0.312500X-0.625000X0.312500X-0.625000X-0.312500X0*%
%TD*%
%TA.AperFunction,SMDPad,CuDef*%
%ADD22RoundRect,0.200000X0.275000X-0.200000X0.275000X0.200000X-0.275000X0.200000X-0.275000X-0.200000X0*%
%TD*%
%TA.AperFunction,SMDPad,CuDef*%
%ADD23RoundRect,0.250000X0.312500X0.625000X-0.312500X0.625000X-0.312500X-0.625000X0.312500X-0.625000X0*%
%TD*%
%TA.AperFunction,SMDPad,CuDef*%
%ADD24RoundRect,0.225000X-0.250000X0.225000X-0.250000X-0.225000X0.250000X-0.225000X0.250000X0.225000X0*%
%TD*%
%TA.AperFunction,SMDPad,CuDef*%
%ADD25RoundRect,0.100000X-0.687500X-0.100000X0.687500X-0.100000X0.687500X0.100000X-0.687500X0.100000X0*%
%TD*%
%TA.AperFunction,HeatsinkPad*%
%ADD26C,0.600000*%
%TD*%
%TA.AperFunction,HeatsinkPad*%
%ADD27R,3.400000X5.000000*%
%TD*%
%TA.AperFunction,ViaPad*%
%ADD28C,0.900000*%
%TD*%
%TA.AperFunction,Conductor*%
%ADD29C,0.500000*%
%TD*%
%TA.AperFunction,Conductor*%
%ADD30C,0.800000*%
%TD*%
%TA.AperFunction,Conductor*%
%ADD31C,0.400000*%
%TD*%
%TA.AperFunction,Conductor*%
%ADD32C,0.300000*%
%TD*%
%TA.AperFunction,Conductor*%
%ADD33C,0.250000*%
%TD*%
G04 APERTURE END LIST*
D10*
%TO.P,J2,1,Pin_1_1*%
%TO.N,+5V*%
X136000000Y-119780000D03*
D11*
%TO.P,J2,2,Pin_2_2*%
%TO.N,GND*%
X136000000Y-117240000D03*
%TO.P,J2,3,Pin_3_3*%
%TO.N,/MotorR1*%
X136000000Y-114700000D03*
%TO.P,J2,4,Pin_4_4*%
%TO.N,/MotorR2*%
X136000000Y-112160000D03*
%TO.P,J2,5,Pin_5_5*%
%TO.N,/MotorL1*%
X136000000Y-109620000D03*
%TO.P,J2,6,Pin_6_6*%
%TO.N,/MotorL2*%
X136000000Y-107080000D03*
%TO.P,J2,7,Pin_7_7*%
%TO.N,/Servo1*%
X136000000Y-104540000D03*
%TO.P,J2,8,Pin_8_8*%
%TO.N,unconnected-(J2-Pin_8-Pad8)*%
X136000000Y-102000000D03*
%TD*%
D12*
%TO.P,C4,1*%
%TO.N,GND*%
X130171600Y-120396200D03*
%TO.P,C4,2*%
%TO.N,+5V*%
X133121600Y-120396200D03*
%TD*%
D13*
%TO.P,R2,1*%
%TO.N,GND*%
X116256000Y-112101100D03*
%TO.P,R2,2*%
%TO.N,Net-(U2-AISEN)*%
X116256000Y-115026100D03*
%TD*%
D14*
%TO.P,C1,1*%
%TO.N,GND*%
X129413200Y-112603400D03*
%TO.P,C1,2*%
%TO.N,Net-(U2-VINT)*%
X129413200Y-114503400D03*
%TD*%
D15*
%TO.P,J1,A5,CC1_A5*%
%TO.N,Net-(J1-CC1)*%
X125000000Y-107180000D03*
D16*
%TO.P,J1,A9,VBUS_A9*%
%TO.N,+5V*%
X122980000Y-107180000D03*
D17*
%TO.P,J1,A12,GND_A12*%
%TO.N,GND*%
X121750000Y-107180000D03*
D15*
%TO.P,J1,B5,CC2_B5*%
%TO.N,Net-(J1-CC2)*%
X124000000Y-107180000D03*
D16*
%TO.P,J1,B9,VBUS_B9*%
%TO.N,+5V*%
X126020000Y-107180000D03*
D17*
%TO.P,J1,B12,GND_B12*%
%TO.N,GND*%
X127250000Y-107180000D03*
D18*
%TO.P,J1,SH,SHIELD_SH*%
%TO.N,unconnected-(J1-SHIELD-PadSH)*%
X128820000Y-107000000D03*
X128820000Y-103200000D03*
X120180000Y-107000000D03*
X120180000Y-103200000D03*
%TD*%
D10*
%TO.P,J4,1,Pin_1_1*%
%TO.N,unconnected-(J4-Pin_1-Pad1)*%
X102460000Y-116600000D03*
D11*
%TO.P,J4,2,Pin_2_2*%
%TO.N,/Servo2*%
X102460000Y-114060000D03*
%TO.P,J4,3,Pin_3_3*%
%TO.N,Net-(J4-Pin_3)*%
X105000000Y-116600000D03*
%TO.P,J4,4,Pin_4_4*%
%TO.N,Net-(J4-Pin_4)*%
X105000000Y-114060000D03*
%TO.P,J4,5,Pin_5_5*%
%TO.N,Net-(J4-Pin_5)*%
X107540000Y-116600000D03*
%TO.P,J4,6,Pin_6_6*%
%TO.N,GND*%
X107540000Y-114060000D03*
%TD*%
D19*
%TO.P,C5,1*%
%TO.N,Net-(J4-Pin_4)*%
X104982000Y-120370800D03*
%TO.P,C5,2*%
%TO.N,GND*%
X102032000Y-120370800D03*
%TD*%
D10*
%TO.P,J5,1,Pin_1_1*%
%TO.N,unconnected-(J5-Pin_1-Pad1)*%
X141554000Y-116598000D03*
D11*
%TO.P,J5,2,Pin_2_2*%
%TO.N,/Servo1*%
X141554000Y-114058000D03*
%TO.P,J5,3,Pin_3_3*%
%TO.N,Net-(J5-Pin_3)*%
X144094000Y-116598000D03*
%TO.P,J5,4,Pin_4_4*%
%TO.N,Net-(J5-Pin_4)*%
X144094000Y-114058000D03*
%TO.P,J5,5,Pin_5_5*%
%TO.N,Net-(J5-Pin_5)*%
X146634000Y-116598000D03*
%TO.P,J5,6,Pin_6_6*%
%TO.N,GND*%
X146634000Y-114058000D03*
%TD*%
D20*
%TO.P,R5,1*%
%TO.N,Net-(J4-Pin_4)*%
X106817900Y-120370800D03*
%TO.P,R5,2*%
%TO.N,+5V*%
X109742900Y-120370800D03*
%TD*%
D21*
%TO.P,R3,1*%
%TO.N,GND*%
X116256000Y-119902900D03*
%TO.P,R3,2*%
%TO.N,Net-(U2-BISEN)*%
X116256000Y-116977900D03*
%TD*%
D22*
%TO.P,R6,1*%
%TO.N,Net-(J1-CC2)*%
X116000000Y-105075000D03*
%TO.P,R6,2*%
%TO.N,GND*%
X116000000Y-103425000D03*
%TD*%
D23*
%TO.P,R1,1*%
%TO.N,Net-(U2-VM)*%
X121426900Y-110490200D03*
%TO.P,R1,2*%
%TO.N,+5V*%
X118501900Y-110490200D03*
%TD*%
D12*
%TO.P,C3,1*%
%TO.N,Net-(U2-VM)*%
X123391600Y-110490200D03*
%TO.P,C3,2*%
%TO.N,GND*%
X126341600Y-110490200D03*
%TD*%
D20*
%TO.P,R4,1*%
%TO.N,+5V*%
X138781800Y-119812000D03*
%TO.P,R4,2*%
%TO.N,Net-(J5-Pin_4)*%
X141706800Y-119812000D03*
%TD*%
D22*
%TO.P,R7,1*%
%TO.N,Net-(J1-CC1)*%
X117750000Y-104325000D03*
%TO.P,R7,2*%
%TO.N,GND*%
X117750000Y-102675000D03*
%TD*%
D10*
%TO.P,J3,1,Pin_1_1*%
%TO.N,GND*%
X113000000Y-102000000D03*
D11*
%TO.P,J3,2,Pin_2_2*%
%TO.N,unconnected-(J3-Pin_2-Pad2)*%
X113000000Y-104540000D03*
%TO.P,J3,3,Pin_3_3*%
%TO.N,/Servo2*%
X113000000Y-107080000D03*
%TO.P,J3,4,Pin_4_4*%
%TO.N,unconnected-(J3-Pin_4-Pad4)*%
X113000000Y-109620000D03*
%TO.P,J3,5,Pin_5_5*%
%TO.N,GND*%
X113000000Y-112160000D03*
%TO.P,J3,6,Pin_6_6*%
%TO.N,unconnected-(J3-Pin_6-Pad6)*%
X113000000Y-114700000D03*
%TO.P,J3,7,Pin_7_7*%
%TO.N,unconnected-(J3-Pin_7-Pad7)*%
X113000000Y-117240000D03*
%TO.P,J3,8,Pin_8_8*%
%TO.N,unconnected-(J3-Pin_8-Pad8)*%
X113000000Y-119780000D03*
%TD*%
D24*
%TO.P,C2,1*%
%TO.N,Net-(U2-VM)*%
X129159200Y-116077600D03*
%TO.P,C2,2*%
%TO.N,Net-(U2-VCP)*%
X129159200Y-117627600D03*
%TD*%
D12*
%TO.P,C6,1*%
%TO.N,Net-(J5-Pin_4)*%
X143582800Y-119812000D03*
%TO.P,C6,2*%
%TO.N,GND*%
X146532800Y-119812000D03*
%TD*%
D25*
%TO.P,U2,1,~{SLEEP}_1*%
%TO.N,Net-(U2-VM)*%
X121251500Y-113705000D03*
%TO.P,U2,2,AOUT1_2*%
%TO.N,Net-(J4-Pin_3)*%
X121251500Y-114355000D03*
%TO.P,U2,3,AISEN_3*%
%TO.N,Net-(U2-AISEN)*%
X121251500Y-115005000D03*
%TO.P,U2,4,AOUT2_4*%
%TO.N,Net-(J4-Pin_5)*%
X121251500Y-115655000D03*
%TO.P,U2,5,BOUT2_5*%
%TO.N,Net-(J5-Pin_5)*%
X121251500Y-116305000D03*
%TO.P,U2,6,BISEN_6*%
%TO.N,Net-(U2-BISEN)*%
X121251500Y-116955000D03*
%TO.P,U2,7,BOUT1_7*%
%TO.N,Net-(J5-Pin_3)*%
X121251500Y-117605000D03*
%TO.P,U2,8,~{FAULT}_8*%
%TO.N,unconnected-(U2-~{FAULT}-Pad8)*%
X121251500Y-118255000D03*
%TO.P,U2,9,BIN1_9*%
%TO.N,/MotorL1*%
X126976500Y-118255000D03*
%TO.P,U2,10,BIN2_10*%
%TO.N,/MotorL2*%
X126976500Y-117605000D03*
%TO.P,U2,11,VCP_11*%
%TO.N,Net-(U2-VCP)*%
X126976500Y-116955000D03*
%TO.P,U2,12,VM_12*%
%TO.N,Net-(U2-VM)*%
X126976500Y-116305000D03*
%TO.P,U2,13,GND_13*%
%TO.N,GND*%
X126976500Y-115655000D03*
%TO.P,U2,14,VINT_14*%
%TO.N,Net-(U2-VINT)*%
X126976500Y-115005000D03*
%TO.P,U2,15,AIN2_15*%
%TO.N,/MotorR2*%
X126976500Y-114355000D03*
%TO.P,U2,16,AIN1_16*%
%TO.N,/MotorR1*%
X126976500Y-113705000D03*
D26*
%TO.P,U2,17,GND_17*%
%TO.N,GND*%
X123114000Y-114180000D03*
X123114000Y-115380000D03*
X123114000Y-116580000D03*
X123114000Y-117780000D03*
X124114000Y-114180000D03*
X124114000Y-115380000D03*
D27*
X124114000Y-115980000D03*
D26*
X124114000Y-116580000D03*
X124114000Y-117780000D03*
X125114000Y-114180000D03*
X125114000Y-115380000D03*
X125114000Y-116580000D03*
X125114000Y-117780000D03*
%TD*%
D28*
%TO.N,+5V*%
X110261600Y-112192000D03*
X132969200Y-111633200D03*
X110261600Y-117729200D03*
X131750000Y-111607800D03*
%TO.N,GND*%
X121750000Y-105650000D03*
X129750000Y-110650000D03*
X137750000Y-117850000D03*
X127750000Y-105250000D03*
X116300000Y-106950000D03*
X115500000Y-101850000D03*
X126500000Y-105250000D03*
X128500000Y-110650000D03*
X137550000Y-103300000D03*
X116250000Y-110250000D03*
X137750000Y-116400000D03*
X102000000Y-118450000D03*
X116250000Y-118400000D03*
X128550000Y-120000000D03*
X145650000Y-121500000D03*
X128550000Y-121050000D03*
%TO.N,/MotorR1*%
X132473800Y-115265400D03*
X127559000Y-112598400D03*
%TO.N,/MotorL1*%
X138227000Y-113919200D03*
%TO.N,Net-(J5-Pin_5)*%
X118491200Y-116560800D03*
X118491200Y-118415000D03*
%TO.N,Net-(U2-VM)*%
X125806400Y-112573000D03*
X130632400Y-116078200D03*
%TD*%
%TO.N,+5V*%
D29*
X131762700Y-111569700D02*
X131762700Y-110502900D01*
X118501900Y-110490200D02*
X118501900Y-108646700D01*
X113792200Y-108356600D02*
X114071600Y-108636000D01*
D30*
X130059800Y-108800000D02*
X131762700Y-110502900D01*
D29*
X126020000Y-108770000D02*
X126050000Y-108800000D01*
X110261600Y-112192000D02*
X110261600Y-109499600D01*
X132867600Y-111607800D02*
X131762700Y-110502900D01*
X109742900Y-119111500D02*
X110261600Y-118592800D01*
X110261600Y-118592800D02*
X110261600Y-117729200D01*
X134264600Y-119761200D02*
X134283400Y-119780000D01*
D31*
X111404600Y-108356600D02*
X113792200Y-108356600D01*
D29*
X132969200Y-111633200D02*
X132943800Y-111607800D01*
X122980000Y-107180000D02*
X122980000Y-108730000D01*
X132943800Y-111607800D02*
X132867600Y-111607800D01*
X132969200Y-111633200D02*
X132893000Y-111633200D01*
X126020000Y-107180000D02*
X126020000Y-108770000D01*
X109742900Y-120370800D02*
X109742900Y-119111500D01*
X136000000Y-119780000D02*
X138749800Y-119780000D01*
X122980000Y-108730000D02*
X123050000Y-108800000D01*
X114071600Y-108636000D02*
X118491200Y-108636000D01*
X134283400Y-119780000D02*
X136000000Y-119780000D01*
D30*
X126050000Y-108800000D02*
X130059800Y-108800000D01*
D29*
X138749800Y-119780000D02*
X138781800Y-119812000D01*
X131750000Y-111582400D02*
X131762700Y-111569700D01*
X133756600Y-119761200D02*
X134264600Y-119761200D01*
X110261600Y-109499600D02*
X111379200Y-108382000D01*
X131750000Y-111607800D02*
X131750000Y-111582400D01*
D30*
X118655200Y-108800000D02*
X123050000Y-108800000D01*
X123050000Y-108800000D02*
X126050000Y-108800000D01*
D29*
X118501900Y-108646700D02*
X118491200Y-108636000D01*
D30*
X118501900Y-108646700D02*
X118655200Y-108800000D01*
D31*
X111379200Y-108382000D02*
X111404600Y-108356600D01*
D29*
X133121600Y-120396200D02*
X133756600Y-119761200D01*
%TO.N,GND*%
X121750000Y-107180000D02*
X121750000Y-105650000D01*
X132864000Y-117703800D02*
X130171600Y-120396200D01*
X127250000Y-107180000D02*
X127250000Y-105750000D01*
D31*
X146532800Y-119812000D02*
X145344000Y-118623200D01*
D29*
X136000000Y-117240000D02*
X133991800Y-117240000D01*
X133991800Y-117240000D02*
X133528000Y-117703800D01*
D32*
X126976500Y-115655000D02*
X124439000Y-115655000D01*
D29*
X133528000Y-117703800D02*
X132864000Y-117703800D01*
D31*
X145344000Y-118623200D02*
X145344000Y-115348000D01*
D29*
X127250000Y-105750000D02*
X127750000Y-105250000D01*
D31*
X145344000Y-115348000D02*
X146634000Y-114058000D01*
D32*
X124439000Y-115655000D02*
X124114000Y-115980000D01*
%TO.N,/MotorR1*%
X126976500Y-113705000D02*
X127773200Y-113705000D01*
X133001200Y-114700000D02*
X132435800Y-115265400D01*
X136000000Y-114700000D02*
X133001200Y-114700000D01*
X127559000Y-112623800D02*
X127559000Y-112598400D01*
X127838400Y-112903200D02*
X127559000Y-112623800D01*
X127838400Y-113639800D02*
X127838400Y-112903200D01*
X132435800Y-115265400D02*
X132473800Y-115265400D01*
X127773200Y-113705000D02*
X127838400Y-113639800D01*
%TO.N,/MotorR2*%
X133426400Y-113563600D02*
X134830000Y-112160000D01*
X126976500Y-114355000D02*
X127981144Y-114355000D01*
X128524200Y-113563600D02*
X133426400Y-113563600D01*
X134830000Y-112160000D02*
X136000000Y-112160000D01*
X127981144Y-114355000D02*
X128371800Y-113964344D01*
X128371800Y-113716000D02*
X128524200Y-113563600D01*
X128371800Y-113964344D02*
X128371800Y-113716000D01*
%TO.N,/MotorL1*%
X130200600Y-118948400D02*
X133172400Y-115976600D01*
X128448000Y-118948400D02*
X130200600Y-118948400D01*
X127754600Y-118255000D02*
X128448000Y-118948400D01*
X138227000Y-114224000D02*
X138227000Y-113919200D01*
X133172400Y-115976600D02*
X136474400Y-115976600D01*
X136474400Y-115976600D02*
X138227000Y-114224000D01*
X126976500Y-118255000D02*
X127754600Y-118255000D01*
%TO.N,/MotorL2*%
X136703000Y-113436600D02*
X137515800Y-112623800D01*
X126976500Y-117605000D02*
X127842192Y-117605000D01*
X137515800Y-108595800D02*
X136000000Y-107080000D01*
X129959400Y-118427600D02*
X131673800Y-116713200D01*
X135001200Y-113436600D02*
X136703000Y-113436600D01*
X131673800Y-114681200D02*
X132207200Y-114147800D01*
X127842192Y-117605000D02*
X128664792Y-118427600D01*
X131673800Y-116713200D02*
X131673800Y-114681200D01*
X134290000Y-114147800D02*
X135001200Y-113436600D01*
X137515800Y-112623800D02*
X137515800Y-108595800D01*
X128664792Y-118427600D02*
X129959400Y-118427600D01*
X132207200Y-114147800D02*
X134290000Y-114147800D01*
%TO.N,/Servo1*%
X137356800Y-104540000D02*
X136000000Y-104540000D01*
X138455600Y-110959600D02*
X138455600Y-105638800D01*
X141554000Y-114058000D02*
X138455600Y-110959600D01*
X138455600Y-105638800D02*
X137356800Y-104540000D01*
%TO.N,Net-(U2-AISEN)*%
X116277100Y-115005000D02*
X116256000Y-115026100D01*
X121251500Y-115005000D02*
X116277100Y-115005000D01*
%TO.N,Net-(U2-VINT)*%
X129006800Y-114503400D02*
X129413200Y-114503400D01*
X128505200Y-115005000D02*
X129006800Y-114503400D01*
X126976500Y-115005000D02*
X128505200Y-115005000D01*
%TO.N,Net-(J1-CC1)*%
D33*
X125000000Y-107180000D02*
X125000000Y-106380000D01*
X117750000Y-104325000D02*
X117800000Y-104375000D01*
X117800000Y-104375000D02*
X122995000Y-104375000D01*
X125000000Y-106380000D02*
X122995000Y-104375000D01*
%TO.N,Net-(J1-CC2)*%
X122470000Y-104850000D02*
X124000000Y-106380000D01*
X118900000Y-104850000D02*
X122470000Y-104850000D01*
X116000000Y-105075000D02*
X118675000Y-105075000D01*
X124000000Y-106380000D02*
X124000000Y-107180000D01*
X118675000Y-105075000D02*
X118900000Y-104850000D01*
%TO.N,/Servo2*%
D32*
X109416000Y-107080000D02*
X102438000Y-114058000D01*
X113000000Y-107080000D02*
X109416000Y-107080000D01*
%TO.N,Net-(J4-Pin_3)*%
D29*
X109550400Y-115341600D02*
X108585200Y-115341600D01*
D32*
X118215800Y-114355000D02*
X117322800Y-113462000D01*
D29*
X104978000Y-116598000D02*
X106234400Y-115341600D01*
X111430000Y-113462000D02*
X109550400Y-115341600D01*
D32*
X121251500Y-114355000D02*
X118215800Y-114355000D01*
X106234400Y-115341600D02*
X108585200Y-115341600D01*
X117322800Y-113462000D02*
X111430000Y-113462000D01*
%TO.N,Net-(J4-Pin_4)*%
D31*
X104982000Y-118894000D02*
X104982000Y-120370800D01*
X105029200Y-118846800D02*
X104982000Y-118894000D01*
X104978000Y-114058000D02*
X103728000Y-115308000D01*
X106817900Y-120370800D02*
X104982000Y-120370800D01*
X103728000Y-117545600D02*
X105029200Y-118846800D01*
X103728000Y-115308000D02*
X103728000Y-117545600D01*
%TO.N,Net-(J4-Pin_5)*%
D32*
X117771400Y-115655000D02*
X117424400Y-116002000D01*
X117424400Y-116002000D02*
X111074400Y-116002000D01*
D29*
X110478400Y-116598000D02*
X111074400Y-116002000D01*
D32*
X121251500Y-115655000D02*
X117771400Y-115655000D01*
D29*
X107518000Y-116598000D02*
X110478400Y-116598000D01*
%TO.N,Net-(J5-Pin_3)*%
X119812000Y-120574000D02*
X121638000Y-122400000D01*
X144046400Y-122400000D02*
X144577000Y-121869400D01*
D31*
X144577000Y-117081000D02*
X144577000Y-121869400D01*
D32*
X120088600Y-117605000D02*
X119812000Y-117881600D01*
D29*
X121638000Y-122400000D02*
X144046400Y-122400000D01*
D32*
X121251500Y-117605000D02*
X120088600Y-117605000D01*
D31*
X144094000Y-116598000D02*
X144577000Y-117081000D01*
D29*
X119812000Y-117881600D02*
X119812000Y-120574000D01*
%TO.N,Net-(J5-Pin_4)*%
X143582800Y-118284400D02*
X142926000Y-117627600D01*
X143582800Y-119812000D02*
X143582800Y-118284400D01*
D31*
X142844000Y-117545600D02*
X142844000Y-115308000D01*
D29*
X141706800Y-119812000D02*
X143582800Y-119812000D01*
D31*
X142926000Y-117627600D02*
X142844000Y-117545600D01*
X142844000Y-115308000D02*
X144094000Y-114058000D01*
%TO.N,Net-(J5-Pin_5)*%
X119583400Y-116306800D02*
X119304000Y-116306800D01*
D29*
X118491200Y-120777200D02*
X120832200Y-123118200D01*
X147701200Y-117665200D02*
X146634000Y-116598000D01*
X147701200Y-121285200D02*
X147701200Y-117665200D01*
X118719800Y-116332200D02*
X118491200Y-116560800D01*
X145868200Y-123118200D02*
X147701200Y-121285200D01*
D32*
X121251500Y-116305000D02*
X119585200Y-116305000D01*
X119585200Y-116305000D02*
X119583400Y-116306800D01*
D29*
X118491200Y-118415000D02*
X118491200Y-120777200D01*
X119278600Y-116332200D02*
X118719800Y-116332200D01*
D31*
X119304000Y-116306800D02*
X119278600Y-116332200D01*
D29*
X120832200Y-123118200D02*
X145868200Y-123118200D01*
%TO.N,Net-(U2-BISEN)*%
D32*
X119798800Y-116955000D02*
X119329400Y-117424400D01*
X119329400Y-117424400D02*
X117703800Y-117424400D01*
X117703800Y-117424400D02*
X117257300Y-116977900D01*
X117257300Y-116977900D02*
X116256000Y-116977900D01*
X121251500Y-116955000D02*
X119798800Y-116955000D01*
X116278900Y-116955000D02*
X116256000Y-116977900D01*
%TO.N,Net-(U2-VM)*%
X126976500Y-116305000D02*
X128931800Y-116305000D01*
D29*
X129159200Y-116077600D02*
X129159800Y-116078200D01*
X123391600Y-111504400D02*
X123391600Y-110490200D01*
X129159800Y-116078200D02*
X130632400Y-116078200D01*
D32*
X121251500Y-113705000D02*
X120156600Y-113705000D01*
X120156600Y-113705000D02*
X119964400Y-113512800D01*
X120066000Y-112573000D02*
X124460200Y-112573000D01*
D29*
X124460200Y-112573000D02*
X123391600Y-111504400D01*
X125806400Y-112573000D02*
X124460200Y-112573000D01*
X121426900Y-110490200D02*
X123391600Y-110490200D01*
D32*
X119964400Y-113512800D02*
X119964400Y-112674600D01*
X119964400Y-112674600D02*
X120066000Y-112573000D01*
X128931800Y-116305000D02*
X129159200Y-116077600D01*
%TO.N,Net-(U2-VCP)*%
X128486600Y-116955000D02*
X129159200Y-117627600D01*
X126976500Y-116955000D02*
X128486600Y-116955000D01*
%TD*%
%TA.AperFunction,Conductor*%
%TO.N,GND*%
G36*
X128419305Y-115410523D02*
G01*
X128431484Y-115414099D01*
X128490262Y-115451873D01*
X128519288Y-115515428D01*
X128511111Y-115580529D01*
X128507429Y-115589418D01*
X128492137Y-115616272D01*
X128487577Y-115622362D01*
X128487571Y-115622374D01*
X128464309Y-115684740D01*
X128464310Y-115684741D01*
X128439787Y-115750487D01*
X128437040Y-115776036D01*
X128428313Y-115810226D01*
X128422333Y-115824664D01*
X128378494Y-115879068D01*
X128378481Y-115879077D01*
X128374106Y-115882114D01*
X128323314Y-115902641D01*
X128322311Y-115902804D01*
X128321779Y-115902890D01*
X128301866Y-115904500D01*
X128208323Y-115904500D01*
X128173382Y-115899475D01*
X128158383Y-115895070D01*
X128099619Y-115857306D01*
X128095381Y-115852416D01*
X128076865Y-115823497D01*
X128076395Y-115822946D01*
X128061068Y-115805000D01*
X128061067Y-115805000D01*
X126124000Y-115805000D01*
X126056961Y-115785315D01*
X126011206Y-115732511D01*
X126000000Y-115681000D01*
X126000000Y-115629000D01*
X126019685Y-115561961D01*
X126072489Y-115516206D01*
X126124000Y-115505000D01*
X128061065Y-115505000D01*
X128061066Y-115505000D01*
X128075941Y-115487583D01*
X128075941Y-115487580D01*
X128077161Y-115486152D01*
X128093612Y-115459837D01*
X128098523Y-115454004D01*
X128156749Y-115415398D01*
X128170872Y-115411031D01*
X128207494Y-115405500D01*
X128384371Y-115405500D01*
X128419305Y-115410523D01*
G37*
%TD.AperFunction*%
%TA.AperFunction,Conductor*%
G36*
X111910063Y-107485523D02*
G01*
X111926441Y-107490332D01*
X111983456Y-107526115D01*
X111992388Y-107535987D01*
X111997851Y-107547302D01*
X111998627Y-107546850D01*
X112029562Y-107599905D01*
X112046325Y-107667734D01*
X112023756Y-107733858D01*
X111969020Y-107777283D01*
X111899495Y-107784223D01*
X111888109Y-107781516D01*
X111845488Y-107769235D01*
X111626471Y-107883730D01*
X111593187Y-107895463D01*
X111566414Y-107900782D01*
X111510159Y-107898934D01*
X111483421Y-107891770D01*
X111483420Y-107891769D01*
X111445093Y-107881500D01*
X111445092Y-107881500D01*
X111313307Y-107881500D01*
X111186012Y-107915608D01*
X111186011Y-107915608D01*
X111186009Y-107915609D01*
X111186006Y-107915610D01*
X111071896Y-107981493D01*
X111071882Y-107981502D01*
X111071877Y-107981506D01*
X109861106Y-109192277D01*
X109861102Y-109192282D01*
X109861093Y-109192296D01*
X109795210Y-109306406D01*
X109795209Y-109306408D01*
X109761100Y-109433708D01*
X109761100Y-111632651D01*
X109756076Y-111667591D01*
X109748664Y-111692830D01*
X109719745Y-111741575D01*
X109720377Y-111742123D01*
X109717485Y-111745457D01*
X109640832Y-111860175D01*
X109640822Y-111860192D01*
X109640817Y-111860201D01*
X109588029Y-111987644D01*
X109588016Y-111987683D01*
X109561100Y-112123000D01*
X109561100Y-112216626D01*
X109555837Y-112234546D01*
X109588016Y-112396315D01*
X109588017Y-112396319D01*
X109588018Y-112396322D01*
X109588021Y-112396332D01*
X109588024Y-112396340D01*
X109588029Y-112396354D01*
X109640817Y-112523797D01*
X109640822Y-112523806D01*
X109640832Y-112523823D01*
X109717486Y-112638543D01*
X109717487Y-112638544D01*
X109717492Y-112638550D01*
X109815048Y-112736106D01*
X109815054Y-112736111D01*
X109815058Y-112736114D01*
X109929782Y-112812771D01*
X109929795Y-112812778D01*
X109929797Y-112812778D01*
X109929801Y-112812781D01*
X109976904Y-112832291D01*
X110054942Y-112864615D01*
X110057272Y-112865580D01*
X110057276Y-112865580D01*
X110057277Y-112865581D01*
X110091108Y-112872310D01*
X110192601Y-112892500D01*
X110330595Y-112892500D01*
X110330596Y-112892500D01*
X110380651Y-112882543D01*
X110445150Y-112869713D01*
X110465928Y-112865580D01*
X110593411Y-112812775D01*
X110708142Y-112736114D01*
X110805714Y-112638542D01*
X110882375Y-112523811D01*
X110935180Y-112396328D01*
X110945828Y-112342794D01*
X110952992Y-112306783D01*
X110952992Y-112306780D01*
X110952993Y-112306778D01*
X110962100Y-112260995D01*
X110962100Y-112123004D01*
X110962100Y-112123001D01*
X110934941Y-111986468D01*
X110932850Y-111982046D01*
X110931020Y-111977628D01*
X110931017Y-111977621D01*
X110931012Y-111977608D01*
X110931012Y-111977607D01*
X110882381Y-111860201D01*
X110882376Y-111860192D01*
X110882371Y-111860182D01*
X110842384Y-111800338D01*
X110805714Y-111745457D01*
X110805532Y-111745248D01*
X110805213Y-111744789D01*
X110803069Y-111741930D01*
X110803172Y-111741852D01*
X110790371Y-111723423D01*
X110778780Y-111702196D01*
X110777266Y-111699423D01*
X110762100Y-111639999D01*
X110762100Y-109776105D01*
X110767122Y-109741172D01*
X110769604Y-109732720D01*
X110774534Y-109715927D01*
X110805828Y-109663185D01*
X111612990Y-108856023D01*
X111641240Y-108834875D01*
X111664332Y-108822267D01*
X111723757Y-108807100D01*
X111969120Y-108807100D01*
X112004052Y-108812122D01*
X112007230Y-108813055D01*
X112016477Y-108815770D01*
X112075256Y-108853543D01*
X112104282Y-108917098D01*
X112096437Y-108981393D01*
X112092952Y-108989977D01*
X112078380Y-109016215D01*
X112058770Y-109043206D01*
X111980129Y-109197549D01*
X111926596Y-109362305D01*
X111926595Y-109362306D01*
X111906876Y-109486817D01*
X111906876Y-109486820D01*
X111901641Y-109519874D01*
X111899500Y-109533389D01*
X111899500Y-109706611D01*
X111903635Y-109732716D01*
X111922585Y-109852368D01*
X111926598Y-109877701D01*
X111980127Y-110042445D01*
X112058768Y-110196788D01*
X112160586Y-110336928D01*
X112283072Y-110459414D01*
X112423212Y-110561232D01*
X112577555Y-110639873D01*
X112742299Y-110693402D01*
X112913389Y-110720500D01*
X112913390Y-110720500D01*
X113086610Y-110720500D01*
X113086611Y-110720500D01*
X113257701Y-110693402D01*
X113422445Y-110639873D01*
X113576788Y-110561232D01*
X113716928Y-110459414D01*
X113839414Y-110336928D01*
X113941232Y-110196788D01*
X114019873Y-110042445D01*
X114073402Y-109877701D01*
X114100500Y-109706611D01*
X114100500Y-109533389D01*
X114073402Y-109362299D01*
X114071873Y-109357594D01*
X114058283Y-109315768D01*
X114052265Y-109280990D01*
X114051869Y-109267124D01*
X114069631Y-109199550D01*
X114121108Y-109152306D01*
X114121110Y-109152305D01*
X114127383Y-109149221D01*
X114182091Y-109136500D01*
X117859570Y-109136500D01*
X117894506Y-109141523D01*
X117909504Y-109145927D01*
X117968255Y-109183672D01*
X117969442Y-109185041D01*
X117996918Y-109239902D01*
X117998563Y-109247460D01*
X118001400Y-109273831D01*
X118001400Y-109300833D01*
X117996375Y-109335775D01*
X117989967Y-109357594D01*
X117961756Y-109407138D01*
X117959280Y-109409798D01*
X117942827Y-109424578D01*
X117831864Y-109507645D01*
X117831855Y-109507652D01*
X117831846Y-109507663D01*
X117745607Y-109622861D01*
X117745604Y-109622867D01*
X117745603Y-109622867D01*
X117695308Y-109757716D01*
X117688900Y-109817325D01*
X117688900Y-111163072D01*
X117689059Y-111165006D01*
X117689285Y-111166654D01*
X117695307Y-111222682D01*
X117715187Y-111275982D01*
X117745602Y-111357528D01*
X117745606Y-111357535D01*
X117774427Y-111396035D01*
X117831850Y-111472742D01*
X117831852Y-111472744D01*
X117831855Y-111472747D01*
X117947064Y-111558993D01*
X117947071Y-111558997D01*
X117953788Y-111561502D01*
X117960211Y-111563898D01*
X117960213Y-111563898D01*
X117960220Y-111563901D01*
X118081917Y-111609291D01*
X118141527Y-111615700D01*
X118862272Y-111615699D01*
X118921883Y-111609291D01*
X119056731Y-111558996D01*
X119171946Y-111472746D01*
X119258196Y-111357531D01*
X119308491Y-111222683D01*
X119314900Y-111163073D01*
X119314899Y-109817328D01*
X119308491Y-109757717D01*
X119308491Y-109757716D01*
X119308489Y-109757710D01*
X119299167Y-109732716D01*
X119299166Y-109732715D01*
X119262548Y-109634537D01*
X119255046Y-109600049D01*
X119254056Y-109586206D01*
X119268908Y-109517934D01*
X119318314Y-109468529D01*
X119322791Y-109466084D01*
X119323567Y-109465661D01*
X119382981Y-109450500D01*
X120538470Y-109450500D01*
X120573402Y-109455521D01*
X120586721Y-109459432D01*
X120645499Y-109497206D01*
X120674524Y-109560755D01*
X120675374Y-109566664D01*
X120668819Y-109627652D01*
X120620309Y-109757713D01*
X120620307Y-109757720D01*
X120613900Y-109817314D01*
X120613900Y-111163072D01*
X120614059Y-111165006D01*
X120614285Y-111166654D01*
X120620307Y-111222682D01*
X120640187Y-111275982D01*
X120670602Y-111357528D01*
X120670606Y-111357535D01*
X120699427Y-111396035D01*
X120756850Y-111472742D01*
X120756852Y-111472744D01*
X120756855Y-111472747D01*
X120872064Y-111558993D01*
X120872071Y-111558997D01*
X120878788Y-111561502D01*
X120885211Y-111563898D01*
X120885213Y-111563898D01*
X120885220Y-111563901D01*
X121006917Y-111609291D01*
X121066527Y-111615700D01*
X121787272Y-111615699D01*
X121846883Y-111609291D01*
X121981731Y-111558996D01*
X122096946Y-111472746D01*
X122183196Y-111357531D01*
X122233491Y-111222683D01*
X122239900Y-111163073D01*
X122239900Y-111132529D01*
X122244923Y-111097593D01*
X122245905Y-111094251D01*
X122249327Y-111082594D01*
X122287072Y-111023844D01*
X122288441Y-111022657D01*
X122343320Y-110995177D01*
X122350879Y-110993533D01*
X122377232Y-110990700D01*
X122424271Y-110990700D01*
X122459207Y-110995723D01*
X122474205Y-111000127D01*
X122532956Y-111037872D01*
X122534143Y-111039241D01*
X122561619Y-111094102D01*
X122563264Y-111101660D01*
X122566101Y-111128031D01*
X122566101Y-111188082D01*
X122572507Y-111247681D01*
X122583060Y-111275975D01*
X122622802Y-111382528D01*
X122622803Y-111382529D01*
X122622803Y-111382531D01*
X122709050Y-111497742D01*
X122709052Y-111497744D01*
X122709055Y-111497747D01*
X122817173Y-111578684D01*
X122817174Y-111578685D01*
X122826302Y-111585518D01*
X122857005Y-111601579D01*
X122874555Y-111614717D01*
X122911770Y-111659779D01*
X122913960Y-111664285D01*
X122922208Y-111686395D01*
X122925207Y-111697585D01*
X122927869Y-111702195D01*
X122991100Y-111811714D01*
X122991102Y-111811716D01*
X123127597Y-111948211D01*
X123148746Y-111976461D01*
X123151340Y-111981211D01*
X123151791Y-111982038D01*
X123154167Y-111986388D01*
X123169021Y-112054661D01*
X123144607Y-112120126D01*
X123088675Y-112161999D01*
X123088671Y-112162001D01*
X123081483Y-112164682D01*
X123038149Y-112172500D01*
X120013271Y-112172500D01*
X119911411Y-112199792D01*
X119911408Y-112199793D01*
X119820097Y-112252513D01*
X119820083Y-112252522D01*
X119820078Y-112252526D01*
X119643926Y-112428678D01*
X119643922Y-112428683D01*
X119643921Y-112428684D01*
X119591190Y-112520014D01*
X119591190Y-112520015D01*
X119574391Y-112582715D01*
X119574391Y-112582716D01*
X119563900Y-112621869D01*
X119563900Y-113565528D01*
X119575736Y-113609704D01*
X119575740Y-113609717D01*
X119577155Y-113614995D01*
X119591193Y-113667389D01*
X119601013Y-113684397D01*
X119606409Y-113693744D01*
X119606410Y-113693745D01*
X119634846Y-113742998D01*
X119643112Y-113760274D01*
X119652003Y-113783266D01*
X119657823Y-113852893D01*
X119625075Y-113914613D01*
X119567742Y-113947949D01*
X119558147Y-113950460D01*
X119526754Y-113954500D01*
X118450884Y-113954500D01*
X118415948Y-113949477D01*
X118390706Y-113942065D01*
X118337961Y-113910769D01*
X117969476Y-113542284D01*
X117568716Y-113141522D01*
X117562250Y-113137789D01*
X117492469Y-113097500D01*
X117477389Y-113088793D01*
X117423791Y-113074432D01*
X117418792Y-113073092D01*
X117418785Y-113073090D01*
X117375528Y-113061500D01*
X117375527Y-113061500D01*
X117375526Y-113061500D01*
X117323422Y-113061500D01*
X117288487Y-113056477D01*
X117277633Y-113053290D01*
X117218855Y-113015516D01*
X117189830Y-112951960D01*
X117199765Y-112882821D01*
X117201238Y-112879596D01*
X117239110Y-112832292D01*
X117273563Y-112806166D01*
X117364920Y-112685695D01*
X117420386Y-112545043D01*
X117431000Y-112456653D01*
X117431000Y-112251100D01*
X115081000Y-112251100D01*
X115081000Y-112456653D01*
X115085295Y-112492424D01*
X115091612Y-112545041D01*
X115143464Y-112676527D01*
X115147079Y-112685695D01*
X115185826Y-112736790D01*
X115238437Y-112806168D01*
X115267128Y-112827925D01*
X115291929Y-112853035D01*
X115298649Y-112862129D01*
X115322659Y-112927744D01*
X115307383Y-112995923D01*
X115257700Y-113045006D01*
X115254583Y-113046684D01*
X115195805Y-113061500D01*
X114027694Y-113061500D01*
X113992753Y-113056475D01*
X113980328Y-113052826D01*
X113921552Y-113015049D01*
X113892530Y-112951492D01*
X113900372Y-112887218D01*
X113903858Y-112878629D01*
X113918436Y-112852378D01*
X113928000Y-112839214D01*
X113983565Y-112762734D01*
X114065747Y-112601447D01*
X114065748Y-112601444D01*
X114068177Y-112593970D01*
X114121681Y-112429296D01*
X114121680Y-112429296D01*
X114121682Y-112429293D01*
X114150000Y-112250506D01*
X114150000Y-112069493D01*
X114121682Y-111890706D01*
X114116323Y-111874213D01*
X114085771Y-111780179D01*
X114085768Y-111780171D01*
X114085762Y-111780152D01*
X114074518Y-111745546D01*
X115081000Y-111745546D01*
X115081000Y-111951100D01*
X116106000Y-111951100D01*
X116406000Y-111951100D01*
X117431000Y-111951100D01*
X117431000Y-111745546D01*
X117420386Y-111657156D01*
X117364920Y-111516504D01*
X117273564Y-111396035D01*
X117153095Y-111304679D01*
X117153096Y-111304679D01*
X117012441Y-111249212D01*
X116963062Y-111243283D01*
X116924054Y-111238600D01*
X116924049Y-111238600D01*
X116406000Y-111238600D01*
X116406000Y-111951100D01*
X116106000Y-111951100D01*
X116106000Y-111238600D01*
X115587952Y-111238600D01*
X115587946Y-111238600D01*
X115548159Y-111243377D01*
X115499557Y-111249212D01*
X115358904Y-111304678D01*
X115358903Y-111304679D01*
X115238435Y-111396035D01*
X115147079Y-111516503D01*
X115147078Y-111516504D01*
X115091612Y-111657157D01*
X115085898Y-111704756D01*
X115081000Y-111745546D01*
X114074518Y-111745546D01*
X114065748Y-111718555D01*
X114065747Y-111718552D01*
X113983567Y-111557268D01*
X113936255Y-111492150D01*
X113926715Y-111465412D01*
X113912573Y-111459554D01*
X113547298Y-111824829D01*
X113485975Y-111858314D01*
X113416283Y-111853330D01*
X113371936Y-111824829D01*
X113335167Y-111788060D01*
X113301682Y-111726737D01*
X113306666Y-111657045D01*
X113335163Y-111612703D01*
X113700443Y-111247424D01*
X113635186Y-111200012D01*
X113602729Y-111176430D01*
X113441447Y-111094252D01*
X113441443Y-111094250D01*
X113441420Y-111094242D01*
X113269295Y-111038317D01*
X113269296Y-111038317D01*
X113090511Y-111010000D01*
X113090506Y-111010000D01*
X112909494Y-111010000D01*
X112909489Y-111010000D01*
X112730702Y-111038317D01*
X112558627Y-111094226D01*
X112558550Y-111094252D01*
X112397270Y-111176430D01*
X112397261Y-111176435D01*
X112299556Y-111247422D01*
X112299556Y-111247425D01*
X112664831Y-111612700D01*
X112698316Y-111674023D01*
X112693332Y-111743715D01*
X112664831Y-111788062D01*
X112628062Y-111824831D01*
X112566739Y-111858316D01*
X112497047Y-111853332D01*
X112452700Y-111824831D01*
X112087425Y-111459556D01*
X112087423Y-111459556D01*
X112016435Y-111557261D01*
X112016430Y-111557270D01*
X111934252Y-111718550D01*
X111934226Y-111718627D01*
X111878317Y-111890702D01*
X111850000Y-112069487D01*
X111850000Y-112250511D01*
X111878317Y-112429296D01*
X111934226Y-112601371D01*
X111934252Y-112601447D01*
X112016434Y-112762735D01*
X112079976Y-112850194D01*
X112096446Y-112881410D01*
X112098519Y-112887218D01*
X112100798Y-112893606D01*
X112104785Y-112963362D01*
X112070425Y-113024199D01*
X112013818Y-113055635D01*
X112004822Y-113057863D01*
X111975012Y-113061500D01*
X111786866Y-113061500D01*
X111754770Y-113057274D01*
X111724304Y-113049110D01*
X111694400Y-113036723D01*
X111644366Y-113007836D01*
X111644365Y-113007835D01*
X111623188Y-112995609D01*
X111623187Y-112995608D01*
X111623186Y-112995608D01*
X111599567Y-112989279D01*
X111599564Y-112989278D01*
X111531386Y-112971010D01*
X111495893Y-112961500D01*
X111495892Y-112961500D01*
X111364108Y-112961500D01*
X111236808Y-112995609D01*
X111236806Y-112995610D01*
X111122696Y-113061493D01*
X111122681Y-113061503D01*
X111122679Y-113061504D01*
X109392012Y-114792173D01*
X109363761Y-114813322D01*
X109340673Y-114825930D01*
X109281243Y-114841100D01*
X108652864Y-114841100D01*
X108617925Y-114836076D01*
X108604607Y-114832165D01*
X108545830Y-114794389D01*
X108516809Y-114730840D01*
X108516334Y-114727537D01*
X108520879Y-114672380D01*
X108521477Y-114670495D01*
X108529179Y-114651719D01*
X108605742Y-114501457D01*
X108605748Y-114501444D01*
X108661682Y-114329293D01*
X108690000Y-114150506D01*
X108690000Y-113969493D01*
X108661682Y-113790706D01*
X108653574Y-113765751D01*
X108605756Y-113618578D01*
X108605748Y-113618555D01*
X108605747Y-113618552D01*
X108523567Y-113457268D01*
X108476255Y-113392150D01*
X108466715Y-113365412D01*
X108452573Y-113359554D01*
X108087298Y-113724829D01*
X108025975Y-113758314D01*
X107956283Y-113753330D01*
X107911936Y-113724829D01*
X107875167Y-113688060D01*
X107841682Y-113626737D01*
X107846666Y-113557045D01*
X107875163Y-113512703D01*
X108240443Y-113147424D01*
X108162247Y-113090611D01*
X108142729Y-113076430D01*
X107981447Y-112994252D01*
X107981443Y-112994250D01*
X107981420Y-112994242D01*
X107809295Y-112938317D01*
X107809296Y-112938317D01*
X107630511Y-112910000D01*
X107630506Y-112910000D01*
X107449494Y-112910000D01*
X107449489Y-112910000D01*
X107270702Y-112938317D01*
X107098627Y-112994226D01*
X107098550Y-112994252D01*
X106937270Y-113076430D01*
X106937261Y-113076435D01*
X106839556Y-113147422D01*
X106839556Y-113147425D01*
X107204831Y-113512700D01*
X107238316Y-113574023D01*
X107233332Y-113643715D01*
X107204831Y-113688062D01*
X107168062Y-113724831D01*
X107106739Y-113758316D01*
X107037047Y-113753332D01*
X106992700Y-113724831D01*
X106627425Y-113359556D01*
X106627423Y-113359556D01*
X106556435Y-113457261D01*
X106556430Y-113457270D01*
X106474252Y-113618550D01*
X106474226Y-113618627D01*
X106418317Y-113790702D01*
X106390000Y-113969487D01*
X106390000Y-114150511D01*
X106418317Y-114329296D01*
X106474242Y-114501420D01*
X106474250Y-114501443D01*
X106474252Y-114501447D01*
X106556429Y-114662726D01*
X106556434Y-114662735D01*
X106563819Y-114672899D01*
X106584715Y-114719645D01*
X106587075Y-114730589D01*
X106584595Y-114731123D01*
X106591098Y-114749339D01*
X106575282Y-114817395D01*
X106525184Y-114866097D01*
X106491945Y-114877962D01*
X106490502Y-114878254D01*
X106436482Y-114877197D01*
X106421511Y-114873546D01*
X106418798Y-114872852D01*
X106300294Y-114841100D01*
X106300293Y-114841100D01*
X106168508Y-114841100D01*
X106168506Y-114841100D01*
X106057418Y-114870865D01*
X106022377Y-114875055D01*
X106011070Y-114874786D01*
X105944517Y-114853512D01*
X105900031Y-114799635D01*
X105891736Y-114730260D01*
X105892450Y-114726012D01*
X105914415Y-114673695D01*
X105941232Y-114636788D01*
X106019873Y-114482445D01*
X106073402Y-114317701D01*
X106100500Y-114146611D01*
X106100500Y-113973389D01*
X106073402Y-113802299D01*
X106019873Y-113637555D01*
X105941232Y-113483212D01*
X105839414Y-113343072D01*
X105716928Y-113220586D01*
X105663834Y-113182011D01*
X105576792Y-113118770D01*
X105576784Y-113118766D01*
X105545925Y-113103043D01*
X105479349Y-113069121D01*
X105439944Y-113049043D01*
X105434604Y-113045163D01*
X105410287Y-113035090D01*
X105403767Y-113034058D01*
X105373424Y-113024199D01*
X105271227Y-112990992D01*
X105271216Y-112990989D01*
X105257701Y-112986598D01*
X105257699Y-112986597D01*
X105257698Y-112986597D01*
X105243296Y-112984316D01*
X105243292Y-112984315D01*
X105118874Y-112964610D01*
X105086611Y-112959500D01*
X105086610Y-112959500D01*
X104913390Y-112959500D01*
X104913389Y-112959500D01*
X104881126Y-112964610D01*
X104881125Y-112964610D01*
X104742302Y-112986596D01*
X104742301Y-112986596D01*
X104577547Y-113040129D01*
X104423211Y-113118767D01*
X104383769Y-113147425D01*
X104383768Y-113147425D01*
X104294942Y-113211961D01*
X104287563Y-113216093D01*
X104156094Y-113347562D01*
X104151960Y-113354945D01*
X104137324Y-113375087D01*
X104137325Y-113375088D01*
X104058768Y-113483210D01*
X103980129Y-113637547D01*
X103926596Y-113802301D01*
X103905582Y-113934988D01*
X103905582Y-113934989D01*
X103899500Y-113973389D01*
X103899500Y-114146609D01*
X103899501Y-114146622D01*
X103900292Y-114151613D01*
X103900294Y-114151624D01*
X103914336Y-114240279D01*
X103922137Y-114289538D01*
X103925071Y-114308059D01*
X103925071Y-114308063D01*
X103926598Y-114317705D01*
X103933906Y-114340197D01*
X103935519Y-114345159D01*
X103941537Y-114379935D01*
X103942026Y-114397003D01*
X103925609Y-114462287D01*
X103918981Y-114473830D01*
X103899129Y-114499765D01*
X103569128Y-114829766D01*
X103540876Y-114850916D01*
X103535514Y-114853844D01*
X103467241Y-114868697D01*
X103401776Y-114844281D01*
X103359904Y-114788349D01*
X103354918Y-114718662D01*
X103355029Y-114718153D01*
X103375859Y-114671710D01*
X103380206Y-114665727D01*
X103401232Y-114636788D01*
X103479873Y-114482445D01*
X103533402Y-114317701D01*
X103560500Y-114146611D01*
X103560500Y-113973389D01*
X103533402Y-113802299D01*
X103504996Y-113714876D01*
X103495365Y-113685235D01*
X103489347Y-113650456D01*
X103488921Y-113635552D01*
X103488860Y-113633397D01*
X103505270Y-113568122D01*
X103511904Y-113556568D01*
X103531751Y-113530639D01*
X109532969Y-107529423D01*
X109561219Y-107508275D01*
X109584311Y-107495667D01*
X109643736Y-107480500D01*
X111875128Y-107480500D01*
X111910063Y-107485523D01*
G37*
%TD.AperFunction*%
%TA.AperFunction,Conductor*%
G36*
X115966240Y-100505521D02*
G01*
X115991484Y-100512934D01*
X116044230Y-100544230D01*
X117250000Y-101750000D01*
X117282920Y-101750000D01*
X117322162Y-101761523D01*
X117353973Y-101769641D01*
X117401586Y-101820776D01*
X117413994Y-101889535D01*
X117387259Y-101954087D01*
X117361428Y-101978138D01*
X117356880Y-101981296D01*
X117329488Y-101995625D01*
X117232915Y-102031643D01*
X117232913Y-102031644D01*
X117232907Y-102031648D01*
X117117816Y-102117806D01*
X117117812Y-102117809D01*
X117117807Y-102117813D01*
X117031648Y-102232907D01*
X117031646Y-102232910D01*
X116981402Y-102367621D01*
X116981400Y-102367628D01*
X116975000Y-102427146D01*
X116975000Y-102427155D01*
X116975000Y-102525000D01*
X118525000Y-102525000D01*
X118525000Y-102427172D01*
X118524999Y-102427155D01*
X118524998Y-102427146D01*
X118524998Y-102427138D01*
X118518598Y-102367628D01*
X118518596Y-102367621D01*
X118518596Y-102367620D01*
X118468354Y-102232913D01*
X118468350Y-102232906D01*
X118382190Y-102117812D01*
X118382187Y-102117809D01*
X118267093Y-102031649D01*
X118267088Y-102031646D01*
X118248461Y-102024699D01*
X118248461Y-102024698D01*
X118245799Y-102023705D01*
X118245787Y-102023700D01*
X118173964Y-101996913D01*
X118142984Y-101979997D01*
X118136488Y-101975134D01*
X118094618Y-101919200D01*
X118094202Y-101913384D01*
X134899500Y-101913384D01*
X134899500Y-102086612D01*
X134904441Y-102117806D01*
X134904441Y-102117809D01*
X134922596Y-102232437D01*
X134926596Y-102257693D01*
X134926597Y-102257697D01*
X134926598Y-102257701D01*
X134962315Y-102367627D01*
X134972867Y-102400101D01*
X134980125Y-102422441D01*
X135002280Y-102465924D01*
X135002281Y-102465925D01*
X135058766Y-102576786D01*
X135089357Y-102618890D01*
X135160586Y-102716928D01*
X135283072Y-102839414D01*
X135423212Y-102941232D01*
X135577555Y-103019873D01*
X135742299Y-103073402D01*
X135913389Y-103100500D01*
X135913390Y-103100500D01*
X136086610Y-103100500D01*
X136086611Y-103100500D01*
X136257701Y-103073402D01*
X136422445Y-103019873D01*
X136576788Y-102941232D01*
X136716928Y-102839414D01*
X136839414Y-102716928D01*
X136941232Y-102576788D01*
X137019873Y-102422445D01*
X137073402Y-102257701D01*
X137100500Y-102086611D01*
X137100500Y-101913389D01*
X137073402Y-101742299D01*
X137019873Y-101577555D01*
X136941232Y-101423212D01*
X136839414Y-101283072D01*
X136716928Y-101160586D01*
X136576788Y-101058768D01*
X136576784Y-101058766D01*
X136422449Y-100980128D01*
X136271215Y-100930988D01*
X136271203Y-100930985D01*
X136257701Y-100926598D01*
X136257699Y-100926597D01*
X136257698Y-100926597D01*
X136243312Y-100924318D01*
X136243306Y-100924317D01*
X136153188Y-100910044D01*
X136126271Y-100905781D01*
X136110407Y-100903268D01*
X136086614Y-100899500D01*
X136086611Y-100899500D01*
X135913389Y-100899500D01*
X135913388Y-100899500D01*
X135873726Y-100905781D01*
X135873725Y-100905780D01*
X135742298Y-100926597D01*
X135742273Y-100926603D01*
X135741863Y-100926739D01*
X135585582Y-100977519D01*
X135585581Y-100977518D01*
X135577560Y-100980124D01*
X135577547Y-100980130D01*
X135423212Y-101058766D01*
X135343256Y-101116859D01*
X135343255Y-101116859D01*
X135294941Y-101151961D01*
X135287564Y-101156092D01*
X135156092Y-101287564D01*
X135151961Y-101294941D01*
X135116859Y-101343255D01*
X135116859Y-101343256D01*
X135058768Y-101423210D01*
X134980129Y-101577547D01*
X134926596Y-101742301D01*
X134913897Y-101822488D01*
X134913897Y-101822490D01*
X134899500Y-101913384D01*
X118094202Y-101913384D01*
X118089634Y-101849508D01*
X118123120Y-101788185D01*
X118180153Y-101755716D01*
X118185521Y-101754345D01*
X118216164Y-101750500D01*
X131820186Y-101750500D01*
X131820187Y-101750500D01*
X131821250Y-101750430D01*
X131823775Y-101750265D01*
X131831877Y-101750000D01*
X132000000Y-101750000D01*
X133200576Y-100549423D01*
X133228826Y-100528275D01*
X133251918Y-100515667D01*
X133311343Y-100500500D01*
X146376000Y-100500500D01*
X146443039Y-100520185D01*
X146488794Y-100572989D01*
X146500000Y-100624500D01*
X146500000Y-102500000D01*
X148375500Y-102500000D01*
X148442539Y-102519685D01*
X148488294Y-102572489D01*
X148499500Y-102624000D01*
X148499500Y-124357670D01*
X148494475Y-124392614D01*
X148490070Y-124407612D01*
X148452327Y-124466355D01*
X148450958Y-124467542D01*
X148396097Y-124495018D01*
X148388539Y-124496663D01*
X148362168Y-124499500D01*
X102624000Y-124499500D01*
X102556961Y-124479815D01*
X102511206Y-124427011D01*
X102500000Y-124375500D01*
X102500000Y-122500000D01*
X100624500Y-122500000D01*
X100557461Y-122480315D01*
X100511706Y-122427511D01*
X100500500Y-122376000D01*
X100500500Y-121063853D01*
X101157000Y-121063853D01*
X101161206Y-121098881D01*
X101167612Y-121152241D01*
X101223078Y-121292894D01*
X101223079Y-121292895D01*
X101314435Y-121413364D01*
X101434903Y-121504719D01*
X101434904Y-121504720D01*
X101575556Y-121560186D01*
X101663946Y-121570800D01*
X101882000Y-121570800D01*
X102182000Y-121570800D01*
X102400049Y-121570800D01*
X102400054Y-121570800D01*
X102488443Y-121560186D01*
X102629095Y-121504720D01*
X102749564Y-121413364D01*
X102840920Y-121292895D01*
X102896386Y-121152243D01*
X102907000Y-121063853D01*
X102907000Y-120520800D01*
X102182000Y-120520800D01*
X102182000Y-121570800D01*
X101882000Y-121570800D01*
X101882000Y-120520800D01*
X101157000Y-120520800D01*
X101157000Y-121063853D01*
X100500500Y-121063853D01*
X100500500Y-119677746D01*
X101157000Y-119677746D01*
X101157000Y-120220800D01*
X101882000Y-120220800D01*
X102182000Y-120220800D01*
X102907000Y-120220800D01*
X102907000Y-119677746D01*
X102896386Y-119589356D01*
X102840920Y-119448704D01*
X102749564Y-119328235D01*
X102629095Y-119236879D01*
X102629096Y-119236879D01*
X102488441Y-119181412D01*
X102439062Y-119175483D01*
X102400054Y-119170800D01*
X102400049Y-119170800D01*
X102182000Y-119170800D01*
X102182000Y-120220800D01*
X101882000Y-120220800D01*
X101882000Y-119170800D01*
X101663952Y-119170800D01*
X101663946Y-119170800D01*
X101624159Y-119175577D01*
X101575557Y-119181412D01*
X101434904Y-119236878D01*
X101434903Y-119236879D01*
X101314435Y-119328235D01*
X101223079Y-119448703D01*
X101223078Y-119448704D01*
X101167612Y-119589357D01*
X101162835Y-119629147D01*
X101157000Y-119677746D01*
X100500500Y-119677746D01*
X100500500Y-113973389D01*
X101359500Y-113973389D01*
X101359500Y-114146611D01*
X101359684Y-114147773D01*
X101359684Y-114147779D01*
X101360292Y-114151613D01*
X101360291Y-114151613D01*
X101360294Y-114151625D01*
X101386275Y-114315670D01*
X101386597Y-114317699D01*
X101439471Y-114480429D01*
X101440126Y-114482444D01*
X101454352Y-114510364D01*
X101477804Y-114556391D01*
X101518766Y-114636786D01*
X101544140Y-114671710D01*
X101620586Y-114776928D01*
X101743072Y-114899414D01*
X101883212Y-115001232D01*
X102037555Y-115079873D01*
X102202299Y-115133402D01*
X102373389Y-115160500D01*
X102373390Y-115160500D01*
X102546610Y-115160500D01*
X102546611Y-115160500D01*
X102717701Y-115133402D01*
X102882445Y-115079873D01*
X103036788Y-115001232D01*
X103150088Y-114918912D01*
X103188296Y-114905279D01*
X103216712Y-114892954D01*
X103240703Y-114896872D01*
X103244322Y-114897083D01*
X103251926Y-114898412D01*
X103251876Y-114898698D01*
X103285668Y-114904218D01*
X103337587Y-114950974D01*
X103355986Y-115018378D01*
X103350296Y-115053210D01*
X103348864Y-115057763D01*
X103337965Y-115082559D01*
X103318558Y-115116174D01*
X103308776Y-115133117D01*
X103308200Y-115134114D01*
X103307853Y-115135034D01*
X103307168Y-115137966D01*
X103277500Y-115248691D01*
X103277500Y-115357670D01*
X103272475Y-115392614D01*
X103268070Y-115407612D01*
X103230327Y-115466355D01*
X103228958Y-115467542D01*
X103174097Y-115495018D01*
X103166539Y-115496663D01*
X103140168Y-115499500D01*
X101585319Y-115499500D01*
X101512285Y-115514027D01*
X101512262Y-115514032D01*
X101512258Y-115514033D01*
X101429399Y-115569399D01*
X101374033Y-115652258D01*
X101374032Y-115652266D01*
X101374028Y-115652281D01*
X101359500Y-115725318D01*
X101359500Y-117474678D01*
X101374028Y-117547717D01*
X101374032Y-117547733D01*
X101374033Y-117547740D01*
X101392404Y-117575234D01*
X101428063Y-117628601D01*
X101429399Y-117630601D01*
X101505492Y-117681444D01*
X101512260Y-117685966D01*
X101512264Y-117685967D01*
X101583944Y-117700225D01*
X101584294Y-117700333D01*
X101585323Y-117700500D01*
X101585324Y-117700500D01*
X101585326Y-117700500D01*
X103207818Y-117700500D01*
X103242752Y-117705523D01*
X103260806Y-117710824D01*
X103315612Y-117744228D01*
X103322799Y-117751765D01*
X103340445Y-117775336D01*
X103355559Y-117801513D01*
X103367511Y-117822214D01*
X103367513Y-117822216D01*
X104482573Y-118937276D01*
X104503723Y-118965528D01*
X104516331Y-118988617D01*
X104531500Y-119048046D01*
X104531500Y-119129503D01*
X104526475Y-119164447D01*
X104522070Y-119179445D01*
X104484304Y-119238208D01*
X104475239Y-119246064D01*
X104437365Y-119268538D01*
X104419304Y-119275275D01*
X104414668Y-119277004D01*
X104414665Y-119277005D01*
X104299456Y-119363251D01*
X104299452Y-119363254D01*
X104299450Y-119363256D01*
X104213205Y-119478465D01*
X104213203Y-119478468D01*
X104162907Y-119613316D01*
X104156501Y-119672916D01*
X104156500Y-119672939D01*
X104156500Y-121068676D01*
X104156659Y-121070606D01*
X104156885Y-121072254D01*
X104162907Y-121128282D01*
X104173544Y-121156800D01*
X104213202Y-121263128D01*
X104213206Y-121263135D01*
X104254498Y-121318294D01*
X104299450Y-121378342D01*
X104299452Y-121378344D01*
X104299455Y-121378347D01*
X104414664Y-121464593D01*
X104414671Y-121464597D01*
X104459618Y-121481361D01*
X104549517Y-121514891D01*
X104609127Y-121521300D01*
X105354872Y-121521299D01*
X105414483Y-121514891D01*
X105549331Y-121464596D01*
X105664546Y-121378346D01*
X105750796Y-121263131D01*
X105760121Y-121238131D01*
X105788450Y-121162174D01*
X105805361Y-121131203D01*
X105812144Y-121122141D01*
X105868077Y-121080272D01*
X105937768Y-121075288D01*
X105999091Y-121108773D01*
X106002768Y-121112450D01*
X106031268Y-121156797D01*
X106061602Y-121238128D01*
X106061602Y-121238129D01*
X106147850Y-121353342D01*
X106147852Y-121353344D01*
X106147855Y-121353347D01*
X106263064Y-121439593D01*
X106263071Y-121439597D01*
X106308018Y-121456361D01*
X106397917Y-121489891D01*
X106457527Y-121496300D01*
X107178272Y-121496299D01*
X107237883Y-121489891D01*
X107372731Y-121439596D01*
X107487946Y-121353346D01*
X107574196Y-121238131D01*
X107624491Y-121103283D01*
X107630900Y-121043673D01*
X107630899Y-119697928D01*
X107624491Y-119638317D01*
X107615703Y-119614756D01*
X107574197Y-119503471D01*
X107574193Y-119503464D01*
X107487947Y-119388255D01*
X107487944Y-119388252D01*
X107487942Y-119388250D01*
X107403996Y-119325408D01*
X107372735Y-119302006D01*
X107372730Y-119302003D01*
X107372727Y-119302001D01*
X107372725Y-119302000D01*
X107248054Y-119255502D01*
X107248051Y-119255501D01*
X107237886Y-119251710D01*
X107237885Y-119251709D01*
X107237883Y-119251709D01*
X107224421Y-119250261D01*
X107224414Y-119250260D01*
X107178283Y-119245301D01*
X107178281Y-119245300D01*
X107178273Y-119245300D01*
X107178265Y-119245300D01*
X106457523Y-119245300D01*
X106455592Y-119245459D01*
X106453945Y-119245685D01*
X106400800Y-119251398D01*
X106397916Y-119251708D01*
X106263077Y-119302000D01*
X106263066Y-119302004D01*
X106263065Y-119302005D01*
X106147856Y-119388250D01*
X106147853Y-119388253D01*
X106147852Y-119388255D01*
X106061605Y-119503465D01*
X106061602Y-119503470D01*
X106052520Y-119527822D01*
X106043856Y-119551053D01*
X106033276Y-119579420D01*
X106016357Y-119610403D01*
X106009578Y-119619458D01*
X105953643Y-119661327D01*
X105883952Y-119666309D01*
X105822633Y-119632825D01*
X105818955Y-119629147D01*
X105790455Y-119584801D01*
X105750797Y-119478471D01*
X105750793Y-119478464D01*
X105678868Y-119382385D01*
X105664548Y-119363256D01*
X105664546Y-119363254D01*
X105664542Y-119363251D01*
X105549334Y-119277005D01*
X105549332Y-119277004D01*
X105542551Y-119274475D01*
X105529868Y-119269744D01*
X105498896Y-119252832D01*
X105486377Y-119243460D01*
X105444510Y-119187531D01*
X105441409Y-119179216D01*
X105440313Y-119176277D01*
X105432500Y-119132958D01*
X105432500Y-119098814D01*
X105436725Y-119066721D01*
X105436736Y-119066681D01*
X105446931Y-119028632D01*
X105446930Y-119028631D01*
X105458824Y-118984244D01*
X105458970Y-118983471D01*
X105479699Y-118906110D01*
X105479699Y-118787491D01*
X105463005Y-118725185D01*
X105449000Y-118672914D01*
X105448998Y-118672910D01*
X105440789Y-118658692D01*
X105389697Y-118570198D01*
X105389694Y-118570192D01*
X105389688Y-118570184D01*
X105389687Y-118570183D01*
X105389683Y-118570178D01*
X104728433Y-117908929D01*
X104695235Y-117848896D01*
X104694929Y-117847562D01*
X104689521Y-117837651D01*
X104694521Y-117767961D01*
X104736405Y-117712037D01*
X104767379Y-117695132D01*
X104770290Y-117694046D01*
X104832993Y-117687766D01*
X104913389Y-117700500D01*
X104913391Y-117700500D01*
X105086610Y-117700500D01*
X105086611Y-117700500D01*
X105257701Y-117673402D01*
X105422445Y-117619873D01*
X105576788Y-117541232D01*
X105716928Y-117439414D01*
X105839414Y-117316928D01*
X105941232Y-117176788D01*
X106019873Y-117022445D01*
X106073402Y-116857701D01*
X106100500Y-116686611D01*
X106100500Y-116513389D01*
X106073402Y-116342299D01*
X106070048Y-116331977D01*
X106064030Y-116297207D01*
X106063542Y-116280129D01*
X106079958Y-116214851D01*
X106086586Y-116203308D01*
X106106434Y-116177377D01*
X106383869Y-115899943D01*
X106412112Y-115878800D01*
X106418218Y-115875466D01*
X106486487Y-115860613D01*
X106551952Y-115885028D01*
X106593825Y-115940960D01*
X106599175Y-116008925D01*
X106597999Y-116014728D01*
X106586954Y-116046394D01*
X106520131Y-116177543D01*
X106466596Y-116342305D01*
X106439500Y-116513383D01*
X106439500Y-116686615D01*
X106466276Y-116855679D01*
X106466277Y-116855679D01*
X106466597Y-116857699D01*
X106520128Y-117022449D01*
X106584861Y-117149494D01*
X106598768Y-117176788D01*
X106700586Y-117316928D01*
X106823072Y-117439414D01*
X106963212Y-117541232D01*
X107117555Y-117619873D01*
X107282299Y-117673402D01*
X107453389Y-117700500D01*
X107453390Y-117700500D01*
X107626610Y-117700500D01*
X107626611Y-117700500D01*
X107797701Y-117673402D01*
X107962445Y-117619873D01*
X108116788Y-117541232D01*
X108256928Y-117439414D01*
X108379414Y-117316928D01*
X108481232Y-117176788D01*
X108481237Y-117176777D01*
X108483002Y-117173899D01*
X108498587Y-117153536D01*
X108510592Y-117140826D01*
X108568358Y-117106276D01*
X108581208Y-117102800D01*
X108613583Y-117098500D01*
X109590718Y-117098500D01*
X109625652Y-117103523D01*
X109638720Y-117107360D01*
X109697498Y-117145134D01*
X109726524Y-117208689D01*
X109719577Y-117270704D01*
X109716622Y-117278416D01*
X109703933Y-117302940D01*
X109640832Y-117397375D01*
X109640822Y-117397392D01*
X109640817Y-117397401D01*
X109588029Y-117524844D01*
X109588016Y-117524883D01*
X109561100Y-117660200D01*
X109561100Y-117753826D01*
X109555837Y-117771746D01*
X109588016Y-117933515D01*
X109588017Y-117933519D01*
X109588018Y-117933522D01*
X109588021Y-117933532D01*
X109588024Y-117933540D01*
X109588029Y-117933554D01*
X109640817Y-118060997D01*
X109640822Y-118061006D01*
X109640832Y-118061023D01*
X109717487Y-118175744D01*
X109719991Y-118178796D01*
X109732961Y-118198020D01*
X109745928Y-118221765D01*
X109761100Y-118281197D01*
X109761100Y-118316294D01*
X109756076Y-118351231D01*
X109748664Y-118376472D01*
X109717369Y-118429216D01*
X109342404Y-118804179D01*
X109342403Y-118804181D01*
X109342393Y-118804196D01*
X109276510Y-118918306D01*
X109276509Y-118918308D01*
X109242400Y-119045608D01*
X109242400Y-119181433D01*
X109237375Y-119216375D01*
X109230967Y-119238194D01*
X109202756Y-119287738D01*
X109200280Y-119290398D01*
X109183827Y-119305178D01*
X109072864Y-119388245D01*
X109072855Y-119388252D01*
X109072846Y-119388263D01*
X108986607Y-119503461D01*
X108986604Y-119503467D01*
X108986603Y-119503467D01*
X108936307Y-119638316D01*
X108930388Y-119693388D01*
X108929902Y-119697923D01*
X108929900Y-119697940D01*
X108929900Y-121043676D01*
X108930059Y-121045606D01*
X108930285Y-121047254D01*
X108936307Y-121103282D01*
X108961056Y-121169637D01*
X108986602Y-121238128D01*
X108986603Y-121238129D01*
X108986603Y-121238131D01*
X109072850Y-121353342D01*
X109072852Y-121353344D01*
X109072855Y-121353347D01*
X109188064Y-121439593D01*
X109188071Y-121439597D01*
X109233018Y-121456361D01*
X109322917Y-121489891D01*
X109382527Y-121496300D01*
X110103272Y-121496299D01*
X110162883Y-121489891D01*
X110297731Y-121439596D01*
X110412946Y-121353346D01*
X110499196Y-121238131D01*
X110549491Y-121103283D01*
X110555900Y-121043673D01*
X110555899Y-119697928D01*
X110555410Y-119693383D01*
X111899500Y-119693383D01*
X111899500Y-119866615D01*
X111924315Y-120023293D01*
X111924316Y-120023301D01*
X111926597Y-120037697D01*
X111926597Y-120037699D01*
X111926598Y-120037701D01*
X111930989Y-120051216D01*
X111930992Y-120051227D01*
X111980128Y-120202449D01*
X112032300Y-120304842D01*
X112058768Y-120356788D01*
X112160586Y-120496928D01*
X112283072Y-120619414D01*
X112423212Y-120721232D01*
X112577555Y-120799873D01*
X112742299Y-120853402D01*
X112913389Y-120880500D01*
X112913390Y-120880500D01*
X113086610Y-120880500D01*
X113086611Y-120880500D01*
X113257701Y-120853402D01*
X113422445Y-120799873D01*
X113576788Y-120721232D01*
X113716928Y-120619414D01*
X113839414Y-120496928D01*
X113941232Y-120356788D01*
X113991336Y-120258453D01*
X115081000Y-120258453D01*
X115086011Y-120300185D01*
X115091612Y-120346841D01*
X115147078Y-120487494D01*
X115147079Y-120487495D01*
X115238435Y-120607964D01*
X115358903Y-120699319D01*
X115358904Y-120699320D01*
X115499556Y-120754786D01*
X115587946Y-120765400D01*
X116106000Y-120765400D01*
X116406000Y-120765400D01*
X116924049Y-120765400D01*
X116924054Y-120765400D01*
X117012443Y-120754786D01*
X117153095Y-120699320D01*
X117273564Y-120607964D01*
X117364920Y-120487495D01*
X117420386Y-120346843D01*
X117431000Y-120258453D01*
X117431000Y-120052900D01*
X116406000Y-120052900D01*
X116406000Y-120765400D01*
X116106000Y-120765400D01*
X116106000Y-120052900D01*
X115081000Y-120052900D01*
X115081000Y-120258453D01*
X113991336Y-120258453D01*
X114019873Y-120202445D01*
X114073402Y-120037701D01*
X114100500Y-119866611D01*
X114100500Y-119693389D01*
X114100500Y-119693388D01*
X114100500Y-119693382D01*
X114079855Y-119563039D01*
X114079854Y-119563032D01*
X114079854Y-119563031D01*
X114077369Y-119547346D01*
X115081000Y-119547346D01*
X115081000Y-119752900D01*
X116106000Y-119752900D01*
X116406000Y-119752900D01*
X117431000Y-119752900D01*
X117431000Y-119547346D01*
X117420386Y-119458956D01*
X117364920Y-119318304D01*
X117273564Y-119197835D01*
X117153095Y-119106479D01*
X117153096Y-119106479D01*
X117012441Y-119051012D01*
X116963062Y-119045083D01*
X116924054Y-119040400D01*
X116924049Y-119040400D01*
X116406000Y-119040400D01*
X116406000Y-119752900D01*
X116106000Y-119752900D01*
X116106000Y-119040400D01*
X115587952Y-119040400D01*
X115587946Y-119040400D01*
X115548159Y-119045177D01*
X115499557Y-119051012D01*
X115358904Y-119106478D01*
X115358903Y-119106479D01*
X115238435Y-119197835D01*
X115147079Y-119318303D01*
X115147078Y-119318304D01*
X115091612Y-119458957D01*
X115086268Y-119503469D01*
X115081000Y-119547346D01*
X114077369Y-119547346D01*
X114073402Y-119522301D01*
X114073402Y-119522299D01*
X114019873Y-119357555D01*
X114019871Y-119357552D01*
X114019871Y-119357550D01*
X113966514Y-119252831D01*
X113941232Y-119203212D01*
X113839414Y-119063072D01*
X113716928Y-118940586D01*
X113576788Y-118838768D01*
X113564072Y-118832289D01*
X113422449Y-118760128D01*
X113271215Y-118710988D01*
X113271203Y-118710985D01*
X113257701Y-118706598D01*
X113257699Y-118706597D01*
X113257698Y-118706597D01*
X113243312Y-118704318D01*
X113243306Y-118704317D01*
X113131814Y-118686659D01*
X113126271Y-118685781D01*
X113110407Y-118683268D01*
X113086614Y-118679500D01*
X113086611Y-118679500D01*
X112913389Y-118679500D01*
X112913388Y-118679500D01*
X112873726Y-118685781D01*
X112873725Y-118685780D01*
X112742298Y-118706597D01*
X112742294Y-118706598D01*
X112717581Y-118714629D01*
X112717579Y-118714630D01*
X112629410Y-118743278D01*
X112629409Y-118743278D01*
X112577556Y-118760125D01*
X112423210Y-118838768D01*
X112385383Y-118866252D01*
X112347023Y-118894123D01*
X112347021Y-118894124D01*
X112294938Y-118931963D01*
X112287563Y-118936093D01*
X112156093Y-119067563D01*
X112151963Y-119074939D01*
X112138724Y-119093162D01*
X112138722Y-119093165D01*
X112058768Y-119203210D01*
X111980129Y-119357549D01*
X111926598Y-119522299D01*
X111926596Y-119522305D01*
X111899500Y-119693383D01*
X110555410Y-119693383D01*
X110549491Y-119638317D01*
X110540703Y-119614756D01*
X110499197Y-119503471D01*
X110499193Y-119503464D01*
X110412947Y-119388255D01*
X110412944Y-119388253D01*
X110410622Y-119386514D01*
X110405102Y-119382382D01*
X110380143Y-119357421D01*
X110371825Y-119346308D01*
X110347412Y-119280842D01*
X110362264Y-119212579D01*
X110368916Y-119200397D01*
X110390057Y-119172155D01*
X110662100Y-118900114D01*
X110727992Y-118785986D01*
X110762100Y-118658692D01*
X110762100Y-118526907D01*
X110762100Y-118288547D01*
X110767123Y-118253613D01*
X110774534Y-118228373D01*
X110802602Y-118181070D01*
X110801849Y-118180452D01*
X110805712Y-118175744D01*
X110805714Y-118175742D01*
X110882375Y-118061011D01*
X110935180Y-117933528D01*
X110950007Y-117858990D01*
X110957322Y-117822216D01*
X110962100Y-117798197D01*
X110962100Y-117660201D01*
X110934941Y-117523670D01*
X110932856Y-117519263D01*
X110928727Y-117509293D01*
X110923924Y-117497697D01*
X110882381Y-117397401D01*
X110882376Y-117397392D01*
X110882371Y-117397382D01*
X110805714Y-117282658D01*
X110805711Y-117282654D01*
X110745116Y-117222059D01*
X110723967Y-117193806D01*
X110717316Y-117181625D01*
X110702465Y-117113351D01*
X110726881Y-117047891D01*
X110731983Y-117041076D01*
X110769244Y-117008008D01*
X110785714Y-116998500D01*
X111332789Y-116451422D01*
X111361043Y-116430273D01*
X111384133Y-116417666D01*
X111443556Y-116402500D01*
X111986993Y-116402500D01*
X112021925Y-116407522D01*
X112024783Y-116408361D01*
X112034350Y-116411170D01*
X112093129Y-116448943D01*
X112122155Y-116512498D01*
X112114314Y-116576784D01*
X112110829Y-116585370D01*
X112096256Y-116611613D01*
X112088486Y-116622309D01*
X112088480Y-116622316D01*
X112058770Y-116663206D01*
X112058769Y-116663208D01*
X111980129Y-116817547D01*
X111926598Y-116982297D01*
X111926596Y-116982305D01*
X111905076Y-117118183D01*
X111905076Y-117118184D01*
X111899500Y-117153389D01*
X111899500Y-117326612D01*
X111900117Y-117330506D01*
X111904453Y-117357886D01*
X111904629Y-117358993D01*
X111904629Y-117358996D01*
X111922951Y-117474678D01*
X111926596Y-117497693D01*
X111926597Y-117497697D01*
X111926598Y-117497701D01*
X111975417Y-117647948D01*
X111976202Y-117650365D01*
X111980127Y-117662446D01*
X111998497Y-117698499D01*
X112045577Y-117790899D01*
X112045577Y-117790900D01*
X112058765Y-117816784D01*
X112058768Y-117816788D01*
X112160586Y-117956928D01*
X112283072Y-118079414D01*
X112423212Y-118181232D01*
X112577555Y-118259873D01*
X112742299Y-118313402D01*
X112913389Y-118340500D01*
X112913390Y-118340500D01*
X113086610Y-118340500D01*
X113086611Y-118340500D01*
X113257701Y-118313402D01*
X113422445Y-118259873D01*
X113576788Y-118181232D01*
X113716928Y-118079414D01*
X113839414Y-117956928D01*
X113941232Y-117816788D01*
X114019873Y-117662445D01*
X114073402Y-117497701D01*
X114100500Y-117326611D01*
X114100500Y-117153389D01*
X114073402Y-116982299D01*
X114019873Y-116817555D01*
X113941232Y-116663212D01*
X113905337Y-116613807D01*
X113888868Y-116582596D01*
X113886350Y-116575540D01*
X113884516Y-116570401D01*
X113880525Y-116500647D01*
X113914880Y-116439807D01*
X113971503Y-116408362D01*
X113980507Y-116406132D01*
X114010304Y-116402500D01*
X114999088Y-116402500D01*
X115034020Y-116407521D01*
X115047339Y-116411432D01*
X115106117Y-116449206D01*
X115135143Y-116512761D01*
X115135144Y-116512768D01*
X115136715Y-116523698D01*
X115137266Y-116554594D01*
X115135181Y-116573985D01*
X115130500Y-116617527D01*
X115130500Y-116617532D01*
X115130500Y-117338276D01*
X115130659Y-117340206D01*
X115130885Y-117341854D01*
X115136907Y-117397882D01*
X115151651Y-117437411D01*
X115187202Y-117532728D01*
X115187206Y-117532735D01*
X115196938Y-117545735D01*
X115273450Y-117647942D01*
X115273452Y-117647944D01*
X115273455Y-117647947D01*
X115388664Y-117734193D01*
X115388671Y-117734197D01*
X115523517Y-117784491D01*
X115523516Y-117784491D01*
X115530444Y-117785235D01*
X115583127Y-117790900D01*
X116928872Y-117790899D01*
X116988483Y-117784491D01*
X117123331Y-117734196D01*
X117208263Y-117670613D01*
X117239230Y-117653703D01*
X117253882Y-117648238D01*
X117323569Y-117643253D01*
X117323575Y-117643254D01*
X117323582Y-117643256D01*
X117329781Y-117644605D01*
X117391095Y-117678088D01*
X117457887Y-117744880D01*
X117549213Y-117797607D01*
X117651073Y-117824900D01*
X117756527Y-117824900D01*
X117793190Y-117824900D01*
X117828124Y-117829923D01*
X117841192Y-117833760D01*
X117899970Y-117871534D01*
X117928996Y-117935089D01*
X117922044Y-117997118D01*
X117919088Y-118004830D01*
X117906404Y-118029340D01*
X117870431Y-118083176D01*
X117870428Y-118083180D01*
X117870417Y-118083201D01*
X117817629Y-118210644D01*
X117817616Y-118210683D01*
X117790700Y-118346000D01*
X117790700Y-118439626D01*
X117785437Y-118457546D01*
X117817616Y-118619315D01*
X117817617Y-118619319D01*
X117817618Y-118619322D01*
X117817621Y-118619332D01*
X117817624Y-118619340D01*
X117817629Y-118619354D01*
X117870417Y-118746797D01*
X117870422Y-118746806D01*
X117870432Y-118746823D01*
X117947087Y-118861544D01*
X117949591Y-118864596D01*
X117962561Y-118883820D01*
X117975528Y-118907565D01*
X117990700Y-118966997D01*
X117990700Y-120711308D01*
X117990700Y-120843092D01*
X118007501Y-120905793D01*
X118024808Y-120970387D01*
X118025332Y-120971294D01*
X118090700Y-121084514D01*
X120431700Y-123425514D01*
X120524886Y-123518700D01*
X120623721Y-123575763D01*
X120633490Y-123581403D01*
X120639014Y-123584592D01*
X120766308Y-123618700D01*
X120766310Y-123618700D01*
X145934090Y-123618700D01*
X145934092Y-123618700D01*
X146061386Y-123584592D01*
X146175514Y-123518700D01*
X148101699Y-121592515D01*
X148119268Y-121562086D01*
X148120055Y-121560724D01*
X148137723Y-121530120D01*
X148167592Y-121478386D01*
X148187789Y-121403008D01*
X148201700Y-121351093D01*
X148201700Y-121219308D01*
X148201700Y-117599308D01*
X148167592Y-117472014D01*
X148101700Y-117357886D01*
X148008514Y-117264700D01*
X147747282Y-117003468D01*
X147726133Y-116975218D01*
X147717949Y-116960230D01*
X147702937Y-116894610D01*
X147703644Y-116880470D01*
X147706919Y-116857708D01*
X147707397Y-116855716D01*
X147707402Y-116855701D01*
X147707404Y-116855685D01*
X147707406Y-116855679D01*
X147732225Y-116698975D01*
X147734500Y-116684611D01*
X147734500Y-116511389D01*
X147707402Y-116340299D01*
X147653873Y-116175555D01*
X147575232Y-116021212D01*
X147473414Y-115881072D01*
X147350928Y-115758586D01*
X147298185Y-115720266D01*
X147210792Y-115656770D01*
X147210784Y-115656766D01*
X147201936Y-115652258D01*
X147102319Y-115601501D01*
X147073942Y-115587042D01*
X147073935Y-115587035D01*
X147068607Y-115583164D01*
X147044287Y-115573090D01*
X147037767Y-115572058D01*
X147006101Y-115561769D01*
X146905227Y-115528992D01*
X146905216Y-115528989D01*
X146891701Y-115524598D01*
X146891699Y-115524597D01*
X146891698Y-115524597D01*
X146877296Y-115522316D01*
X146877292Y-115522315D01*
X146745866Y-115501500D01*
X146745865Y-115501499D01*
X146720611Y-115497500D01*
X146547389Y-115497500D01*
X146522133Y-115501500D01*
X146376302Y-115524596D01*
X146376301Y-115524596D01*
X146211547Y-115578129D01*
X146057210Y-115656768D01*
X145977256Y-115714859D01*
X145977255Y-115714859D01*
X145928941Y-115749961D01*
X145921564Y-115754092D01*
X145790094Y-115885562D01*
X145785964Y-115892938D01*
X145780320Y-115900707D01*
X145780317Y-115900712D01*
X145692768Y-116021211D01*
X145692765Y-116021215D01*
X145692764Y-116021218D01*
X145614129Y-116175547D01*
X145560598Y-116340297D01*
X145560596Y-116340303D01*
X145546390Y-116429999D01*
X145546391Y-116430000D01*
X145533500Y-116511389D01*
X145533500Y-116684611D01*
X145535775Y-116698975D01*
X145535775Y-116698976D01*
X145558095Y-116839902D01*
X145560596Y-116855693D01*
X145560597Y-116855697D01*
X145560598Y-116855701D01*
X145614127Y-117020445D01*
X145692768Y-117174788D01*
X145794586Y-117314928D01*
X145917072Y-117437414D01*
X146057212Y-117539232D01*
X146211555Y-117617873D01*
X146376299Y-117671402D01*
X146547389Y-117698500D01*
X146547390Y-117698500D01*
X146720610Y-117698500D01*
X146720611Y-117698500D01*
X146891684Y-117671405D01*
X146891687Y-117671404D01*
X146891701Y-117671402D01*
X146891713Y-117671398D01*
X146891978Y-117671335D01*
X146892926Y-117671208D01*
X146896518Y-117670640D01*
X146896532Y-117670729D01*
X146917407Y-117667952D01*
X146935749Y-117667427D01*
X147001025Y-117683841D01*
X147012571Y-117690470D01*
X147038511Y-117710325D01*
X147151773Y-117823587D01*
X147172923Y-117851839D01*
X147185531Y-117874928D01*
X147200700Y-117934357D01*
X147200700Y-118505978D01*
X147195675Y-118540919D01*
X147191764Y-118554236D01*
X147153987Y-118613012D01*
X147090440Y-118642032D01*
X147084919Y-118642826D01*
X147021777Y-118635443D01*
X146989246Y-118622614D01*
X146967146Y-118619960D01*
X146900854Y-118612000D01*
X146900848Y-118612000D01*
X146682800Y-118612000D01*
X146682800Y-121012000D01*
X146900859Y-121012000D01*
X146900861Y-121012000D01*
X146942786Y-121006965D01*
X146978064Y-121007786D01*
X146989225Y-121009657D01*
X147052085Y-121040156D01*
X147088478Y-121099799D01*
X147086853Y-121169637D01*
X147085657Y-121173386D01*
X147055204Y-121223380D01*
X145709812Y-122568773D01*
X145681561Y-122589922D01*
X145658473Y-122602530D01*
X145599043Y-122617700D01*
X144853706Y-122617700D01*
X144818771Y-122612677D01*
X144807917Y-122609490D01*
X144749139Y-122571716D01*
X144720114Y-122508160D01*
X144730054Y-122439011D01*
X144733244Y-122432024D01*
X144758353Y-122395860D01*
X144977500Y-122176714D01*
X145043392Y-122062586D01*
X145077500Y-121935292D01*
X145077500Y-121803507D01*
X145053306Y-121713212D01*
X145041460Y-121668215D01*
X145041616Y-121668151D01*
X145031666Y-121631012D01*
X145031586Y-121630708D01*
X145031598Y-121630272D01*
X145027500Y-121599139D01*
X145027500Y-120505053D01*
X145657800Y-120505053D01*
X145661692Y-120537470D01*
X145668412Y-120593441D01*
X145723878Y-120734094D01*
X145723879Y-120734095D01*
X145815235Y-120854564D01*
X145935703Y-120945919D01*
X145935704Y-120945920D01*
X146076356Y-121001386D01*
X146164746Y-121012000D01*
X146382800Y-121012000D01*
X146382800Y-119962000D01*
X145657800Y-119962000D01*
X145657800Y-120505053D01*
X145027500Y-120505053D01*
X145027500Y-119118946D01*
X145657800Y-119118946D01*
X145657800Y-119662000D01*
X146382800Y-119662000D01*
X146382800Y-118612000D01*
X146164752Y-118612000D01*
X146164746Y-118612000D01*
X146124959Y-118616777D01*
X146076357Y-118622612D01*
X145935704Y-118678078D01*
X145935703Y-118678079D01*
X145815235Y-118769435D01*
X145723879Y-118889903D01*
X145723878Y-118889904D01*
X145668412Y-119030557D01*
X145663084Y-119074939D01*
X145657800Y-119118946D01*
X145027500Y-119118946D01*
X145027500Y-117234406D01*
X145030924Y-117205468D01*
X145037589Y-117177705D01*
X145047674Y-117150366D01*
X145113873Y-117020445D01*
X145167402Y-116855701D01*
X145194500Y-116684611D01*
X145194500Y-116511389D01*
X145167402Y-116340299D01*
X145113873Y-116175555D01*
X145035232Y-116021212D01*
X144933414Y-115881072D01*
X144810928Y-115758586D01*
X144758185Y-115720266D01*
X144670792Y-115656770D01*
X144670784Y-115656766D01*
X144661936Y-115652258D01*
X144562319Y-115601501D01*
X144533942Y-115587042D01*
X144533935Y-115587035D01*
X144528607Y-115583164D01*
X144504287Y-115573090D01*
X144497767Y-115572058D01*
X144466101Y-115561769D01*
X144365227Y-115528992D01*
X144365216Y-115528989D01*
X144351701Y-115524598D01*
X144351699Y-115524597D01*
X144351698Y-115524597D01*
X144337296Y-115522316D01*
X144337292Y-115522315D01*
X144205866Y-115501500D01*
X144205865Y-115501499D01*
X144180611Y-115497500D01*
X144007389Y-115497500D01*
X143982133Y-115501500D01*
X143836302Y-115524596D01*
X143836301Y-115524596D01*
X143671551Y-115578128D01*
X143671544Y-115578131D01*
X143517210Y-115656767D01*
X143517208Y-115656768D01*
X143505804Y-115665054D01*
X143474596Y-115681521D01*
X143462403Y-115685872D01*
X143392647Y-115689864D01*
X143331807Y-115655509D01*
X143300362Y-115598884D01*
X143298632Y-115591896D01*
X143300020Y-115527164D01*
X143306934Y-115503615D01*
X143338228Y-115450873D01*
X143635165Y-115153935D01*
X143663415Y-115132788D01*
X143678400Y-115124605D01*
X143744019Y-115109594D01*
X143757312Y-115110259D01*
X143789434Y-115116174D01*
X143812747Y-115123749D01*
X143836299Y-115131402D01*
X144007389Y-115158500D01*
X144007390Y-115158500D01*
X144180610Y-115158500D01*
X144180611Y-115158500D01*
X144351701Y-115131402D01*
X144516445Y-115077873D01*
X144670788Y-114999232D01*
X144810928Y-114897414D01*
X144933414Y-114774928D01*
X145035232Y-114634788D01*
X145113873Y-114480445D01*
X145167402Y-114315701D01*
X145194500Y-114144611D01*
X145194500Y-113971389D01*
X145193882Y-113967487D01*
X145484000Y-113967487D01*
X145484000Y-114148511D01*
X145512317Y-114327296D01*
X145568242Y-114499420D01*
X145568250Y-114499442D01*
X145568251Y-114499444D01*
X145568252Y-114499447D01*
X145609178Y-114579767D01*
X145650427Y-114660723D01*
X145650432Y-114660731D01*
X145721424Y-114758442D01*
X145721425Y-114758443D01*
X146086702Y-114393164D01*
X146148021Y-114359682D01*
X146217713Y-114364666D01*
X146262061Y-114393167D01*
X146298830Y-114429936D01*
X146332315Y-114491259D01*
X146327331Y-114560951D01*
X146298830Y-114605298D01*
X145933554Y-114970573D01*
X145933555Y-114970573D01*
X145933555Y-114970574D01*
X146031268Y-115041567D01*
X146192552Y-115123747D01*
X146192555Y-115123748D01*
X146192564Y-115123751D01*
X146192578Y-115123756D01*
X146364703Y-115179681D01*
X146364706Y-115179682D01*
X146543494Y-115208000D01*
X146724505Y-115208000D01*
X146724506Y-115208000D01*
X146903293Y-115179682D01*
X146941660Y-115167216D01*
X147075420Y-115123756D01*
X147075424Y-115123754D01*
X147075444Y-115123748D01*
X147075447Y-115123747D01*
X147236730Y-115041568D01*
X147301846Y-114994256D01*
X147328585Y-114984715D01*
X147334443Y-114970573D01*
X146969168Y-114605299D01*
X146935683Y-114543976D01*
X146940667Y-114474285D01*
X146969166Y-114429939D01*
X147005939Y-114393166D01*
X147067260Y-114359683D01*
X147136952Y-114364667D01*
X147181299Y-114393168D01*
X147546573Y-114758443D01*
X147546573Y-114758442D01*
X147546574Y-114758443D01*
X147546574Y-114758442D01*
X147560042Y-114752863D01*
X147566259Y-114731694D01*
X147570257Y-114725846D01*
X147592475Y-114695266D01*
X147617568Y-114660730D01*
X147699747Y-114499447D01*
X147699748Y-114499444D01*
X147702408Y-114491259D01*
X147755681Y-114327296D01*
X147755680Y-114327296D01*
X147755682Y-114327293D01*
X147784000Y-114148506D01*
X147784000Y-113967493D01*
X147755682Y-113788706D01*
X147755681Y-113788702D01*
X147699756Y-113616578D01*
X147699748Y-113616555D01*
X147699747Y-113616552D01*
X147617567Y-113455268D01*
X147570255Y-113390150D01*
X147560715Y-113363412D01*
X147546573Y-113357554D01*
X147181298Y-113722830D01*
X147119975Y-113756315D01*
X147050283Y-113751331D01*
X147005936Y-113722830D01*
X146969168Y-113686062D01*
X146935683Y-113624739D01*
X146940667Y-113555047D01*
X146969168Y-113510700D01*
X147334443Y-113145425D01*
X147334442Y-113145424D01*
X147236731Y-113074432D01*
X147236725Y-113074429D01*
X147236724Y-113074428D01*
X147160607Y-113035644D01*
X147075447Y-112992252D01*
X147075444Y-112992251D01*
X147075443Y-112992250D01*
X147075442Y-112992250D01*
X147075420Y-112992242D01*
X146903295Y-112936317D01*
X146903296Y-112936317D01*
X146724511Y-112908000D01*
X146724506Y-112908000D01*
X146543494Y-112908000D01*
X146543489Y-112908000D01*
X146364702Y-112936317D01*
X146192627Y-112992226D01*
X146192550Y-112992252D01*
X146031270Y-113074430D01*
X146031261Y-113074435D01*
X145933556Y-113145422D01*
X145933556Y-113145423D01*
X145933556Y-113145425D01*
X146163220Y-113375089D01*
X146298831Y-113510699D01*
X146332316Y-113572022D01*
X146327332Y-113641713D01*
X146298832Y-113686060D01*
X146262063Y-113722830D01*
X146200741Y-113756316D01*
X146131049Y-113751332D01*
X146086700Y-113722831D01*
X145721425Y-113357556D01*
X145721423Y-113357556D01*
X145650435Y-113455261D01*
X145650430Y-113455270D01*
X145568252Y-113616550D01*
X145568226Y-113616627D01*
X145512317Y-113788702D01*
X145484000Y-113967487D01*
X145193882Y-113967487D01*
X145167402Y-113800299D01*
X145113873Y-113635555D01*
X145035232Y-113481212D01*
X144933414Y-113341072D01*
X144810928Y-113218586D01*
X144670788Y-113116768D01*
X144619452Y-113090611D01*
X144619452Y-113090610D01*
X144538284Y-113049253D01*
X144538269Y-113049247D01*
X144516447Y-113038128D01*
X144516446Y-113038127D01*
X144516445Y-113038127D01*
X144415898Y-113005457D01*
X144360532Y-112987467D01*
X144356010Y-112985614D01*
X144346820Y-112983444D01*
X144342057Y-112983070D01*
X144205866Y-112961500D01*
X144205865Y-112961499D01*
X144180611Y-112957500D01*
X144007389Y-112957500D01*
X143982133Y-112961499D01*
X143982134Y-112961500D01*
X143836302Y-112984597D01*
X143836270Y-112984604D01*
X143835824Y-112984752D01*
X143677800Y-113036098D01*
X143677799Y-113036097D01*
X143671560Y-113038124D01*
X143671547Y-113038130D01*
X143517213Y-113116766D01*
X143517212Y-113116766D01*
X143460357Y-113158076D01*
X143438668Y-113173834D01*
X143419447Y-113187798D01*
X143388938Y-113209964D01*
X143381562Y-113214094D01*
X143250092Y-113345564D01*
X143245963Y-113352938D01*
X143229874Y-113375084D01*
X143229872Y-113375087D01*
X143158989Y-113472648D01*
X143152768Y-113481211D01*
X143152766Y-113481213D01*
X143152764Y-113481218D01*
X143074129Y-113635549D01*
X143020596Y-113800305D01*
X142993500Y-113971383D01*
X142993500Y-114144615D01*
X143020592Y-114315670D01*
X143020598Y-114315704D01*
X143035406Y-114361277D01*
X143041424Y-114396051D01*
X143041911Y-114413118D01*
X143025494Y-114478404D01*
X143018865Y-114489948D01*
X142999014Y-114515880D01*
X142586758Y-114928136D01*
X142525435Y-114961621D01*
X142501489Y-114959908D01*
X142487657Y-115024109D01*
X142483967Y-115030929D01*
X142483511Y-115031386D01*
X142424201Y-115134113D01*
X142424201Y-115134114D01*
X142421965Y-115142455D01*
X142421964Y-115142458D01*
X142420320Y-115148592D01*
X142420319Y-115148595D01*
X142393500Y-115248689D01*
X142393500Y-115355670D01*
X142388475Y-115390612D01*
X142387741Y-115393114D01*
X142384070Y-115405612D01*
X142346327Y-115464355D01*
X142344958Y-115465542D01*
X142290097Y-115493018D01*
X142282539Y-115494663D01*
X142256168Y-115497500D01*
X140679319Y-115497500D01*
X140606285Y-115512027D01*
X140606262Y-115512032D01*
X140606258Y-115512033D01*
X140523399Y-115567399D01*
X140468033Y-115650258D01*
X140468032Y-115650266D01*
X140468028Y-115650281D01*
X140453500Y-115723318D01*
X140453500Y-115723321D01*
X140453500Y-117472678D01*
X140453500Y-117472680D01*
X140453499Y-117472680D01*
X140468028Y-117545717D01*
X140468032Y-117545733D01*
X140468033Y-117545740D01*
X140482818Y-117567867D01*
X140523399Y-117628601D01*
X140602489Y-117681447D01*
X140602490Y-117681447D01*
X140606258Y-117683965D01*
X140606260Y-117683966D01*
X140606264Y-117683967D01*
X140606280Y-117683970D01*
X140606288Y-117683972D01*
X140651021Y-117692869D01*
X140671681Y-117696979D01*
X140674415Y-117697703D01*
X140679323Y-117698500D01*
X140679324Y-117698500D01*
X140679326Y-117698500D01*
X142313863Y-117698500D01*
X142348799Y-117703523D01*
X142363797Y-117707927D01*
X142422570Y-117745697D01*
X142428377Y-117752398D01*
X142454443Y-117801513D01*
X142459606Y-117820782D01*
X142459607Y-117820784D01*
X142459608Y-117820787D01*
X142459609Y-117820788D01*
X142460434Y-117822216D01*
X142467770Y-117834923D01*
X142467772Y-117834926D01*
X142525497Y-117934910D01*
X142525501Y-117934915D01*
X143033373Y-118442787D01*
X143054523Y-118471039D01*
X143067131Y-118494128D01*
X143082300Y-118553557D01*
X143082300Y-118590308D01*
X143077275Y-118625249D01*
X143072196Y-118642543D01*
X143037722Y-118698353D01*
X143025104Y-118710102D01*
X143014914Y-118718617D01*
X142900265Y-118804443D01*
X142900253Y-118804453D01*
X142900250Y-118804456D01*
X142814005Y-118919665D01*
X142814004Y-118919666D01*
X142763706Y-119054520D01*
X142762399Y-119066681D01*
X142749163Y-119098633D01*
X142733331Y-119136864D01*
X142717856Y-119147609D01*
X142708604Y-119156121D01*
X142704750Y-119158729D01*
X142703821Y-119157356D01*
X142675942Y-119176716D01*
X142606117Y-119179216D01*
X142546026Y-119143568D01*
X142525894Y-119114578D01*
X142524374Y-119111542D01*
X142514577Y-119084541D01*
X142513391Y-119079525D01*
X142513391Y-119079517D01*
X142463097Y-118944671D01*
X142463093Y-118944664D01*
X142383819Y-118838768D01*
X142376848Y-118829456D01*
X142376842Y-118829450D01*
X142290380Y-118764725D01*
X142261635Y-118743206D01*
X142261631Y-118743204D01*
X142261627Y-118743201D01*
X142261625Y-118743200D01*
X142136954Y-118696702D01*
X142136951Y-118696701D01*
X142126786Y-118692910D01*
X142126785Y-118692909D01*
X142126783Y-118692909D01*
X142113321Y-118691461D01*
X142113314Y-118691460D01*
X142067183Y-118686501D01*
X142067181Y-118686500D01*
X142067173Y-118686500D01*
X142067165Y-118686500D01*
X141346423Y-118686500D01*
X141344492Y-118686659D01*
X141342845Y-118686885D01*
X141286816Y-118692908D01*
X141151977Y-118743200D01*
X141151966Y-118743204D01*
X141151965Y-118743205D01*
X141036756Y-118829450D01*
X141036750Y-118829456D01*
X140950505Y-118944665D01*
X140950503Y-118944668D01*
X140900207Y-119079516D01*
X140896765Y-119111546D01*
X140894464Y-119132958D01*
X140894398Y-119133569D01*
X140893800Y-119139131D01*
X140893800Y-120484876D01*
X140893959Y-120486806D01*
X140894185Y-120488454D01*
X140900207Y-120544482D01*
X140923885Y-120607964D01*
X140950502Y-120679328D01*
X140950506Y-120679335D01*
X140986742Y-120727740D01*
X141036750Y-120794542D01*
X141036756Y-120794548D01*
X141058199Y-120810600D01*
X141151964Y-120880793D01*
X141151971Y-120880797D01*
X141196918Y-120897561D01*
X141286817Y-120931091D01*
X141346427Y-120937500D01*
X142067172Y-120937499D01*
X142126783Y-120931091D01*
X142261631Y-120880796D01*
X142376846Y-120794546D01*
X142463096Y-120679331D01*
X142496205Y-120590561D01*
X142516103Y-120537213D01*
X142516793Y-120537470D01*
X142531991Y-120503439D01*
X142536964Y-120496294D01*
X142537216Y-120496469D01*
X142541092Y-120487114D01*
X142598488Y-120447271D01*
X142668314Y-120444783D01*
X142728399Y-120480441D01*
X142748526Y-120509434D01*
X142749628Y-120511636D01*
X142762028Y-120553874D01*
X142763705Y-120569475D01*
X142763707Y-120569480D01*
X142814002Y-120704328D01*
X142814006Y-120704335D01*
X142839126Y-120737891D01*
X142900250Y-120819542D01*
X142900252Y-120819544D01*
X142900255Y-120819547D01*
X143015464Y-120905793D01*
X143015471Y-120905797D01*
X143039096Y-120914608D01*
X143039097Y-120914609D01*
X143039098Y-120914609D01*
X143150317Y-120956091D01*
X143209927Y-120962500D01*
X143955672Y-120962499D01*
X143958527Y-120962499D01*
X143963340Y-120961675D01*
X143971530Y-120960794D01*
X144006781Y-120962053D01*
X144021168Y-120964649D01*
X144083646Y-120995922D01*
X144118733Y-121053870D01*
X144122081Y-121066073D01*
X144126500Y-121098881D01*
X144126500Y-121542894D01*
X144121476Y-121577831D01*
X144114064Y-121603072D01*
X144082769Y-121655816D01*
X143888012Y-121850573D01*
X143859761Y-121871722D01*
X143836673Y-121884330D01*
X143777243Y-121899500D01*
X121914506Y-121899500D01*
X121879570Y-121894477D01*
X121854328Y-121887065D01*
X121801583Y-121855769D01*
X121035067Y-121089253D01*
X129296600Y-121089253D01*
X129300549Y-121122143D01*
X129307212Y-121177641D01*
X129362678Y-121318294D01*
X129362679Y-121318295D01*
X129454035Y-121438764D01*
X129574503Y-121530119D01*
X129574504Y-121530120D01*
X129715156Y-121585586D01*
X129803546Y-121596200D01*
X130021600Y-121596200D01*
X130321600Y-121596200D01*
X130539649Y-121596200D01*
X130539654Y-121596200D01*
X130628043Y-121585586D01*
X130768695Y-121530120D01*
X130889164Y-121438764D01*
X130980520Y-121318295D01*
X131035986Y-121177643D01*
X131046600Y-121089253D01*
X131046600Y-120546200D01*
X130321600Y-120546200D01*
X130321600Y-121596200D01*
X130021600Y-121596200D01*
X130021600Y-120546200D01*
X129296600Y-120546200D01*
X129296600Y-121089253D01*
X121035067Y-121089253D01*
X120361426Y-120415612D01*
X120340274Y-120387356D01*
X120327667Y-120364267D01*
X120312500Y-120304842D01*
X120312500Y-118834907D01*
X120317522Y-118799974D01*
X120321433Y-118786655D01*
X120359206Y-118727878D01*
X120422758Y-118698853D01*
X120436385Y-118696894D01*
X120471906Y-118696927D01*
X120530739Y-118705500D01*
X120530740Y-118705500D01*
X121972261Y-118705500D01*
X121972262Y-118705500D01*
X121976803Y-118704838D01*
X121994971Y-118702191D01*
X122040393Y-118695573D01*
X122145483Y-118644198D01*
X122228198Y-118561483D01*
X122279573Y-118456393D01*
X122289500Y-118388260D01*
X122289500Y-118374000D01*
X122309185Y-118306961D01*
X122361989Y-118261206D01*
X122413500Y-118250000D01*
X122694841Y-118250000D01*
X122756841Y-118266613D01*
X122882407Y-118339109D01*
X122882408Y-118339109D01*
X122882411Y-118339111D01*
X123035009Y-118379999D01*
X123035011Y-118380000D01*
X123192989Y-118380000D01*
X123192990Y-118379999D01*
X123345590Y-118339110D01*
X123418743Y-118296874D01*
X123418742Y-118296873D01*
X123471154Y-118266613D01*
X123533155Y-118250000D01*
X123694841Y-118250000D01*
X123756841Y-118266613D01*
X123882407Y-118339109D01*
X123882408Y-118339109D01*
X123882411Y-118339111D01*
X124035009Y-118379999D01*
X124035011Y-118380000D01*
X124192989Y-118380000D01*
X124192990Y-118379999D01*
X124345590Y-118339110D01*
X124418743Y-118296874D01*
X124418742Y-118296873D01*
X124471154Y-118266613D01*
X124533155Y-118250000D01*
X124694841Y-118250000D01*
X124756841Y-118266613D01*
X124882407Y-118339109D01*
X124882408Y-118339109D01*
X124882411Y-118339111D01*
X125035009Y-118379999D01*
X125035011Y-118380000D01*
X125192989Y-118380000D01*
X125192990Y-118379999D01*
X125345590Y-118339110D01*
X125418743Y-118296874D01*
X125418742Y-118296873D01*
X125471154Y-118266613D01*
X125533155Y-118250000D01*
X125814500Y-118250000D01*
X125881539Y-118269685D01*
X125927294Y-118322489D01*
X125938500Y-118374000D01*
X125938500Y-118388260D01*
X125948426Y-118456391D01*
X125999803Y-118561485D01*
X126082514Y-118644196D01*
X126082515Y-118644196D01*
X126082517Y-118644198D01*
X126187607Y-118695573D01*
X126221673Y-118700536D01*
X126255739Y-118705500D01*
X126255740Y-118705500D01*
X127569515Y-118705500D01*
X127604447Y-118710521D01*
X127629691Y-118717934D01*
X127682437Y-118749230D01*
X127919411Y-118986203D01*
X128123179Y-119189971D01*
X128123189Y-119189982D01*
X128127519Y-119194312D01*
X128127520Y-119194313D01*
X128202087Y-119268880D01*
X128202089Y-119268881D01*
X128202090Y-119268882D01*
X128216158Y-119277004D01*
X128264105Y-119304686D01*
X128272460Y-119309510D01*
X128272463Y-119309512D01*
X128289958Y-119319613D01*
X128292936Y-119321462D01*
X128293408Y-119321605D01*
X128293410Y-119321606D01*
X128293411Y-119321606D01*
X128293412Y-119321606D01*
X128293413Y-119321607D01*
X128293428Y-119321611D01*
X128295277Y-119322171D01*
X128295319Y-119322183D01*
X128305970Y-119325408D01*
X128309174Y-119325830D01*
X128395273Y-119348901D01*
X128395275Y-119348901D01*
X128508323Y-119348901D01*
X128510227Y-119348901D01*
X128510290Y-119348900D01*
X129212031Y-119348900D01*
X129246963Y-119353921D01*
X129260282Y-119357832D01*
X129319060Y-119395606D01*
X129348085Y-119459159D01*
X129348879Y-119464680D01*
X129341496Y-119527822D01*
X129332335Y-119551053D01*
X129307213Y-119614756D01*
X129296600Y-119703146D01*
X129296600Y-120246200D01*
X131046600Y-120246200D01*
X131046600Y-119703149D01*
X131046599Y-119703143D01*
X131046023Y-119698346D01*
X132296100Y-119698346D01*
X132296100Y-121094076D01*
X132296259Y-121096006D01*
X132296485Y-121097654D01*
X132302507Y-121153682D01*
X132318815Y-121197405D01*
X132352802Y-121288528D01*
X132352806Y-121288535D01*
X132395686Y-121345816D01*
X132439050Y-121403742D01*
X132439056Y-121403748D01*
X132468019Y-121425429D01*
X132554264Y-121489993D01*
X132554269Y-121489996D01*
X132554271Y-121489997D01*
X132554273Y-121489998D01*
X132567429Y-121494904D01*
X132593743Y-121504719D01*
X132593745Y-121504720D01*
X132593746Y-121504720D01*
X132689117Y-121540291D01*
X132748727Y-121546700D01*
X133494472Y-121546699D01*
X133554083Y-121540291D01*
X133688931Y-121489996D01*
X133804146Y-121403746D01*
X133890396Y-121288531D01*
X133940691Y-121153683D01*
X133947100Y-121094073D01*
X133947099Y-120403526D01*
X133952121Y-120368594D01*
X133956525Y-120353596D01*
X133994270Y-120294844D01*
X133995639Y-120293657D01*
X134050520Y-120266176D01*
X134056555Y-120264864D01*
X134058082Y-120264532D01*
X134084431Y-120261700D01*
X134122893Y-120261700D01*
X134139078Y-120262761D01*
X134155052Y-120264864D01*
X134170959Y-120268028D01*
X134192976Y-120273927D01*
X134217507Y-120280500D01*
X134217508Y-120280500D01*
X134757670Y-120280500D01*
X134792606Y-120285523D01*
X134807604Y-120289927D01*
X134866355Y-120327672D01*
X134867542Y-120329041D01*
X134895018Y-120383902D01*
X134896663Y-120391460D01*
X134899500Y-120417831D01*
X134899500Y-120654678D01*
X134899500Y-120654680D01*
X134899499Y-120654680D01*
X134914028Y-120727717D01*
X134914032Y-120727735D01*
X134914033Y-120727739D01*
X134917480Y-120733826D01*
X134920816Y-120737891D01*
X134969399Y-120810601D01*
X135052256Y-120865964D01*
X135052258Y-120865965D01*
X135052259Y-120865965D01*
X135052260Y-120865966D01*
X135052264Y-120865967D01*
X135052279Y-120865970D01*
X135052288Y-120865972D01*
X135097021Y-120874869D01*
X135117681Y-120878979D01*
X135120415Y-120879703D01*
X135125323Y-120880500D01*
X136874676Y-120880500D01*
X136878796Y-120880500D01*
X136886648Y-120878117D01*
X136947740Y-120865966D01*
X137030601Y-120810601D01*
X137085966Y-120727740D01*
X137100500Y-120654674D01*
X137100500Y-120422329D01*
X137105523Y-120387393D01*
X137106021Y-120385699D01*
X137109927Y-120372394D01*
X137147672Y-120313644D01*
X137149041Y-120312457D01*
X137203920Y-120284977D01*
X137211479Y-120283333D01*
X137237832Y-120280500D01*
X137826971Y-120280500D01*
X137861907Y-120285523D01*
X137876905Y-120289927D01*
X137935656Y-120327672D01*
X137936843Y-120329041D01*
X137964319Y-120383902D01*
X137965964Y-120391460D01*
X137968801Y-120417831D01*
X137968801Y-120484882D01*
X137975207Y-120544481D01*
X137984529Y-120569475D01*
X138025502Y-120679328D01*
X138025506Y-120679335D01*
X138061742Y-120727740D01*
X138111750Y-120794542D01*
X138111756Y-120794548D01*
X138133199Y-120810600D01*
X138226964Y-120880793D01*
X138226971Y-120880797D01*
X138271918Y-120897561D01*
X138361817Y-120931091D01*
X138421427Y-120937500D01*
X139142172Y-120937499D01*
X139201783Y-120931091D01*
X139336631Y-120880796D01*
X139451846Y-120794546D01*
X139538096Y-120679331D01*
X139588391Y-120544483D01*
X139594800Y-120484873D01*
X139594799Y-119139128D01*
X139588916Y-119084400D01*
X139588391Y-119079516D01*
X139538097Y-118944671D01*
X139538093Y-118944664D01*
X139458819Y-118838768D01*
X139451848Y-118829456D01*
X139451842Y-118829450D01*
X139365380Y-118764725D01*
X139336635Y-118743206D01*
X139336631Y-118743204D01*
X139336627Y-118743201D01*
X139336625Y-118743200D01*
X139211954Y-118696702D01*
X139211951Y-118696701D01*
X139201786Y-118692910D01*
X139201785Y-118692909D01*
X139201783Y-118692909D01*
X139188321Y-118691461D01*
X139188314Y-118691460D01*
X139142183Y-118686501D01*
X139142181Y-118686500D01*
X139142173Y-118686500D01*
X139142165Y-118686500D01*
X138421423Y-118686500D01*
X138419492Y-118686659D01*
X138417845Y-118686885D01*
X138361816Y-118692908D01*
X138226977Y-118743200D01*
X138226966Y-118743204D01*
X138226965Y-118743205D01*
X138111756Y-118829450D01*
X138111750Y-118829456D01*
X138025505Y-118944665D01*
X138025503Y-118944668D01*
X137975207Y-119079516D01*
X137971765Y-119111546D01*
X137969464Y-119132958D01*
X137969398Y-119133569D01*
X137968799Y-119139134D01*
X137968693Y-119141704D01*
X137968585Y-119141699D01*
X137968585Y-119141706D01*
X137968429Y-119141693D01*
X137968222Y-119141684D01*
X137963775Y-119172614D01*
X137959370Y-119187612D01*
X137921627Y-119246355D01*
X137920258Y-119247542D01*
X137865397Y-119275018D01*
X137857839Y-119276663D01*
X137831468Y-119279500D01*
X137242330Y-119279500D01*
X137207389Y-119274475D01*
X137192390Y-119270070D01*
X137133644Y-119232327D01*
X137132457Y-119230958D01*
X137104977Y-119176083D01*
X137103332Y-119168521D01*
X137100500Y-119142168D01*
X137100500Y-118905139D01*
X137100064Y-118903134D01*
X137085972Y-118832289D01*
X137085967Y-118832266D01*
X137085967Y-118832264D01*
X137085966Y-118832260D01*
X137075822Y-118817078D01*
X137067388Y-118804456D01*
X137030601Y-118749399D01*
X137030597Y-118749395D01*
X136966544Y-118706598D01*
X136966542Y-118706596D01*
X136947741Y-118694034D01*
X136947740Y-118694033D01*
X136947739Y-118694033D01*
X136947735Y-118694032D01*
X136947725Y-118694030D01*
X136947709Y-118694026D01*
X136874680Y-118679500D01*
X136874677Y-118679500D01*
X136874674Y-118679500D01*
X135125326Y-118679500D01*
X135125323Y-118679500D01*
X135125319Y-118679500D01*
X135052285Y-118694027D01*
X135052262Y-118694032D01*
X135052258Y-118694033D01*
X134969399Y-118749399D01*
X134914033Y-118832258D01*
X134914032Y-118832266D01*
X134914028Y-118832281D01*
X134899500Y-118905318D01*
X134899500Y-119137670D01*
X134894475Y-119172614D01*
X134890070Y-119187612D01*
X134852327Y-119246355D01*
X134850958Y-119247542D01*
X134796097Y-119275018D01*
X134788539Y-119276663D01*
X134762168Y-119279500D01*
X134425106Y-119279500D01*
X134408922Y-119278439D01*
X134392947Y-119276336D01*
X134377042Y-119273173D01*
X134358307Y-119268153D01*
X134358304Y-119268152D01*
X134358302Y-119268151D01*
X134330496Y-119260700D01*
X134330492Y-119260700D01*
X133822493Y-119260700D01*
X133690708Y-119260700D01*
X133690703Y-119260700D01*
X133681816Y-119263081D01*
X133680112Y-119263538D01*
X133645065Y-119267728D01*
X133613454Y-119266975D01*
X133573073Y-119259191D01*
X133556169Y-119252886D01*
X133553162Y-119251703D01*
X133547471Y-119251398D01*
X133494483Y-119245701D01*
X133494481Y-119245700D01*
X133494473Y-119245700D01*
X133494465Y-119245700D01*
X132748723Y-119245700D01*
X132746792Y-119245859D01*
X132745145Y-119246085D01*
X132689116Y-119252108D01*
X132555336Y-119302005D01*
X132554266Y-119302404D01*
X132554265Y-119302405D01*
X132439056Y-119388650D01*
X132439050Y-119388656D01*
X132352805Y-119503865D01*
X132352803Y-119503868D01*
X132302507Y-119638716D01*
X132296101Y-119698316D01*
X132296101Y-119698319D01*
X132296100Y-119698346D01*
X131046023Y-119698346D01*
X131035986Y-119614756D01*
X130980520Y-119474104D01*
X130889164Y-119353635D01*
X130768694Y-119262278D01*
X130768691Y-119262276D01*
X130734820Y-119248919D01*
X130704163Y-119231429D01*
X130693212Y-119222908D01*
X130652390Y-119166204D01*
X130648702Y-119096449D01*
X130649837Y-119091661D01*
X130682811Y-119032580D01*
X133289369Y-116426023D01*
X133317619Y-116404875D01*
X133340711Y-116392267D01*
X133400136Y-116377100D01*
X134944261Y-116377100D01*
X134979189Y-116382120D01*
X134991619Y-116385770D01*
X135050396Y-116423541D01*
X135079424Y-116487095D01*
X135071583Y-116551383D01*
X135070280Y-116554594D01*
X135068098Y-116559970D01*
X135053521Y-116586218D01*
X135016434Y-116637265D01*
X135016427Y-116637276D01*
X134934249Y-116798558D01*
X134934249Y-116798559D01*
X134934242Y-116798578D01*
X134878317Y-116970702D01*
X134850000Y-117149487D01*
X134850000Y-117330511D01*
X134878317Y-117509296D01*
X134934227Y-117681372D01*
X134934250Y-117681442D01*
X134934251Y-117681444D01*
X134934252Y-117681447D01*
X134966990Y-117745697D01*
X135016427Y-117842723D01*
X135016432Y-117842731D01*
X135063742Y-117907847D01*
X135073282Y-117934585D01*
X135087424Y-117940443D01*
X135452701Y-117575165D01*
X135514022Y-117541682D01*
X135583713Y-117546666D01*
X135628061Y-117575167D01*
X135664830Y-117611936D01*
X135698315Y-117673259D01*
X135693331Y-117742951D01*
X135664830Y-117787298D01*
X135299554Y-118152573D01*
X135299555Y-118152573D01*
X135299555Y-118152574D01*
X135397268Y-118223567D01*
X135558552Y-118305747D01*
X135558555Y-118305748D01*
X135558564Y-118305751D01*
X135558578Y-118305756D01*
X135730703Y-118361681D01*
X135730706Y-118361682D01*
X135909494Y-118390000D01*
X136090505Y-118390000D01*
X136090506Y-118390000D01*
X136269293Y-118361682D01*
X136354110Y-118334124D01*
X136441420Y-118305756D01*
X136441424Y-118305754D01*
X136441444Y-118305748D01*
X136441447Y-118305747D01*
X136602730Y-118223568D01*
X136667846Y-118176256D01*
X136694585Y-118166715D01*
X136700443Y-118152573D01*
X136335168Y-117787299D01*
X136301683Y-117725976D01*
X136306667Y-117656285D01*
X136335166Y-117611939D01*
X136371939Y-117575166D01*
X136433260Y-117541683D01*
X136502952Y-117546667D01*
X136547299Y-117575168D01*
X136912573Y-117940443D01*
X136912573Y-117940442D01*
X136912574Y-117940443D01*
X136912574Y-117940442D01*
X136926042Y-117934863D01*
X136932259Y-117913694D01*
X136936257Y-117907846D01*
X136943761Y-117897518D01*
X136983568Y-117842730D01*
X137065747Y-117681447D01*
X137065748Y-117681444D01*
X137065760Y-117681405D01*
X137065772Y-117681372D01*
X137121681Y-117509296D01*
X137121680Y-117509296D01*
X137121682Y-117509293D01*
X137150000Y-117330506D01*
X137150000Y-117149493D01*
X137121682Y-116970706D01*
X137121056Y-116968779D01*
X137065756Y-116798578D01*
X137065748Y-116798555D01*
X137065747Y-116798552D01*
X136983567Y-116637268D01*
X136956042Y-116599384D01*
X136948573Y-116589103D01*
X136948572Y-116589102D01*
X136912574Y-116539556D01*
X136912574Y-116539555D01*
X136898114Y-116554014D01*
X136898113Y-116554014D01*
X136547298Y-116904830D01*
X136485975Y-116938315D01*
X136416283Y-116933331D01*
X136371936Y-116904830D01*
X136335167Y-116868061D01*
X136301682Y-116806738D01*
X136306666Y-116737046D01*
X136335165Y-116692701D01*
X136717722Y-116310145D01*
X136717722Y-116310140D01*
X136718960Y-116307857D01*
X136728460Y-116292956D01*
X136734677Y-116284589D01*
X136743072Y-116274865D01*
X136743515Y-116273983D01*
X136744168Y-116273595D01*
X136746521Y-116270870D01*
X138393789Y-114623600D01*
X138412571Y-114608185D01*
X138432493Y-114594874D01*
X138453918Y-114583422D01*
X138558811Y-114539975D01*
X138673542Y-114463314D01*
X138771114Y-114365742D01*
X138847775Y-114251011D01*
X138847783Y-114250993D01*
X138872687Y-114190868D01*
X138900580Y-114123528D01*
X138913339Y-114059386D01*
X138927500Y-113988195D01*
X138927500Y-113850204D01*
X138927500Y-113850201D01*
X138900341Y-113713670D01*
X138898254Y-113709257D01*
X138889474Y-113688060D01*
X138887957Y-113684397D01*
X138847778Y-113587395D01*
X138847771Y-113587382D01*
X138771114Y-113472658D01*
X138771111Y-113472654D01*
X138771106Y-113472648D01*
X138673547Y-113375089D01*
X138673544Y-113375087D01*
X138673540Y-113375084D01*
X138558823Y-113298432D01*
X138558822Y-113298431D01*
X138558817Y-113298428D01*
X138558804Y-113298421D01*
X138558797Y-113298417D01*
X138431354Y-113245629D01*
X138431340Y-113245624D01*
X138431332Y-113245621D01*
X138431322Y-113245618D01*
X138431319Y-113245617D01*
X138431315Y-113245616D01*
X138295998Y-113218700D01*
X138295995Y-113218700D01*
X138295993Y-113218700D01*
X138158007Y-113218700D01*
X138158005Y-113218700D01*
X138158000Y-113218700D01*
X138022683Y-113245616D01*
X138022677Y-113245618D01*
X138022667Y-113245621D01*
X138022662Y-113245622D01*
X138022644Y-113245629D01*
X137895201Y-113298417D01*
X137895192Y-113298422D01*
X137895175Y-113298432D01*
X137780459Y-113375084D01*
X137780454Y-113375087D01*
X137780452Y-113375089D01*
X137682892Y-113472648D01*
X137682887Y-113472654D01*
X137682886Y-113472655D01*
X137606232Y-113587375D01*
X137606222Y-113587392D01*
X137606217Y-113587401D01*
X137553429Y-113714844D01*
X137553416Y-113714883D01*
X137526500Y-113850200D01*
X137526500Y-113943826D01*
X137521237Y-113961747D01*
X137553414Y-114123507D01*
X137553416Y-114123516D01*
X137553423Y-114123537D01*
X137575713Y-114177350D01*
X137584441Y-114211548D01*
X137584650Y-114213485D01*
X137586112Y-114227089D01*
X137573705Y-114295845D01*
X137567610Y-114308021D01*
X137544408Y-114340197D01*
X137308532Y-114576073D01*
X137280280Y-114597223D01*
X137268915Y-114603429D01*
X137200642Y-114618282D01*
X137135177Y-114593866D01*
X137095268Y-114542870D01*
X137091660Y-114534333D01*
X137083406Y-114505467D01*
X137073402Y-114442299D01*
X137069385Y-114429937D01*
X137032919Y-114317706D01*
X137019873Y-114277555D01*
X137019871Y-114277552D01*
X137019871Y-114277550D01*
X136955709Y-114151625D01*
X136941232Y-114123212D01*
X136847522Y-113994232D01*
X136831055Y-113963023D01*
X136828014Y-113954500D01*
X136826129Y-113949219D01*
X136822139Y-113879465D01*
X136854818Y-113820286D01*
X136863665Y-113811354D01*
X136889759Y-113791232D01*
X136948913Y-113757080D01*
X137761710Y-112944281D01*
X137761713Y-112944280D01*
X137836280Y-112869713D01*
X137881387Y-112791586D01*
X137889007Y-112778388D01*
X137916300Y-112676527D01*
X137916300Y-112571073D01*
X137916300Y-111303461D01*
X137921321Y-111268534D01*
X137924507Y-111257681D01*
X137962277Y-111198900D01*
X138025831Y-111169871D01*
X138036287Y-111171373D01*
X138036981Y-111171102D01*
X138043567Y-111172420D01*
X138094986Y-111179809D01*
X138099406Y-111181828D01*
X138102823Y-111184276D01*
X138105493Y-111184811D01*
X138135557Y-111206922D01*
X140475380Y-113545773D01*
X140496550Y-113574047D01*
X140504731Y-113589030D01*
X140519744Y-113654642D01*
X140519079Y-113667937D01*
X140513165Y-113700065D01*
X140480603Y-113800279D01*
X140480598Y-113800295D01*
X140480598Y-113800297D01*
X140480597Y-113800301D01*
X140480595Y-113800311D01*
X140453500Y-113971383D01*
X140453500Y-114144615D01*
X140478315Y-114301293D01*
X140478316Y-114301301D01*
X140480597Y-114315697D01*
X140480597Y-114315699D01*
X140480598Y-114315701D01*
X140484989Y-114329216D01*
X140484992Y-114329227D01*
X140534128Y-114480449D01*
X140603797Y-114617182D01*
X140612768Y-114634788D01*
X140714586Y-114774928D01*
X140837072Y-114897414D01*
X140977212Y-114999232D01*
X141131555Y-115077873D01*
X141296299Y-115131402D01*
X141467389Y-115158500D01*
X141467390Y-115158500D01*
X141640610Y-115158500D01*
X141640611Y-115158500D01*
X141811701Y-115131402D01*
X141976445Y-115077873D01*
X142130788Y-114999232D01*
X142270928Y-114897414D01*
X142290910Y-114877431D01*
X142352230Y-114843946D01*
X142376185Y-114845658D01*
X142390245Y-114781028D01*
X142398755Y-114767575D01*
X142495232Y-114634788D01*
X142573873Y-114480445D01*
X142627402Y-114315701D01*
X142654500Y-114144611D01*
X142654500Y-113971389D01*
X142627402Y-113800299D01*
X142573873Y-113635555D01*
X142495232Y-113481212D01*
X142393414Y-113341072D01*
X142270928Y-113218586D01*
X142130788Y-113116768D01*
X142079452Y-113090611D01*
X142079452Y-113090610D01*
X141998284Y-113049253D01*
X141998269Y-113049247D01*
X141976447Y-113038128D01*
X141976446Y-113038127D01*
X141976445Y-113038127D01*
X141875898Y-113005457D01*
X141820532Y-112987467D01*
X141816010Y-112985614D01*
X141806820Y-112983444D01*
X141802057Y-112983070D01*
X141665866Y-112961500D01*
X141665865Y-112961499D01*
X141640611Y-112957500D01*
X141467389Y-112957500D01*
X141442133Y-112961500D01*
X141296314Y-112984594D01*
X141296301Y-112984597D01*
X141296279Y-112984603D01*
X141197351Y-113016747D01*
X141162576Y-113022765D01*
X141145509Y-113023252D01*
X141080225Y-113006835D01*
X141068680Y-113000206D01*
X141042748Y-112980355D01*
X138905026Y-110842633D01*
X138883874Y-110814377D01*
X138871267Y-110791288D01*
X138856100Y-110731863D01*
X138856100Y-105586075D01*
X138856100Y-105586073D01*
X138828807Y-105484213D01*
X138828807Y-105484212D01*
X138776080Y-105392887D01*
X137602713Y-104219520D01*
X137591919Y-104213288D01*
X137557050Y-104193155D01*
X137557050Y-104193156D01*
X137511389Y-104166793D01*
X137460457Y-104153146D01*
X137460456Y-104153145D01*
X137409530Y-104139500D01*
X137409527Y-104139500D01*
X137409526Y-104139500D01*
X137124872Y-104139500D01*
X137089933Y-104134476D01*
X137073554Y-104129666D01*
X137016543Y-104093884D01*
X137007611Y-104084012D01*
X136989076Y-104057112D01*
X136983449Y-104046069D01*
X136941233Y-103963213D01*
X136941232Y-103963211D01*
X136941230Y-103963208D01*
X136914930Y-103927010D01*
X136914929Y-103927010D01*
X136839414Y-103823072D01*
X136716928Y-103700586D01*
X136576788Y-103598768D01*
X136422449Y-103520128D01*
X136271215Y-103470988D01*
X136271203Y-103470985D01*
X136257701Y-103466598D01*
X136257699Y-103466597D01*
X136257698Y-103466597D01*
X136243312Y-103464318D01*
X136243306Y-103464317D01*
X136153188Y-103450044D01*
X136126271Y-103445781D01*
X136110407Y-103443268D01*
X136086614Y-103439500D01*
X136086611Y-103439500D01*
X135913389Y-103439500D01*
X135913388Y-103439500D01*
X135873726Y-103445781D01*
X135873725Y-103445780D01*
X135742304Y-103466596D01*
X135577549Y-103520129D01*
X135423210Y-103598768D01*
X135343256Y-103656859D01*
X135343255Y-103656859D01*
X135294941Y-103691961D01*
X135287564Y-103696092D01*
X135156092Y-103827564D01*
X135151961Y-103834941D01*
X135058770Y-103963207D01*
X134980101Y-104117604D01*
X134979631Y-104118544D01*
X134978550Y-104122406D01*
X134973000Y-104139491D01*
X134972997Y-104139499D01*
X134926596Y-104282305D01*
X134899500Y-104453383D01*
X134899500Y-104626614D01*
X134925424Y-104790295D01*
X134925425Y-104790300D01*
X134926598Y-104797701D01*
X134980127Y-104962445D01*
X135058768Y-105116788D01*
X135160586Y-105256928D01*
X135283072Y-105379414D01*
X135423212Y-105481232D01*
X135577555Y-105559873D01*
X135742299Y-105613402D01*
X135913389Y-105640500D01*
X135913390Y-105640500D01*
X136086610Y-105640500D01*
X136086611Y-105640500D01*
X136257701Y-105613402D01*
X136422445Y-105559873D01*
X136576788Y-105481232D01*
X136716928Y-105379414D01*
X136839414Y-105256928D01*
X136941232Y-105116788D01*
X136988466Y-105024084D01*
X137008792Y-104995250D01*
X137020522Y-104982830D01*
X137078285Y-104948278D01*
X137090202Y-104945055D01*
X137157512Y-104945775D01*
X137181891Y-104952934D01*
X137234637Y-104984230D01*
X138006173Y-105755766D01*
X138027323Y-105784018D01*
X138039931Y-105807107D01*
X138055100Y-105866536D01*
X138055100Y-108251937D01*
X138050076Y-108286875D01*
X138046889Y-108297728D01*
X138009114Y-108356505D01*
X137945557Y-108385528D01*
X137876403Y-108375585D01*
X137871984Y-108373567D01*
X137833248Y-108345811D01*
X137817247Y-108328830D01*
X137806163Y-108319770D01*
X137078600Y-107592207D01*
X137057451Y-107563957D01*
X137049266Y-107548967D01*
X137034254Y-107483347D01*
X137034919Y-107470053D01*
X137040833Y-107437934D01*
X137073402Y-107337701D01*
X137100500Y-107166611D01*
X137100500Y-106993389D01*
X137073402Y-106822299D01*
X137019873Y-106657555D01*
X136941232Y-106503212D01*
X136839414Y-106363072D01*
X136716928Y-106240586D01*
X136576788Y-106138768D01*
X136559951Y-106130189D01*
X136422449Y-106060128D01*
X136271227Y-106010992D01*
X136271216Y-106010989D01*
X136257701Y-106006598D01*
X136257699Y-106006597D01*
X136257698Y-106006597D01*
X136243296Y-106004316D01*
X136243292Y-106004315D01*
X136120781Y-105984912D01*
X136120780Y-105984911D01*
X136086611Y-105979500D01*
X135913389Y-105979500D01*
X135879218Y-105984912D01*
X135742302Y-106006596D01*
X135742301Y-106006596D01*
X135577547Y-106060129D01*
X135423210Y-106138768D01*
X135343256Y-106196859D01*
X135343255Y-106196859D01*
X135294941Y-106231961D01*
X135287564Y-106236092D01*
X135156092Y-106367564D01*
X135151961Y-106374941D01*
X135116859Y-106423255D01*
X135116859Y-106423256D01*
X135058768Y-106503210D01*
X134980129Y-106657549D01*
X134926596Y-106822305D01*
X134899500Y-106993383D01*
X134899500Y-106993389D01*
X134899500Y-107166611D01*
X134926598Y-107337701D01*
X134980127Y-107502445D01*
X135058768Y-107656788D01*
X135160586Y-107796928D01*
X135283072Y-107919414D01*
X135423212Y-108021232D01*
X135577555Y-108099873D01*
X135742299Y-108153402D01*
X135913389Y-108180500D01*
X135913390Y-108180500D01*
X136086610Y-108180500D01*
X136086611Y-108180500D01*
X136257701Y-108153402D01*
X136356648Y-108121250D01*
X136391426Y-108115233D01*
X136408485Y-108114746D01*
X136473764Y-108131158D01*
X136485314Y-108137790D01*
X136511249Y-108157642D01*
X137066373Y-108712766D01*
X137087523Y-108741018D01*
X137100131Y-108764107D01*
X137115300Y-108823536D01*
X137115300Y-108883333D01*
X137096327Y-108949252D01*
X137095600Y-108950410D01*
X137092418Y-108961241D01*
X137039607Y-109006988D01*
X136970447Y-109016921D01*
X136936588Y-109006974D01*
X136933766Y-109005685D01*
X136884978Y-108965785D01*
X136872599Y-108948747D01*
X136872599Y-108948746D01*
X136839414Y-108903072D01*
X136716930Y-108780588D01*
X136716928Y-108780586D01*
X136576788Y-108678768D01*
X136422449Y-108600128D01*
X136271215Y-108550988D01*
X136271203Y-108550985D01*
X136257701Y-108546598D01*
X136257699Y-108546597D01*
X136257698Y-108546597D01*
X136243312Y-108544318D01*
X136243306Y-108544317D01*
X136153188Y-108530044D01*
X136126271Y-108525781D01*
X136110407Y-108523268D01*
X136086614Y-108519500D01*
X136086611Y-108519500D01*
X135913389Y-108519500D01*
X135913388Y-108519500D01*
X135873726Y-108525781D01*
X135873725Y-108525780D01*
X135742304Y-108546596D01*
X135577549Y-108600129D01*
X135423210Y-108678768D01*
X135343256Y-108736859D01*
X135343255Y-108736859D01*
X135294941Y-108771961D01*
X135287564Y-108776092D01*
X135156093Y-108907563D01*
X135151961Y-108914942D01*
X135127401Y-108948746D01*
X135127401Y-108948747D01*
X135058768Y-109043210D01*
X134980129Y-109197549D01*
X134926596Y-109362305D01*
X134926595Y-109362306D01*
X134906876Y-109486817D01*
X134906876Y-109486820D01*
X134901641Y-109519874D01*
X134899500Y-109533389D01*
X134899500Y-109706611D01*
X134903635Y-109732716D01*
X134922585Y-109852368D01*
X134926598Y-109877701D01*
X134980127Y-110042445D01*
X135058768Y-110196788D01*
X135160586Y-110336928D01*
X135283072Y-110459414D01*
X135423212Y-110561232D01*
X135577555Y-110639873D01*
X135742299Y-110693402D01*
X135913389Y-110720500D01*
X135913390Y-110720500D01*
X136086610Y-110720500D01*
X136086611Y-110720500D01*
X136257701Y-110693402D01*
X136422445Y-110639873D01*
X136576788Y-110561232D01*
X136716928Y-110459414D01*
X136839414Y-110336928D01*
X136880503Y-110280372D01*
X136934616Y-110238188D01*
X136935834Y-110237698D01*
X136944758Y-110230814D01*
X137014369Y-110224816D01*
X137076173Y-110257406D01*
X137097733Y-110285350D01*
X137099257Y-110288049D01*
X137115300Y-110349050D01*
X137115300Y-111423333D01*
X137110276Y-111458271D01*
X137107089Y-111469124D01*
X137069314Y-111527901D01*
X137005757Y-111556924D01*
X136936619Y-111546988D01*
X136933796Y-111545699D01*
X136884978Y-111505785D01*
X136851390Y-111459555D01*
X136851390Y-111459556D01*
X136839414Y-111443072D01*
X136716928Y-111320586D01*
X136655536Y-111275982D01*
X136576792Y-111218770D01*
X136576784Y-111218766D01*
X136576444Y-111218593D01*
X136467479Y-111163073D01*
X136439942Y-111149042D01*
X136439938Y-111149038D01*
X136434605Y-111145163D01*
X136410287Y-111135090D01*
X136403767Y-111134058D01*
X136362409Y-111120620D01*
X136271227Y-111090992D01*
X136271216Y-111090989D01*
X136257701Y-111086598D01*
X136257699Y-111086597D01*
X136257698Y-111086597D01*
X136243296Y-111084316D01*
X136243292Y-111084315D01*
X136109902Y-111063189D01*
X136086611Y-111059500D01*
X136086610Y-111059500D01*
X135913390Y-111059500D01*
X135913389Y-111059500D01*
X135890098Y-111063189D01*
X135890097Y-111063189D01*
X135742302Y-111086596D01*
X135742301Y-111086596D01*
X135577547Y-111140129D01*
X135423211Y-111218767D01*
X135383769Y-111247425D01*
X135383768Y-111247425D01*
X135294942Y-111311961D01*
X135287563Y-111316093D01*
X135156096Y-111447560D01*
X135151965Y-111454937D01*
X135148611Y-111459555D01*
X135148608Y-111459559D01*
X135058770Y-111583206D01*
X135058767Y-111583211D01*
X135011534Y-111675912D01*
X134991201Y-111704756D01*
X134980273Y-111716328D01*
X134979484Y-111717163D01*
X134921715Y-111751721D01*
X134908863Y-111755197D01*
X134876484Y-111759500D01*
X134777271Y-111759500D01*
X134675411Y-111786792D01*
X134675408Y-111786793D01*
X134584097Y-111839513D01*
X134584082Y-111839523D01*
X134584080Y-111839524D01*
X133309433Y-113114173D01*
X133281182Y-113135322D01*
X133258094Y-113147930D01*
X133198664Y-113163100D01*
X130557314Y-113163100D01*
X130522375Y-113158076D01*
X130509057Y-113154165D01*
X130450280Y-113116389D01*
X130421258Y-113052834D01*
X130420984Y-113050931D01*
X130420464Y-113047310D01*
X130426831Y-112992845D01*
X130425639Y-112992544D01*
X130427582Y-112984851D01*
X130427585Y-112984844D01*
X130438200Y-112896453D01*
X130438200Y-112753400D01*
X129555030Y-112753400D01*
X129520089Y-112748375D01*
X129505090Y-112743970D01*
X129446344Y-112706227D01*
X129445157Y-112704858D01*
X129417677Y-112649983D01*
X129416032Y-112642421D01*
X129413200Y-112616068D01*
X129413200Y-112603400D01*
X129405030Y-112603400D01*
X129370089Y-112598375D01*
X129355090Y-112593970D01*
X129296344Y-112556227D01*
X129295157Y-112554858D01*
X129267677Y-112499983D01*
X129266032Y-112492421D01*
X129263200Y-112466068D01*
X129263200Y-112453400D01*
X129563200Y-112453400D01*
X130438200Y-112453400D01*
X130438200Y-112310346D01*
X130427586Y-112221956D01*
X130372120Y-112081304D01*
X130280764Y-111960835D01*
X130160295Y-111869479D01*
X130160296Y-111869479D01*
X130019641Y-111814012D01*
X129970262Y-111808083D01*
X129931254Y-111803400D01*
X129931249Y-111803400D01*
X129563200Y-111803400D01*
X129563200Y-112453400D01*
X129263200Y-112453400D01*
X129263200Y-111803400D01*
X128895146Y-111803400D01*
X128855359Y-111808177D01*
X128806757Y-111814012D01*
X128666104Y-111869478D01*
X128666103Y-111869479D01*
X128545635Y-111960835D01*
X128454280Y-112081301D01*
X128454277Y-112081307D01*
X128402543Y-112212496D01*
X128393977Y-112230032D01*
X128384054Y-112246845D01*
X128333027Y-112294574D01*
X128264297Y-112307139D01*
X128199684Y-112280551D01*
X128191786Y-112274216D01*
X128166272Y-112246380D01*
X128162807Y-112241195D01*
X128103114Y-112151858D01*
X128103111Y-112151854D01*
X128103106Y-112151848D01*
X128005550Y-112054292D01*
X128005544Y-112054287D01*
X128005543Y-112054286D01*
X127890823Y-111977632D01*
X127890822Y-111977631D01*
X127890817Y-111977628D01*
X127890804Y-111977621D01*
X127890797Y-111977617D01*
X127763354Y-111924829D01*
X127763340Y-111924824D01*
X127763332Y-111924821D01*
X127763322Y-111924818D01*
X127763319Y-111924817D01*
X127763315Y-111924816D01*
X127627998Y-111897900D01*
X127627995Y-111897900D01*
X127627993Y-111897900D01*
X127490007Y-111897900D01*
X127490005Y-111897900D01*
X127490000Y-111897900D01*
X127354683Y-111924816D01*
X127354677Y-111924818D01*
X127354667Y-111924821D01*
X127354662Y-111924822D01*
X127354644Y-111924829D01*
X127227201Y-111977617D01*
X127227192Y-111977622D01*
X127227175Y-111977632D01*
X127112455Y-112054286D01*
X127112454Y-112054287D01*
X127112448Y-112054292D01*
X127014892Y-112151848D01*
X127014887Y-112151854D01*
X127014886Y-112151855D01*
X126938232Y-112266575D01*
X126938222Y-112266592D01*
X126938217Y-112266601D01*
X126885429Y-112394044D01*
X126885416Y-112394083D01*
X126858500Y-112529400D01*
X126858500Y-112623026D01*
X126853237Y-112640946D01*
X126885416Y-112802715D01*
X126885417Y-112802719D01*
X126885418Y-112802722D01*
X126885421Y-112802732D01*
X126885424Y-112802740D01*
X126885429Y-112802754D01*
X126938217Y-112930197D01*
X126938221Y-112930204D01*
X126938228Y-112930217D01*
X127006529Y-113032435D01*
X127023737Y-113071304D01*
X127024700Y-113075163D01*
X127039058Y-113101455D01*
X127034077Y-113171147D01*
X126992208Y-113227083D01*
X126961232Y-113243999D01*
X126954045Y-113246680D01*
X126910706Y-113254500D01*
X126432749Y-113254500D01*
X126397814Y-113249477D01*
X126386960Y-113246290D01*
X126328182Y-113208516D01*
X126299157Y-113144960D01*
X126309100Y-113075803D01*
X126312290Y-113068819D01*
X126337398Y-113032657D01*
X126350511Y-113019545D01*
X126350514Y-113019542D01*
X126427175Y-112904811D01*
X126479980Y-112777328D01*
X126500031Y-112676526D01*
X126501848Y-112667394D01*
X126501848Y-112667392D01*
X126506900Y-112641996D01*
X126506900Y-112504001D01*
X126479741Y-112367469D01*
X126477655Y-112363059D01*
X126465494Y-112333700D01*
X126465494Y-112333699D01*
X126437699Y-112266595D01*
X126427178Y-112241195D01*
X126427171Y-112241182D01*
X126350514Y-112126458D01*
X126350511Y-112126454D01*
X126350506Y-112126448D01*
X126252947Y-112028889D01*
X126138217Y-111952228D01*
X126138209Y-111952223D01*
X126138206Y-111952222D01*
X126098031Y-111935581D01*
X126066295Y-111910006D01*
X126040548Y-111891435D01*
X126027133Y-111857328D01*
X126026556Y-111856123D01*
X126026244Y-111855066D01*
X126014975Y-111826414D01*
X126028615Y-111757889D01*
X126077137Y-111707616D01*
X126109982Y-111694698D01*
X126114970Y-111693520D01*
X126143471Y-111690200D01*
X126191600Y-111690200D01*
X126491600Y-111690200D01*
X126709649Y-111690200D01*
X126709654Y-111690200D01*
X126798043Y-111679586D01*
X126938695Y-111624120D01*
X127059164Y-111532764D01*
X127150520Y-111412295D01*
X127205986Y-111271643D01*
X127216600Y-111183253D01*
X127216600Y-110640200D01*
X126491600Y-110640200D01*
X126491600Y-111690200D01*
X126191600Y-111690200D01*
X126191600Y-110640200D01*
X125466600Y-110640200D01*
X125466600Y-111183253D01*
X125469442Y-111206922D01*
X125477212Y-111271641D01*
X125532678Y-111412294D01*
X125532679Y-111412295D01*
X125624035Y-111532764D01*
X125744504Y-111624120D01*
X125752678Y-111627343D01*
X125784314Y-111651955D01*
X125809045Y-111667704D01*
X125838334Y-111731139D01*
X125828677Y-111800338D01*
X125783142Y-111853331D01*
X125751098Y-111868126D01*
X125740026Y-111871427D01*
X125728789Y-111874213D01*
X125602083Y-111899416D01*
X125602077Y-111899418D01*
X125602067Y-111899421D01*
X125602062Y-111899422D01*
X125602044Y-111899429D01*
X125474601Y-111952217D01*
X125474592Y-111952222D01*
X125474575Y-111952232D01*
X125359855Y-112028886D01*
X125359846Y-112028892D01*
X125359616Y-112029093D01*
X125359132Y-112029428D01*
X125356345Y-112031520D01*
X125356268Y-112031417D01*
X125337825Y-112044227D01*
X125313831Y-112057330D01*
X125254400Y-112072500D01*
X124736706Y-112072500D01*
X124701770Y-112067477D01*
X124676528Y-112060065D01*
X124623783Y-112028769D01*
X124170698Y-111575684D01*
X124149546Y-111547428D01*
X124142054Y-111533707D01*
X124127203Y-111465440D01*
X124127242Y-111464883D01*
X124127655Y-111459116D01*
X124152067Y-111393656D01*
X124160396Y-111382531D01*
X124210691Y-111247683D01*
X124217100Y-111188073D01*
X124217099Y-109792328D01*
X124210691Y-109732717D01*
X124174070Y-109634534D01*
X124166569Y-109600049D01*
X124165737Y-109588412D01*
X124165579Y-109586205D01*
X124180430Y-109517936D01*
X124229832Y-109468532D01*
X124231347Y-109467705D01*
X124235084Y-109465665D01*
X124294505Y-109450500D01*
X125379034Y-109450500D01*
X125413966Y-109455521D01*
X125427285Y-109459432D01*
X125486063Y-109497206D01*
X125515088Y-109560759D01*
X125515882Y-109566280D01*
X125508499Y-109629422D01*
X125477213Y-109708754D01*
X125477213Y-109708756D01*
X125466600Y-109797146D01*
X125466600Y-110340200D01*
X127216600Y-110340200D01*
X127216600Y-109797146D01*
X127205986Y-109708756D01*
X127177521Y-109636574D01*
X127169378Y-109602239D01*
X127168130Y-109588409D01*
X127181707Y-109519874D01*
X127230182Y-109469558D01*
X127233284Y-109467788D01*
X127235056Y-109466779D01*
X127296474Y-109450500D01*
X129721162Y-109450500D01*
X129756094Y-109455521D01*
X129781338Y-109462934D01*
X129834084Y-109494230D01*
X131213273Y-110873419D01*
X131234423Y-110901671D01*
X131247031Y-110924760D01*
X131262200Y-110984189D01*
X131262200Y-111035751D01*
X131257176Y-111070688D01*
X131249764Y-111095929D01*
X131218469Y-111148673D01*
X131205892Y-111161249D01*
X131205885Y-111161257D01*
X131205882Y-111161262D01*
X131129232Y-111275975D01*
X131129222Y-111275992D01*
X131129217Y-111276001D01*
X131076429Y-111403444D01*
X131076416Y-111403483D01*
X131049500Y-111538800D01*
X131049500Y-111676798D01*
X131076416Y-111812115D01*
X131076417Y-111812119D01*
X131076418Y-111812122D01*
X131076421Y-111812132D01*
X131076424Y-111812140D01*
X131076429Y-111812154D01*
X131129217Y-111939597D01*
X131129222Y-111939606D01*
X131129232Y-111939623D01*
X131205886Y-112054343D01*
X131205887Y-112054344D01*
X131205892Y-112054350D01*
X131303448Y-112151906D01*
X131303454Y-112151911D01*
X131303458Y-112151914D01*
X131418182Y-112228571D01*
X131418195Y-112228578D01*
X131545667Y-112281378D01*
X131545672Y-112281380D01*
X131545676Y-112281380D01*
X131545677Y-112281381D01*
X131589957Y-112290189D01*
X131681002Y-112308300D01*
X131818995Y-112308300D01*
X131818996Y-112308300D01*
X131887997Y-112294574D01*
X131910041Y-112290189D01*
X131954328Y-112281380D01*
X132067396Y-112234546D01*
X132081804Y-112228578D01*
X132081804Y-112228577D01*
X132081811Y-112228575D01*
X132196542Y-112151914D01*
X132225452Y-112123004D01*
X132246617Y-112101840D01*
X132246621Y-112101837D01*
X132274863Y-112080695D01*
X132288589Y-112073200D01*
X132306018Y-112069408D01*
X132307942Y-112068358D01*
X132310127Y-112068514D01*
X132356846Y-112058349D01*
X132358656Y-112058478D01*
X132416853Y-112077844D01*
X132423371Y-112082033D01*
X132444001Y-112098658D01*
X132522654Y-112177311D01*
X132522658Y-112177314D01*
X132637382Y-112253971D01*
X132637395Y-112253978D01*
X132763071Y-112306034D01*
X132764872Y-112306780D01*
X132764874Y-112306780D01*
X132764876Y-112306781D01*
X132900201Y-112333700D01*
X133038195Y-112333700D01*
X133038196Y-112333700D01*
X133140529Y-112313344D01*
X133173528Y-112306780D01*
X133301011Y-112253975D01*
X133415742Y-112177314D01*
X133513314Y-112079742D01*
X133589975Y-111965011D01*
X133642780Y-111837528D01*
X133660006Y-111750927D01*
X133669700Y-111702195D01*
X133669700Y-111564204D01*
X133669700Y-111564201D01*
X133642541Y-111427670D01*
X133640454Y-111423257D01*
X133623584Y-111382528D01*
X133589978Y-111301395D01*
X133589971Y-111301382D01*
X133513314Y-111186658D01*
X133513311Y-111186654D01*
X133513306Y-111186648D01*
X133415750Y-111089092D01*
X133415744Y-111089087D01*
X133415743Y-111089086D01*
X133301023Y-111012432D01*
X133301022Y-111012431D01*
X133301017Y-111012428D01*
X133301004Y-111012421D01*
X133300997Y-111012417D01*
X133173554Y-110959629D01*
X133173540Y-110959624D01*
X133173532Y-110959621D01*
X133173522Y-110959618D01*
X133173519Y-110959617D01*
X133173515Y-110959616D01*
X133038198Y-110932700D01*
X133038195Y-110932700D01*
X133038193Y-110932700D01*
X132969506Y-110932700D01*
X132934570Y-110927677D01*
X132909328Y-110920265D01*
X132856583Y-110888969D01*
X132454081Y-110486467D01*
X132432931Y-110458214D01*
X132417044Y-110429120D01*
X132404258Y-110393885D01*
X132388201Y-110313156D01*
X132340848Y-110198836D01*
X132339861Y-110196193D01*
X132339164Y-110194769D01*
X132267977Y-110088231D01*
X132267971Y-110088224D01*
X131372024Y-109192277D01*
X130474476Y-108294728D01*
X130474468Y-108294722D01*
X130437119Y-108269766D01*
X130437119Y-108269767D01*
X130367927Y-108223535D01*
X130367925Y-108223534D01*
X130249553Y-108174502D01*
X130249533Y-108174495D01*
X130249525Y-108174493D01*
X130123874Y-108149500D01*
X130123871Y-108149500D01*
X130123869Y-108149500D01*
X129398938Y-108149500D01*
X129364003Y-108144477D01*
X129353149Y-108141290D01*
X129294371Y-108103516D01*
X129265346Y-108039960D01*
X129275286Y-107970811D01*
X129277749Y-107965417D01*
X129304031Y-107928094D01*
X129324764Y-107907903D01*
X129330336Y-107901030D01*
X129402948Y-107828419D01*
X129402951Y-107828416D01*
X129485084Y-107705495D01*
X129488892Y-107696303D01*
X129539981Y-107572960D01*
X129541145Y-107570409D01*
X129541656Y-107568917D01*
X129541658Y-107568913D01*
X129570500Y-107423918D01*
X129570500Y-106576082D01*
X129570500Y-106576079D01*
X129570500Y-106576076D01*
X129541419Y-106429887D01*
X129539340Y-106425492D01*
X129517475Y-106372704D01*
X129485087Y-106294511D01*
X129485080Y-106294498D01*
X129402951Y-106171584D01*
X129402948Y-106171580D01*
X129402943Y-106171574D01*
X129298424Y-106067055D01*
X129298418Y-106067050D01*
X129298417Y-106067049D01*
X129175507Y-105984923D01*
X129175506Y-105984922D01*
X129175501Y-105984919D01*
X129175488Y-105984912D01*
X129175486Y-105984911D01*
X129175481Y-105984908D01*
X129038919Y-105928344D01*
X129038920Y-105928344D01*
X129038917Y-105928343D01*
X129038907Y-105928340D01*
X129038905Y-105928339D01*
X129038900Y-105928338D01*
X128893922Y-105899500D01*
X128893920Y-105899500D01*
X128893918Y-105899500D01*
X128746082Y-105899500D01*
X128746080Y-105899500D01*
X128746078Y-105899500D01*
X128601096Y-105928338D01*
X128601079Y-105928344D01*
X128464517Y-105984908D01*
X128464511Y-105984912D01*
X128464491Y-105984923D01*
X128341581Y-106067049D01*
X128341580Y-106067050D01*
X128341574Y-106067055D01*
X128237055Y-106171574D01*
X128237050Y-106171580D01*
X128237049Y-106171581D01*
X128154917Y-106294499D01*
X128154912Y-106294511D01*
X128153858Y-106297055D01*
X128135849Y-106327404D01*
X128127141Y-106338209D01*
X128069747Y-106378055D01*
X127999924Y-106380545D01*
X127999606Y-106380464D01*
X127998477Y-106380176D01*
X127946627Y-106352550D01*
X127942641Y-106348992D01*
X127926411Y-106331410D01*
X127898434Y-106294517D01*
X127849721Y-106230278D01*
X127839355Y-106222417D01*
X127734731Y-106143078D01*
X127734729Y-106143077D01*
X127600467Y-106090131D01*
X127600466Y-106090130D01*
X127600464Y-106090130D01*
X127556943Y-106084904D01*
X127516102Y-106080000D01*
X127516097Y-106080000D01*
X127400000Y-106080000D01*
X127400000Y-107038170D01*
X127394975Y-107073114D01*
X127390570Y-107088112D01*
X127352827Y-107146855D01*
X127351458Y-107148042D01*
X127296597Y-107175518D01*
X127289039Y-107177163D01*
X127262668Y-107180000D01*
X127241830Y-107180000D01*
X127206889Y-107174975D01*
X127191890Y-107170570D01*
X127133144Y-107132827D01*
X127131957Y-107131458D01*
X127104477Y-107076583D01*
X127102832Y-107069021D01*
X127100000Y-107042668D01*
X127100000Y-106080000D01*
X126983898Y-106080000D01*
X126914128Y-106088378D01*
X126906893Y-106089247D01*
X126902939Y-106089483D01*
X126899526Y-106090132D01*
X126765272Y-106143075D01*
X126765270Y-106143076D01*
X126666644Y-106217867D01*
X126635773Y-106234973D01*
X126621160Y-106240527D01*
X126551503Y-106245944D01*
X126542160Y-106243972D01*
X126494141Y-106222417D01*
X126432882Y-106177207D01*
X126432880Y-106177206D01*
X126344735Y-106146362D01*
X126304704Y-106132354D01*
X126304702Y-106132353D01*
X126304700Y-106132353D01*
X126274270Y-106129500D01*
X126274266Y-106129500D01*
X126274264Y-106129500D01*
X125765734Y-106129500D01*
X125765730Y-106129500D01*
X125762123Y-106129838D01*
X125758377Y-106130189D01*
X125758375Y-106130189D01*
X125735300Y-106132353D01*
X125735298Y-106132353D01*
X125607119Y-106177206D01*
X125607114Y-106177209D01*
X125572563Y-106202707D01*
X125557238Y-106208689D01*
X125556338Y-106208766D01*
X125554697Y-106209649D01*
X125539077Y-106215354D01*
X125505611Y-106217770D01*
X125492252Y-106221961D01*
X125486976Y-106221301D01*
X125486935Y-106222076D01*
X125483666Y-106221902D01*
X125472889Y-106220133D01*
X125471172Y-106220258D01*
X125468162Y-106219629D01*
X125468216Y-106219367D01*
X125457622Y-106217628D01*
X125457231Y-106217580D01*
X125457091Y-106217541D01*
X125456940Y-106217517D01*
X125453312Y-106216505D01*
X125453047Y-106216340D01*
X125430334Y-106207550D01*
X125428221Y-106206473D01*
X125428220Y-106206472D01*
X125310244Y-106146360D01*
X125293655Y-106136194D01*
X125287852Y-106131978D01*
X125278053Y-106124858D01*
X125263259Y-106112222D01*
X123225563Y-104074526D01*
X123225562Y-104074525D01*
X123139938Y-104025090D01*
X123139937Y-104025089D01*
X123139933Y-104025088D01*
X123098235Y-104013915D01*
X123098232Y-104013914D01*
X123044437Y-103999500D01*
X123044436Y-103999500D01*
X123044435Y-103999500D01*
X121009555Y-103999500D01*
X120974616Y-103994476D01*
X120961298Y-103990565D01*
X120902521Y-103952789D01*
X120873499Y-103889232D01*
X120873498Y-103889228D01*
X120872753Y-103884044D01*
X120880929Y-103818956D01*
X120899983Y-103772955D01*
X120901145Y-103770411D01*
X120901656Y-103768917D01*
X120901658Y-103768913D01*
X120915249Y-103700588D01*
X120930500Y-103623920D01*
X128069499Y-103623920D01*
X128098340Y-103768907D01*
X128098343Y-103768917D01*
X128098819Y-103770067D01*
X128098820Y-103770070D01*
X128154908Y-103905481D01*
X128154913Y-103905490D01*
X128154923Y-103905507D01*
X128237049Y-104028417D01*
X128237050Y-104028418D01*
X128237055Y-104028424D01*
X128341574Y-104132943D01*
X128341580Y-104132948D01*
X128341584Y-104132951D01*
X128464498Y-104215080D01*
X128464511Y-104215087D01*
X128601082Y-104271656D01*
X128601087Y-104271658D01*
X128601091Y-104271658D01*
X128601092Y-104271659D01*
X128601357Y-104271711D01*
X128601358Y-104271712D01*
X128601382Y-104271717D01*
X128746077Y-104300500D01*
X128746079Y-104300500D01*
X128746082Y-104300500D01*
X128893920Y-104300500D01*
X128991462Y-104281096D01*
X129038913Y-104271658D01*
X129175495Y-104215084D01*
X129298416Y-104132951D01*
X129402951Y-104028416D01*
X129485084Y-103905495D01*
X129541658Y-103768913D01*
X129555249Y-103700588D01*
X129570500Y-103623920D01*
X129570500Y-102776079D01*
X129570500Y-102776076D01*
X129541419Y-102629884D01*
X129539332Y-102625471D01*
X129519167Y-102576788D01*
X129485090Y-102494517D01*
X129485085Y-102494508D01*
X129485080Y-102494498D01*
X129402951Y-102371584D01*
X129402948Y-102371580D01*
X129402943Y-102371574D01*
X129298424Y-102267055D01*
X129298418Y-102267050D01*
X129298417Y-102267049D01*
X129175507Y-102184923D01*
X129175506Y-102184922D01*
X129175501Y-102184919D01*
X129175488Y-102184912D01*
X129175481Y-102184908D01*
X129038919Y-102128344D01*
X129038920Y-102128344D01*
X129038917Y-102128343D01*
X129038907Y-102128340D01*
X129038905Y-102128339D01*
X129038900Y-102128338D01*
X128893922Y-102099500D01*
X128893920Y-102099500D01*
X128893918Y-102099500D01*
X128746082Y-102099500D01*
X128746080Y-102099500D01*
X128746078Y-102099500D01*
X128601096Y-102128338D01*
X128601079Y-102128344D01*
X128464517Y-102184908D01*
X128464508Y-102184913D01*
X128464491Y-102184923D01*
X128341581Y-102267049D01*
X128341580Y-102267050D01*
X128341574Y-102267055D01*
X128237055Y-102371574D01*
X128237050Y-102371580D01*
X128237049Y-102371581D01*
X128154923Y-102494491D01*
X128154913Y-102494508D01*
X128154908Y-102494517D01*
X128098344Y-102631079D01*
X128098338Y-102631098D01*
X128069500Y-102776076D01*
X128069500Y-102776079D01*
X128069500Y-102776082D01*
X128069500Y-103623918D01*
X128069500Y-103623920D01*
X128069499Y-103623920D01*
X120930500Y-103623920D01*
X120930500Y-102776079D01*
X120930500Y-102776076D01*
X120901419Y-102629884D01*
X120899332Y-102625471D01*
X120879167Y-102576788D01*
X120845090Y-102494517D01*
X120845085Y-102494508D01*
X120845080Y-102494498D01*
X120762951Y-102371584D01*
X120762948Y-102371580D01*
X120762943Y-102371574D01*
X120658424Y-102267055D01*
X120658418Y-102267050D01*
X120658417Y-102267049D01*
X120535507Y-102184923D01*
X120535506Y-102184922D01*
X120535501Y-102184919D01*
X120535488Y-102184912D01*
X120535481Y-102184908D01*
X120398919Y-102128344D01*
X120398920Y-102128344D01*
X120398917Y-102128343D01*
X120398907Y-102128340D01*
X120398905Y-102128339D01*
X120398900Y-102128338D01*
X120253922Y-102099500D01*
X120253920Y-102099500D01*
X120253918Y-102099500D01*
X120106082Y-102099500D01*
X120106080Y-102099500D01*
X120106078Y-102099500D01*
X119961096Y-102128338D01*
X119961079Y-102128344D01*
X119824517Y-102184908D01*
X119824508Y-102184913D01*
X119824491Y-102184923D01*
X119701581Y-102267049D01*
X119701580Y-102267050D01*
X119701574Y-102267055D01*
X119597055Y-102371574D01*
X119597050Y-102371580D01*
X119597049Y-102371581D01*
X119514923Y-102494491D01*
X119514913Y-102494508D01*
X119514908Y-102494517D01*
X119458344Y-102631079D01*
X119458338Y-102631098D01*
X119429500Y-102776076D01*
X119429500Y-103579551D01*
X119424237Y-103597471D01*
X119458338Y-103768899D01*
X119458341Y-103768911D01*
X119458346Y-103768924D01*
X119476014Y-103811580D01*
X119484741Y-103845769D01*
X119486225Y-103859565D01*
X119473823Y-103928325D01*
X119426215Y-103979465D01*
X119426211Y-103979468D01*
X119421706Y-103982141D01*
X119358431Y-103999500D01*
X118564182Y-103999500D01*
X118529241Y-103994475D01*
X118514242Y-103990070D01*
X118455473Y-103952301D01*
X118448056Y-103943742D01*
X118431709Y-103919663D01*
X118427793Y-103912119D01*
X118427793Y-103912118D01*
X118394558Y-103867086D01*
X118347150Y-103802850D01*
X118237882Y-103722207D01*
X118237880Y-103722206D01*
X118109704Y-103677354D01*
X118109702Y-103677353D01*
X118109700Y-103677353D01*
X118079270Y-103674500D01*
X118079266Y-103674500D01*
X118079264Y-103674500D01*
X117420734Y-103674500D01*
X117420730Y-103674500D01*
X117402074Y-103676249D01*
X117396069Y-103676812D01*
X117392499Y-103676978D01*
X117390297Y-103677353D01*
X117262118Y-103722206D01*
X117152849Y-103802849D01*
X117072206Y-103912118D01*
X117027353Y-104040297D01*
X117026978Y-104042499D01*
X117026812Y-104046069D01*
X117024500Y-104070733D01*
X117024500Y-104557670D01*
X117019475Y-104592614D01*
X117015070Y-104607612D01*
X116977327Y-104666355D01*
X116975958Y-104667542D01*
X116921097Y-104695018D01*
X116913539Y-104696663D01*
X116887168Y-104699500D01*
X116785810Y-104699500D01*
X116750871Y-104694476D01*
X116729265Y-104688131D01*
X116679414Y-104659635D01*
X116676472Y-104656878D01*
X116661499Y-104640040D01*
X116597151Y-104552851D01*
X116487882Y-104472207D01*
X116487880Y-104472206D01*
X116359704Y-104427354D01*
X116359702Y-104427353D01*
X116359700Y-104427353D01*
X116329270Y-104424500D01*
X116329266Y-104424500D01*
X116329264Y-104424500D01*
X115670734Y-104424500D01*
X115670730Y-104424500D01*
X115652074Y-104426249D01*
X115646069Y-104426812D01*
X115642499Y-104426978D01*
X115640297Y-104427353D01*
X115512118Y-104472206D01*
X115402849Y-104552849D01*
X115322206Y-104662118D01*
X115277353Y-104790297D01*
X115276978Y-104792499D01*
X115276812Y-104796069D01*
X115274500Y-104820733D01*
X115274500Y-105329265D01*
X115276812Y-105353929D01*
X115276978Y-105357499D01*
X115277353Y-105359701D01*
X115320923Y-105484214D01*
X115322206Y-105487881D01*
X115322207Y-105487882D01*
X115402850Y-105597150D01*
X115512117Y-105677792D01*
X115512118Y-105677793D01*
X115640299Y-105722646D01*
X115640303Y-105722647D01*
X115658742Y-105724375D01*
X115670730Y-105725500D01*
X115670734Y-105725500D01*
X115670739Y-105725500D01*
X116329270Y-105725500D01*
X116329271Y-105725500D01*
X116330576Y-105725377D01*
X116359699Y-105722646D01*
X116359701Y-105722646D01*
X116423790Y-105700219D01*
X116487882Y-105677793D01*
X116597150Y-105597150D01*
X116657622Y-105515212D01*
X116682404Y-105490089D01*
X116700343Y-105476468D01*
X116752916Y-105453270D01*
X116755534Y-105452789D01*
X116756880Y-105452542D01*
X116779289Y-105450500D01*
X118724435Y-105450500D01*
X118724436Y-105450500D01*
X118772186Y-105437705D01*
X118819938Y-105424910D01*
X118905562Y-105375475D01*
X118975475Y-105305562D01*
X119006615Y-105274421D01*
X119034863Y-105253275D01*
X119057955Y-105240667D01*
X119117380Y-105225500D01*
X122245271Y-105225500D01*
X122280203Y-105230521D01*
X122305447Y-105237934D01*
X122358193Y-105269230D01*
X122994173Y-105905211D01*
X123015322Y-105933461D01*
X123020743Y-105943388D01*
X123035597Y-106011661D01*
X123011183Y-106077126D01*
X122955251Y-106118999D01*
X122955247Y-106119001D01*
X122948059Y-106121682D01*
X122904725Y-106129500D01*
X122725730Y-106129500D01*
X122707074Y-106131249D01*
X122701069Y-106131812D01*
X122697499Y-106131978D01*
X122695295Y-106132353D01*
X122567122Y-106177204D01*
X122563173Y-106179685D01*
X122559641Y-106182725D01*
X122510462Y-106219020D01*
X122479366Y-106235725D01*
X122464683Y-106241087D01*
X122394978Y-106245598D01*
X122387747Y-106243974D01*
X122385665Y-106243506D01*
X122337911Y-106221323D01*
X122295973Y-106189520D01*
X122272727Y-106158061D01*
X122137581Y-106104767D01*
X122100467Y-106090131D01*
X122100466Y-106090130D01*
X122100464Y-106090130D01*
X122056943Y-106084904D01*
X122016102Y-106080000D01*
X122016097Y-106080000D01*
X121900000Y-106080000D01*
X121900000Y-107038170D01*
X121894975Y-107073114D01*
X121890570Y-107088112D01*
X121852827Y-107146855D01*
X121851458Y-107148042D01*
X121796597Y-107175518D01*
X121789039Y-107177163D01*
X121762668Y-107180000D01*
X121741830Y-107180000D01*
X121706889Y-107174975D01*
X121691890Y-107170570D01*
X121633144Y-107132827D01*
X121631957Y-107131458D01*
X121604477Y-107076583D01*
X121602832Y-107069021D01*
X121600000Y-107042668D01*
X121600000Y-106080000D01*
X121483898Y-106080000D01*
X121414128Y-106088378D01*
X121406893Y-106089247D01*
X121402939Y-106089483D01*
X121399526Y-106090132D01*
X121265272Y-106143075D01*
X121265270Y-106143076D01*
X121150281Y-106230275D01*
X121077096Y-106326784D01*
X121051988Y-106351582D01*
X121040827Y-106359830D01*
X120975213Y-106383842D01*
X120907037Y-106368571D01*
X120905776Y-106367872D01*
X120862557Y-106327978D01*
X120859602Y-106323525D01*
X120848362Y-106302418D01*
X120845087Y-106294510D01*
X120845080Y-106294498D01*
X120762951Y-106171584D01*
X120762948Y-106171580D01*
X120762943Y-106171574D01*
X120658424Y-106067055D01*
X120658418Y-106067050D01*
X120658417Y-106067049D01*
X120535507Y-105984923D01*
X120535506Y-105984922D01*
X120535501Y-105984919D01*
X120535488Y-105984912D01*
X120535486Y-105984911D01*
X120535481Y-105984908D01*
X120398919Y-105928344D01*
X120398920Y-105928344D01*
X120398917Y-105928343D01*
X120398907Y-105928340D01*
X120398905Y-105928339D01*
X120398900Y-105928338D01*
X120253922Y-105899500D01*
X120253920Y-105899500D01*
X120253918Y-105899500D01*
X120106082Y-105899500D01*
X120106080Y-105899500D01*
X120106078Y-105899500D01*
X119961096Y-105928338D01*
X119961079Y-105928344D01*
X119824517Y-105984908D01*
X119824511Y-105984912D01*
X119824491Y-105984923D01*
X119701581Y-106067049D01*
X119701580Y-106067050D01*
X119701574Y-106067055D01*
X119597055Y-106171574D01*
X119597050Y-106171580D01*
X119597049Y-106171581D01*
X119514923Y-106294491D01*
X119514913Y-106294508D01*
X119514908Y-106294517D01*
X119458344Y-106431079D01*
X119458338Y-106431098D01*
X119429500Y-106576076D01*
X119429500Y-107379551D01*
X119424237Y-107397471D01*
X119458338Y-107568899D01*
X119458344Y-107568919D01*
X119514908Y-107705481D01*
X119514913Y-107705490D01*
X119514923Y-107705507D01*
X119597048Y-107828416D01*
X119597051Y-107828419D01*
X119687799Y-107919167D01*
X119715496Y-107961420D01*
X119718749Y-107969684D01*
X119729481Y-107985443D01*
X119731343Y-108055288D01*
X119695148Y-108115051D01*
X119665975Y-108134917D01*
X119661959Y-108136882D01*
X119607461Y-108149500D01*
X118984101Y-108149500D01*
X118949166Y-108144477D01*
X118917357Y-108135137D01*
X118883397Y-108119258D01*
X118878908Y-108116258D01*
X118856554Y-108089506D01*
X118691645Y-108021199D01*
X118691618Y-108021193D01*
X118565975Y-107996201D01*
X118565973Y-107996201D01*
X118565969Y-107996201D01*
X118437831Y-107996201D01*
X118437826Y-107996201D01*
X118437824Y-107996201D01*
X118312180Y-108021193D01*
X118312153Y-108021199D01*
X118193780Y-108070230D01*
X118193762Y-108070240D01*
X118142194Y-108104697D01*
X118110356Y-108119930D01*
X118078720Y-108129835D01*
X118041671Y-108135500D01*
X114348106Y-108135500D01*
X114313170Y-108130477D01*
X114287928Y-108123065D01*
X114235183Y-108091769D01*
X114099516Y-107956102D01*
X114099514Y-107956100D01*
X113988473Y-107891990D01*
X113984359Y-107889615D01*
X113969059Y-107881842D01*
X113953669Y-107872461D01*
X113906672Y-107820761D01*
X113895086Y-107751861D01*
X113895772Y-107746126D01*
X113918578Y-107687965D01*
X113941232Y-107656788D01*
X114019873Y-107502445D01*
X114073402Y-107337701D01*
X114100500Y-107166611D01*
X114100500Y-106993389D01*
X114073402Y-106822299D01*
X114019873Y-106657555D01*
X113941232Y-106503212D01*
X113839414Y-106363072D01*
X113716928Y-106240586D01*
X113576788Y-106138768D01*
X113559951Y-106130189D01*
X113422449Y-106060128D01*
X113271227Y-106010992D01*
X113271216Y-106010989D01*
X113257701Y-106006598D01*
X113257699Y-106006597D01*
X113257698Y-106006597D01*
X113243296Y-106004316D01*
X113243292Y-106004315D01*
X113120781Y-105984912D01*
X113120780Y-105984911D01*
X113086611Y-105979500D01*
X112913389Y-105979500D01*
X112879218Y-105984912D01*
X112742302Y-106006596D01*
X112742301Y-106006596D01*
X112577547Y-106060129D01*
X112423210Y-106138768D01*
X112343256Y-106196859D01*
X112343255Y-106196859D01*
X112294941Y-106231961D01*
X112287564Y-106236092D01*
X112156093Y-106367563D01*
X112151961Y-106374942D01*
X112129997Y-106405173D01*
X112129996Y-106405174D01*
X112058767Y-106503209D01*
X112058763Y-106503216D01*
X112011534Y-106595911D01*
X111991201Y-106624756D01*
X111979484Y-106637163D01*
X111921715Y-106671721D01*
X111908863Y-106675197D01*
X111876484Y-106679500D01*
X109363271Y-106679500D01*
X109261411Y-106706792D01*
X109261408Y-106706793D01*
X109170097Y-106759513D01*
X109170083Y-106759522D01*
X109170078Y-106759526D01*
X102954092Y-112975512D01*
X102925836Y-112996664D01*
X102910853Y-113004845D01*
X102845241Y-113019858D01*
X102840974Y-113019644D01*
X102831944Y-113019193D01*
X102799818Y-113013279D01*
X102779985Y-113006835D01*
X102768415Y-113003075D01*
X102717718Y-112986603D01*
X102717712Y-112986601D01*
X102717702Y-112986598D01*
X102717698Y-112986597D01*
X102717694Y-112986596D01*
X102717684Y-112986594D01*
X102578874Y-112964610D01*
X102546611Y-112959500D01*
X102546610Y-112959500D01*
X102373390Y-112959500D01*
X102373389Y-112959500D01*
X102341126Y-112964610D01*
X102341125Y-112964610D01*
X102202302Y-112986596D01*
X102202301Y-112986596D01*
X102037547Y-113040129D01*
X101883211Y-113118767D01*
X101843769Y-113147425D01*
X101843768Y-113147425D01*
X101754942Y-113211961D01*
X101747563Y-113216093D01*
X101616094Y-113347562D01*
X101611960Y-113354945D01*
X101597324Y-113375087D01*
X101597325Y-113375088D01*
X101518768Y-113483210D01*
X101440129Y-113637547D01*
X101386596Y-113802301D01*
X101366795Y-113927326D01*
X101366794Y-113927331D01*
X101365582Y-113934989D01*
X101359500Y-113973389D01*
X100500500Y-113973389D01*
X100500500Y-104453383D01*
X111899500Y-104453383D01*
X111899500Y-104626614D01*
X111925424Y-104790295D01*
X111925425Y-104790300D01*
X111926598Y-104797701D01*
X111980127Y-104962445D01*
X112058768Y-105116788D01*
X112160586Y-105256928D01*
X112283072Y-105379414D01*
X112423212Y-105481232D01*
X112577555Y-105559873D01*
X112742299Y-105613402D01*
X112913389Y-105640500D01*
X112913390Y-105640500D01*
X113086610Y-105640500D01*
X113086611Y-105640500D01*
X113257701Y-105613402D01*
X113422445Y-105559873D01*
X113576788Y-105481232D01*
X113716928Y-105379414D01*
X113839414Y-105256928D01*
X113941232Y-105116788D01*
X114019873Y-104962445D01*
X114073402Y-104797701D01*
X114100500Y-104626611D01*
X114100500Y-104453389D01*
X114073402Y-104282299D01*
X114019873Y-104117555D01*
X113941232Y-103963212D01*
X113839414Y-103823072D01*
X113716928Y-103700586D01*
X113678756Y-103672852D01*
X115225000Y-103672852D01*
X115231400Y-103732370D01*
X115231402Y-103732377D01*
X115245031Y-103768917D01*
X115281645Y-103867086D01*
X115281649Y-103867093D01*
X115310406Y-103905507D01*
X115367807Y-103982185D01*
X115367813Y-103982191D01*
X115384224Y-103994476D01*
X115482906Y-104068350D01*
X115482913Y-104068354D01*
X115617620Y-104118596D01*
X115617627Y-104118598D01*
X115624468Y-104119333D01*
X115677138Y-104124998D01*
X115677155Y-104124999D01*
X115677172Y-104125000D01*
X115850000Y-104125000D01*
X116150000Y-104125000D01*
X116322828Y-104125000D01*
X116322836Y-104125000D01*
X116322847Y-104124999D01*
X116358560Y-104121158D01*
X116382372Y-104118598D01*
X116382379Y-104118596D01*
X116517086Y-104068354D01*
X116517093Y-104068350D01*
X116632187Y-103982190D01*
X116632190Y-103982187D01*
X116718350Y-103867093D01*
X116718354Y-103867086D01*
X116768596Y-103732379D01*
X116768598Y-103732372D01*
X116772016Y-103700586D01*
X116774998Y-103672860D01*
X116775000Y-103672827D01*
X116775000Y-103575000D01*
X116150000Y-103575000D01*
X116150000Y-104125000D01*
X115850000Y-104125000D01*
X115850000Y-103575000D01*
X115225000Y-103575000D01*
X115225000Y-103672852D01*
X113678756Y-103672852D01*
X113576788Y-103598768D01*
X113422449Y-103520128D01*
X113271215Y-103470988D01*
X113271203Y-103470985D01*
X113257701Y-103466598D01*
X113257699Y-103466597D01*
X113257698Y-103466597D01*
X113243312Y-103464318D01*
X113243306Y-103464317D01*
X113153188Y-103450044D01*
X113126271Y-103445781D01*
X113110407Y-103443268D01*
X113086614Y-103439500D01*
X113086611Y-103439500D01*
X112913389Y-103439500D01*
X112913388Y-103439500D01*
X112873726Y-103445781D01*
X112873725Y-103445780D01*
X112742304Y-103466596D01*
X112577549Y-103520129D01*
X112423210Y-103598768D01*
X112343256Y-103656859D01*
X112343255Y-103656859D01*
X112294941Y-103691961D01*
X112287564Y-103696092D01*
X112156092Y-103827564D01*
X112151961Y-103834941D01*
X112058770Y-103963207D01*
X111980101Y-104117604D01*
X111979631Y-104118544D01*
X111978550Y-104122406D01*
X111973000Y-104139491D01*
X111972997Y-104139499D01*
X111926596Y-104282305D01*
X111899500Y-104453383D01*
X100500500Y-104453383D01*
X100500500Y-103177146D01*
X115225000Y-103177146D01*
X115225000Y-103177155D01*
X115225000Y-103275000D01*
X115850000Y-103275000D01*
X116150000Y-103275000D01*
X116775000Y-103275000D01*
X116775000Y-103177172D01*
X116774999Y-103177155D01*
X116769096Y-103122259D01*
X116743493Y-103050316D01*
X116718355Y-102982915D01*
X116718354Y-102982913D01*
X116718352Y-102982909D01*
X116718343Y-102982896D01*
X116673392Y-102922849D01*
X116975000Y-102922849D01*
X116980862Y-102977364D01*
X116980863Y-102977368D01*
X117031798Y-103117292D01*
X117031801Y-103117297D01*
X117076624Y-103177172D01*
X117117809Y-103232187D01*
X117117812Y-103232190D01*
X117232906Y-103318350D01*
X117232913Y-103318354D01*
X117367620Y-103368596D01*
X117367627Y-103368598D01*
X117374468Y-103369333D01*
X117427138Y-103374998D01*
X117427155Y-103374999D01*
X117427172Y-103375000D01*
X117600000Y-103375000D01*
X117900000Y-103375000D01*
X118072828Y-103375000D01*
X118072836Y-103375000D01*
X118072847Y-103374999D01*
X118108560Y-103371158D01*
X118132372Y-103368598D01*
X118132379Y-103368596D01*
X118267086Y-103318354D01*
X118267093Y-103318350D01*
X118382187Y-103232190D01*
X118382190Y-103232187D01*
X118468350Y-103117093D01*
X118468354Y-103117086D01*
X118518596Y-102982379D01*
X118518598Y-102982372D01*
X118523022Y-102941231D01*
X118524998Y-102922860D01*
X118525000Y-102922827D01*
X118525000Y-102825000D01*
X117900000Y-102825000D01*
X117900000Y-103375000D01*
X117600000Y-103375000D01*
X117600000Y-102825000D01*
X116975000Y-102825000D01*
X116975000Y-102922849D01*
X116673392Y-102922849D01*
X116632198Y-102867822D01*
X116632192Y-102867815D01*
X116632190Y-102867812D01*
X116632187Y-102867809D01*
X116517093Y-102781649D01*
X116517086Y-102781645D01*
X116449732Y-102756524D01*
X116382377Y-102731402D01*
X116382370Y-102731400D01*
X116322852Y-102725000D01*
X116322844Y-102725000D01*
X116150000Y-102725000D01*
X116150000Y-103275000D01*
X115850000Y-103275000D01*
X115850000Y-102725000D01*
X115677146Y-102725000D01*
X115617628Y-102731400D01*
X115617621Y-102731402D01*
X115482910Y-102781646D01*
X115482907Y-102781648D01*
X115367813Y-102867807D01*
X115367807Y-102867813D01*
X115281648Y-102982907D01*
X115281646Y-102982910D01*
X115231402Y-103117621D01*
X115231400Y-103117628D01*
X115225000Y-103177146D01*
X100500500Y-103177146D01*
X100500500Y-102624000D01*
X100520185Y-102556961D01*
X100572989Y-102511206D01*
X100624500Y-102500000D01*
X102500000Y-102500000D01*
X102500000Y-101105205D01*
X111850000Y-101105205D01*
X111850000Y-101850000D01*
X112376000Y-101850000D01*
X112443039Y-101869685D01*
X112488794Y-101922489D01*
X112500000Y-101974000D01*
X112500000Y-102026000D01*
X112480315Y-102093039D01*
X112427511Y-102138794D01*
X112376000Y-102150000D01*
X111850001Y-102150000D01*
X111850001Y-102894785D01*
X111850002Y-102894804D01*
X111852908Y-102919871D01*
X111898210Y-103022472D01*
X111898210Y-103022474D01*
X111898215Y-103022481D01*
X111977517Y-103101783D01*
X111977520Y-103101785D01*
X111977525Y-103101788D01*
X112080123Y-103147089D01*
X112105206Y-103149999D01*
X112849999Y-103149999D01*
X112850000Y-103149998D01*
X112850000Y-102624000D01*
X112869685Y-102556961D01*
X112922489Y-102511206D01*
X112974000Y-102500000D01*
X113026000Y-102500000D01*
X113093039Y-102519685D01*
X113138794Y-102572489D01*
X113150000Y-102624000D01*
X113150000Y-103149999D01*
X113894786Y-103149999D01*
X113894791Y-103149999D01*
X113894791Y-103149998D01*
X113894808Y-103149997D01*
X113894808Y-103149996D01*
X113894824Y-103149996D01*
X113915922Y-103147548D01*
X113919869Y-103147091D01*
X113919873Y-103147090D01*
X114022474Y-103101788D01*
X114022479Y-103101785D01*
X114038095Y-103086170D01*
X114101785Y-103022479D01*
X114101788Y-103022474D01*
X114147089Y-102919877D01*
X114147089Y-102919875D01*
X114147660Y-102917170D01*
X114147915Y-102912761D01*
X114149673Y-102897602D01*
X114150000Y-102895248D01*
X114150000Y-102150000D01*
X113624000Y-102150000D01*
X113556961Y-102130315D01*
X113511206Y-102077511D01*
X113500000Y-102026000D01*
X113500000Y-101974000D01*
X113519685Y-101906961D01*
X113572489Y-101861206D01*
X113624000Y-101850000D01*
X114149999Y-101850000D01*
X114149999Y-101105220D01*
X114149998Y-101105202D01*
X114149997Y-101105191D01*
X114147091Y-101080130D01*
X114147090Y-101080126D01*
X114101788Y-100977525D01*
X114101785Y-100977520D01*
X114101785Y-100977519D01*
X114022481Y-100898215D01*
X114022475Y-100898211D01*
X113919876Y-100852910D01*
X113894795Y-100850000D01*
X113894794Y-100850000D01*
X113150000Y-100850000D01*
X113150000Y-101376000D01*
X113130315Y-101443039D01*
X113077511Y-101488794D01*
X113026000Y-101500000D01*
X112974000Y-101500000D01*
X112906961Y-101480315D01*
X112861206Y-101427511D01*
X112850000Y-101376000D01*
X112850000Y-100850000D01*
X112105214Y-100850000D01*
X112105202Y-100850000D01*
X112080126Y-100852908D01*
X111977526Y-100898210D01*
X111977524Y-100898210D01*
X111977517Y-100898215D01*
X111898216Y-100977516D01*
X111898214Y-100977520D01*
X111898211Y-100977525D01*
X111898211Y-100977526D01*
X111898208Y-100977532D01*
X111852909Y-101080121D01*
X111852884Y-101080239D01*
X111852883Y-101080351D01*
X111850000Y-101105205D01*
X102500000Y-101105205D01*
X102500000Y-100624500D01*
X102519685Y-100557461D01*
X102572489Y-100511706D01*
X102624000Y-100500500D01*
X115931308Y-100500500D01*
X115966240Y-100505521D01*
G37*
%TD.AperFunction*%
%TD*%
M02*
